<ttFont>
    <TTGlyph name="A" xMin="33" yMin="0" xMax="1885" yMax="1656">
      <contour>
        <pt x="808" y="486" on="1"/>
        <pt x="837" y="558" on="1"/>
        <pt x="1083" y="558" on="1"/>
        <pt x="1112" y="486" on="1"/>
      </contour>
      <contour>
        <pt x="752" y="342" on="1"/>
        <pt x="780" y="414" on="1"/>
        <pt x="1139" y="414" on="1"/>
        <pt x="1170" y="342" on="1"/>
      </contour>
      <contour>
        <pt x="696" y="198" on="1"/>
        <pt x="724" y="270" on="1"/>
        <pt x="1196" y="270" on="1"/>
        <pt x="1226" y="198" on="1"/>
      </contour>
      <contour>
        <pt x="111" y="0" on="1"/>
        <pt x="33" y="0" on="1"/>
        <pt x="688" y="1656" on="1"/>
        <pt x="766" y="1656" on="1"/>
        <pt x="1420" y="0" on="1"/>
        <pt x="1343" y="0" on="1"/>
        <pt x="727" y="1559" on="1"/>
      </contour>
      <contour>
        <pt x="736" y="1388" on="1"/>
        <pt x="777" y="1296" on="1"/>
        <pt x="265" y="0" on="1"/>
        <pt x="188" y="0" on="1"/>
      </contour>
      <contour>
        <pt x="816" y="1198" on="1"/>
        <pt x="854" y="1099" on="1"/>
        <pt x="421" y="0" on="1"/>
        <pt x="343" y="0" on="1"/>
      </contour>
      <contour>
        <pt x="892" y="1000" on="1"/>
        <pt x="930" y="899" on="1"/>
        <pt x="575" y="0" on="1"/>
        <pt x="498" y="0" on="1"/>
      </contour>
      <contour>
        <pt x="1885" y="0" on="1"/>
        <pt x="1807" y="0" on="1"/>
        <pt x="1153" y="1656" on="1"/>
        <pt x="1230" y="1656" on="1"/>
      </contour>
      <contour>
        <pt x="1075" y="1656" on="1"/>
        <pt x="1730" y="0" on="1"/>
        <pt x="1653" y="0" on="1"/>
        <pt x="998" y="1656" on="1"/>
      </contour>
      <contour>
        <pt x="920" y="1656" on="1"/>
        <pt x="1575" y="0" on="1"/>
        <pt x="1497" y="0" on="1"/>
        <pt x="843" y="1656" on="1"/>
      </contour>
    </TTGlyph>
    <TTGlyph name="AE" xMin="34" yMin="0" xMax="2377" yMax="1656">
      <contour>
        <pt x="809" y="486" on="1"/>
        <pt x="838" y="558" on="1"/>
        <pt x="1084" y="558" on="1"/>
        <pt x="1113" y="486" on="1"/>
      </contour>
      <contour>
        <pt x="753" y="342" on="1"/>
        <pt x="781" y="414" on="1"/>
        <pt x="1140" y="414" on="1"/>
        <pt x="1171" y="342" on="1"/>
      </contour>
      <contour>
        <pt x="697" y="198" on="1"/>
        <pt x="725" y="270" on="1"/>
        <pt x="1197" y="270" on="1"/>
        <pt x="1227" y="198" on="1"/>
      </contour>
      <contour>
        <pt x="112" y="0" on="1"/>
        <pt x="34" y="0" on="1"/>
        <pt x="689" y="1656" on="1"/>
        <pt x="689" y="1656" on="0"/>
        <pt x="767" y="1656" on="1"/>
        <pt x="1421" y="0" on="1"/>
        <pt x="1344" y="0" on="1"/>
        <pt x="728" y="1559" on="1"/>
      </contour>
      <contour>
        <pt x="737" y="1388" on="1"/>
        <pt x="778" y="1296" on="1"/>
        <pt x="266" y="0" on="1"/>
        <pt x="189" y="0" on="1"/>
      </contour>
      <contour>
        <pt x="817" y="1198" on="1"/>
        <pt x="855" y="1099" on="1"/>
        <pt x="422" y="0" on="1"/>
        <pt x="344" y="0" on="1"/>
      </contour>
      <contour>
        <pt x="893" y="1000" on="1"/>
        <pt x="931" y="899" on="1"/>
        <pt x="576" y="0" on="1"/>
        <pt x="499" y="0" on="1"/>
      </contour>
      <contour>
        <pt x="1076" y="1656" on="1"/>
        <pt x="1731" y="0" on="1"/>
        <pt x="1654" y="0" on="1"/>
        <pt x="999" y="1656" on="1"/>
      </contour>
      <contour>
        <pt x="921" y="1656" on="1"/>
        <pt x="1576" y="0" on="1"/>
        <pt x="1498" y="0" on="1"/>
        <pt x="844" y="1656" on="1"/>
      </contour>
      <contour>
        <pt x="1735" y="360" on="1"/>
        <pt x="2377" y="360" on="1"/>
        <pt x="2377" y="288" on="1"/>
        <pt x="1765" y="288" on="1"/>
        <pt x="1795" y="216" on="1"/>
        <pt x="2377" y="216" on="1"/>
        <pt x="2377" y="144" on="1"/>
        <pt x="1819" y="144" on="1"/>
        <pt x="1847" y="72" on="1"/>
        <pt x="2377" y="72" on="1"/>
        <pt x="2377" y="0" on="1"/>
        <pt x="1798" y="0" on="1"/>
        <pt x="1157" y="1656" on="1"/>
        <pt x="2377" y="1656" on="1"/>
        <pt x="2377" y="1584" on="1"/>
        <pt x="1261" y="1584" on="1"/>
        <pt x="1291" y="1512" on="1"/>
        <pt x="2377" y="1512" on="1"/>
        <pt x="2377" y="1440" on="1"/>
        <pt x="1318" y="1440" on="1"/>
        <pt x="1345" y="1368" on="1"/>
        <pt x="2377" y="1368" on="1"/>
        <pt x="2377" y="1296" on="1"/>
        <pt x="1372" y="1296" on="1"/>
        <pt x="1489" y="1008" on="1"/>
        <pt x="2253" y="1008" on="1"/>
        <pt x="2253" y="936" on="1"/>
        <pt x="1516" y="936" on="1"/>
        <pt x="1543" y="864" on="1"/>
        <pt x="2253" y="864" on="1"/>
        <pt x="2253" y="792" on="1"/>
        <pt x="1570" y="792" on="1"/>
        <pt x="1597" y="720" on="1"/>
        <pt x="2253" y="720" on="1"/>
        <pt x="2253" y="648" on="1"/>
        <pt x="1618" y="648" on="1"/>
      </contour>
    </TTGlyph>
    <TTGlyph name="Aacute" xMin="33" yMin="0" xMax="1885" yMax="2312">
      <component glyphName="acute" x="718" y="373" flags="0x1004"/>
      <component glyphName="A" x="0" y="0" flags="0x1204"/>
    </TTGlyph>
    <TTGlyph name="Abreve" xMin="33" yMin="0" xMax="1885" yMax="2078">
      <component glyphName="breve" x="589" y="226" flags="0x1004"/>
      <component glyphName="A" x="0" y="0" flags="0x1204"/>
    </TTGlyph>
    <TTGlyph name="Acircumflex" xMin="33" yMin="0" xMax="1885" yMax="2318">
      <component glyphName="circumflex" x="573" y="286" flags="0x1004"/>
      <component glyphName="A" x="0" y="0" flags="0x1204"/>
    </TTGlyph>
    <TTGlyph name="Adieresis" xMin="33" yMin="0" xMax="1885" yMax="2054">
      <component glyphName="dieresis" x="388" y="318" flags="0x1004"/>
      <component glyphName="A" x="0" y="0" flags="0x1204"/>
    </TTGlyph>
    <TTGlyph name="Agrave" xMin="33" yMin="0" xMax="1885" yMax="2312">
      <component glyphName="grave" x="232" y="373" flags="0x1004"/>
      <component glyphName="A" x="0" y="0" flags="0x1204"/>
    </TTGlyph>
    <TTGlyph name="Amacron" xMin="33" yMin="0" xMax="1885" yMax="1656">
      <component glyphName="A" x="0" y="0" flags="0x1204"/>
    </TTGlyph>
    <TTGlyph name="Aogonek" xMin="47" yMin="-626" xMax="1899" yMax="1656">
      <component glyphName="ogonek" x="531" y="-50" flags="0x1004"/>
      <component glyphName="A" x="14" y="0" flags="0x1004"/>
    </TTGlyph>
    <TTGlyph name="Aring" xMin="33" yMin="0" xMax="1885" yMax="2246">
      <component glyphName="ring" x="620" y="126" flags="0x1004"/>
      <component glyphName="A" x="0" y="0" flags="0x1204"/>
    </TTGlyph>
    <TTGlyph name="Atilde" xMin="33" yMin="0" xMax="1885" yMax="2190">
      <component glyphName="tilde" x="274" y="678" flags="0x1004"/>
      <component glyphName="A" x="0" y="0" flags="0x1204"/>
    </TTGlyph>
    <TTGlyph name="B" xMin="93" yMin="0" xMax="1697" yMax="1656">
      <contour>
        <pt x="1193" y="577" on="1"/>
        <pt x="1193" y="616" on="0"/>
        <pt x="1146" y="642" on="0"/>
        <pt x="1101" y="642" on="1"/>
        <pt x="637" y="642" on="1"/>
        <pt x="637" y="714" on="1"/>
        <pt x="1101" y="714" on="1"/>
        <pt x="1265" y="714" on="0"/>
        <pt x="1265" y="577" on="1"/>
        <pt x="1265" y="500" on="0"/>
        <pt x="1175" y="432" on="0"/>
        <pt x="1101" y="432" on="1"/>
        <pt x="637" y="432" on="1"/>
        <pt x="637" y="504" on="1"/>
        <pt x="1101" y="504" on="1"/>
        <pt x="1193" y="504" on="0"/>
      </contour>
      <contour>
        <pt x="597" y="0" on="1"/>
        <pt x="525" y="0" on="1"/>
        <pt x="525" y="1224" on="1"/>
        <pt x="1101" y="1224" on="1"/>
        <pt x="1169" y="1224" on="0"/>
        <pt x="1265" y="1141" on="0"/>
        <pt x="1265" y="1079" on="1"/>
        <pt x="1265" y="997" on="0"/>
        <pt x="1175" y="924" on="0"/>
        <pt x="1101" y="924" on="1"/>
        <pt x="637" y="924" on="1"/>
        <pt x="637" y="996" on="1"/>
        <pt x="1101" y="996" on="1"/>
        <pt x="1193" y="996" on="0"/>
        <pt x="1193" y="1079" on="1"/>
        <pt x="1193" y="1113" on="0"/>
        <pt x="1141" y="1152" on="0"/>
        <pt x="1101" y="1152" on="1"/>
        <pt x="597" y="1152" on="1"/>
      </contour>
      <contour>
        <pt x="637" y="852" on="1"/>
        <pt x="1101" y="852" on="1"/>
        <pt x="1200" y="852" on="0"/>
        <pt x="1337" y="971" on="0"/>
        <pt x="1337" y="1079" on="1"/>
        <pt x="1337" y="1166" on="0"/>
        <pt x="1194" y="1296" on="0"/>
        <pt x="1101" y="1296" on="1"/>
        <pt x="453" y="1296" on="1"/>
        <pt x="453" y="0" on="1"/>
        <pt x="381" y="0" on="1"/>
        <pt x="381" y="1368" on="1"/>
        <pt x="1101" y="1368" on="1"/>
        <pt x="1224" y="1368" on="0"/>
        <pt x="1409" y="1195" on="0"/>
        <pt x="1409" y="1079" on="1"/>
        <pt x="1409" y="988" on="0"/>
        <pt x="1324" y="852" on="0"/>
        <pt x="1252" y="815" on="1"/>
        <pt x="1409" y="759" on="0"/>
        <pt x="1409" y="587" on="1"/>
        <pt x="1409" y="451" on="0"/>
        <pt x="1229" y="288" on="0"/>
        <pt x="1101" y="288" on="1"/>
        <pt x="637" y="288" on="1"/>
        <pt x="637" y="360" on="1"/>
        <pt x="1101" y="360" on="1"/>
        <pt x="1200" y="360" on="0"/>
        <pt x="1337" y="479" on="0"/>
        <pt x="1337" y="587" on="1"/>
        <pt x="1337" y="660" on="0"/>
        <pt x="1233" y="772" on="0"/>
        <pt x="1132" y="781" on="1"/>
        <pt x="1122" y="780" on="0"/>
        <pt x="1101" y="780" on="1"/>
        <pt x="637" y="780" on="1"/>
      </contour>
      <contour>
        <pt x="1553" y="1079" on="1"/>
        <pt x="1553" y="939" on="0"/>
        <pt x="1454" y="826" on="1"/>
        <pt x="1553" y="716" on="0"/>
        <pt x="1553" y="587" on="1"/>
        <pt x="1553" y="462" on="0"/>
        <pt x="1428" y="257" on="0"/>
        <pt x="1221" y="144" on="0"/>
        <pt x="1101" y="144" on="1"/>
        <pt x="637" y="144" on="1"/>
        <pt x="637" y="216" on="1"/>
        <pt x="1101" y="216" on="1"/>
        <pt x="1257" y="216" on="0"/>
        <pt x="1481" y="425" on="0"/>
        <pt x="1481" y="587" on="1"/>
        <pt x="1481" y="645" on="0"/>
        <pt x="1422" y="786" on="0"/>
        <pt x="1370" y="823" on="1"/>
        <pt x="1481" y="927" on="0"/>
        <pt x="1481" y="1079" on="1"/>
        <pt x="1481" y="1225" on="0"/>
        <pt x="1253" y="1440" on="0"/>
        <pt x="1101" y="1440" on="1"/>
        <pt x="309" y="1440" on="1"/>
        <pt x="309" y="0" on="1"/>
        <pt x="237" y="0" on="1"/>
        <pt x="237" y="1512" on="1"/>
        <pt x="1101" y="1512" on="1"/>
        <pt x="1220" y="1512" on="0"/>
        <pt x="1429" y="1395" on="0"/>
        <pt x="1553" y="1194" on="0"/>
      </contour>
      <contour>
        <pt x="1536" y="822" on="1"/>
        <pt x="1625" y="941" on="0"/>
        <pt x="1625" y="1079" on="1"/>
        <pt x="1625" y="1214" on="0"/>
        <pt x="1482" y="1447" on="0"/>
        <pt x="1240" y="1584" on="0"/>
        <pt x="1101" y="1584" on="1"/>
        <pt x="165" y="1584" on="1"/>
        <pt x="165" y="0" on="1"/>
        <pt x="93" y="0" on="1"/>
        <pt x="93" y="1656" on="1"/>
        <pt x="1101" y="1656" on="1"/>
        <pt x="1259" y="1656" on="0"/>
        <pt x="1534" y="1500" on="0"/>
        <pt x="1697" y="1233" on="0"/>
        <pt x="1697" y="1079" on="1"/>
        <pt x="1697" y="932" on="0"/>
        <pt x="1614" y="821" on="1"/>
        <pt x="1697" y="706" on="0"/>
        <pt x="1697" y="587" on="1"/>
        <pt x="1697" y="453" on="0"/>
        <pt x="1601" y="230" on="0"/>
        <pt x="1438" y="82" on="0"/>
        <pt x="1222" y="0" on="0"/>
        <pt x="1101" y="0" on="1"/>
        <pt x="637" y="0" on="1"/>
        <pt x="637" y="72" on="1"/>
        <pt x="1101" y="72" on="1"/>
        <pt x="1206" y="72" on="0"/>
        <pt x="1398" y="151" on="0"/>
        <pt x="1540" y="287" on="0"/>
        <pt x="1625" y="479" on="0"/>
        <pt x="1625" y="587" on="1"/>
        <pt x="1625" y="635" on="0"/>
        <pt x="1580" y="770" on="0"/>
      </contour>
    </TTGlyph>
    <TTGlyph name="C" xMin="56" yMin="-72" xMax="1700" yMax="1728">
      <contour>
        <pt x="1343" y="1090" on="1"/>
        <pt x="1284" y="1051" on="1"/>
        <pt x="1230" y="1131" on="0"/>
        <pt x="1057" y="1224" on="0"/>
        <pt x="956" y="1224" on="1"/>
        <pt x="792" y="1224" on="0"/>
        <pt x="560" y="992" on="0"/>
        <pt x="560" y="664" on="0"/>
        <pt x="792" y="432" on="0"/>
        <pt x="956" y="432" on="1"/>
        <pt x="1057" y="432" on="0"/>
        <pt x="1230" y="526" on="0"/>
        <pt x="1284" y="606" on="1"/>
        <pt x="1342" y="564" on="1"/>
        <pt x="1278" y="470" on="0"/>
        <pt x="1074" y="360" on="0"/>
        <pt x="956" y="360" on="1"/>
        <pt x="861" y="360" on="0"/>
        <pt x="688" y="434" on="0"/>
        <pt x="562" y="560" on="0"/>
        <pt x="488" y="733" on="0"/>
        <pt x="488" y="923" on="0"/>
        <pt x="562" y="1096" on="0"/>
        <pt x="688" y="1222" on="0"/>
        <pt x="861" y="1296" on="0"/>
        <pt x="956" y="1296" on="1"/>
        <pt x="1075" y="1296" on="0"/>
        <pt x="1279" y="1185" on="0"/>
      </contour>
      <contour>
        <pt x="1462" y="1172" on="1"/>
        <pt x="1402" y="1133" on="1"/>
        <pt x="1328" y="1241" on="0"/>
        <pt x="1093" y="1368" on="0"/>
        <pt x="956" y="1368" on="1"/>
        <pt x="809" y="1368" on="0"/>
        <pt x="561" y="1223" on="0"/>
        <pt x="416" y="975" on="0"/>
        <pt x="416" y="681" on="0"/>
        <pt x="561" y="433" on="0"/>
        <pt x="809" y="288" on="0"/>
        <pt x="956" y="288" on="1"/>
        <pt x="1093" y="288" on="0"/>
        <pt x="1329" y="416" on="0"/>
        <pt x="1403" y="525" on="1"/>
        <pt x="1462" y="484" on="1"/>
        <pt x="1378" y="360" on="0"/>
        <pt x="1111" y="216" on="0"/>
        <pt x="956" y="216" on="1"/>
        <pt x="790" y="216" on="0"/>
        <pt x="508" y="380" on="0"/>
        <pt x="344" y="662" on="0"/>
        <pt x="344" y="994" on="0"/>
        <pt x="508" y="1276" on="0"/>
        <pt x="790" y="1440" on="0"/>
        <pt x="956" y="1440" on="1"/>
        <pt x="1111" y="1440" on="0"/>
        <pt x="1378" y="1296" on="0"/>
      </contour>
      <contour>
        <pt x="1582" y="1252" on="1"/>
        <pt x="1522" y="1213" on="1"/>
        <pt x="1428" y="1351" on="0"/>
        <pt x="1129" y="1512" on="0"/>
        <pt x="956" y="1512" on="1"/>
        <pt x="817" y="1512" on="0"/>
        <pt x="563" y="1404" on="0"/>
        <pt x="380" y="1221" on="0"/>
        <pt x="272" y="967" on="0"/>
        <pt x="272" y="689" on="0"/>
        <pt x="380" y="435" on="0"/>
        <pt x="563" y="252" on="0"/>
        <pt x="817" y="144" on="0"/>
        <pt x="956" y="144" on="1"/>
        <pt x="1130" y="144" on="0"/>
        <pt x="1428" y="306" on="0"/>
        <pt x="1522" y="444" on="1"/>
        <pt x="1580" y="401" on="1"/>
        <pt x="1476" y="249" on="0"/>
        <pt x="1147" y="72" on="0"/>
        <pt x="956" y="72" on="1"/>
        <pt x="751" y="72" on="0"/>
        <pt x="403" y="275" on="0"/>
        <pt x="200" y="623" on="0"/>
        <pt x="200" y="1033" on="0"/>
        <pt x="403" y="1381" on="0"/>
        <pt x="751" y="1584" on="0"/>
        <pt x="956" y="1584" on="1"/>
        <pt x="1148" y="1584" on="0"/>
        <pt x="1478" y="1405" on="0"/>
      </contour>
      <contour>
        <pt x="1700" y="1334" on="1"/>
        <pt x="1640" y="1295" on="1"/>
        <pt x="1526" y="1462" on="0"/>
        <pt x="1165" y="1656" on="0"/>
        <pt x="956" y="1656" on="1"/>
        <pt x="788" y="1656" on="0"/>
        <pt x="481" y="1525" on="0"/>
        <pt x="259" y="1303" on="0"/>
        <pt x="128" y="996" on="0"/>
        <pt x="128" y="660" on="0"/>
        <pt x="259" y="353" on="0"/>
        <pt x="481" y="131" on="0"/>
        <pt x="788" y="0" on="0"/>
        <pt x="956" y="0" on="1"/>
        <pt x="1165" y="0" on="0"/>
        <pt x="1527" y="196" on="0"/>
        <pt x="1641" y="363" on="1"/>
        <pt x="1699" y="319" on="1"/>
        <pt x="1575" y="139" on="0"/>
        <pt x="1183" y="-72" on="0"/>
        <pt x="956" y="-72" on="1"/>
        <pt x="773" y="-72" on="0"/>
        <pt x="440" y="71" on="0"/>
        <pt x="199" y="312" on="0"/>
        <pt x="56" y="645" on="0"/>
        <pt x="56" y="1011" on="0"/>
        <pt x="199" y="1344" on="0"/>
        <pt x="440" y="1585" on="0"/>
        <pt x="773" y="1728" on="0"/>
        <pt x="956" y="1728" on="1"/>
        <pt x="1184" y="1728" on="0"/>
        <pt x="1576" y="1516" on="0"/>
      </contour>
    </TTGlyph>
    <TTGlyph name="Cacute" xMin="56" yMin="-72" xMax="1700" yMax="2312">
      <component glyphName="acute" x="715" y="373" flags="0x1004"/>
      <component glyphName="C" x="0" y="0" flags="0x1204"/>
    </TTGlyph>
    <TTGlyph name="Ccaron" xMin="56" yMin="-72" xMax="1700" yMax="2318">
      <component glyphName="caron" x="585" y="290" flags="0x1004"/>
      <component glyphName="C" x="0" y="0" flags="0x1204"/>
    </TTGlyph>
    <TTGlyph name="Ccedilla" xMin="56" yMin="-710" xMax="1700" yMax="1728">
      <component glyphName="cedilla" x="507" y="59" flags="0x1004"/>
      <component glyphName="C" x="0" y="0" flags="0x1204"/>
    </TTGlyph>
    <TTGlyph name="Cdotaccent" xMin="56" yMin="-72" xMax="1700" yMax="2190">
      <component glyphName="dotaccent" x="694" y="534" flags="0x1004"/>
      <component glyphName="C" x="0" y="0" flags="0x1204"/>
    </TTGlyph>
    <TTGlyph name="D" xMin="93" yMin="0" xMax="1750" yMax="1656">
      <contour>
        <pt x="525" y="432" on="1"/>
        <pt x="525" y="1224" on="1"/>
        <pt x="525" y="1224" on="0"/>
        <pt x="1016" y="1224" on="1"/>
        <pt x="1135" y="1224" on="0"/>
        <pt x="1306" y="991" on="0"/>
        <pt x="1306" y="828" on="1"/>
        <pt x="1306" y="664" on="0"/>
        <pt x="1135" y="432" on="0"/>
        <pt x="1016" y="432" on="1"/>
      </contour>
      <contour>
        <pt x="597" y="504" on="1"/>
        <pt x="1016" y="504" on="1"/>
        <pt x="1105" y="504" on="0"/>
        <pt x="1232" y="694" on="0"/>
        <pt x="1232" y="828" on="1"/>
        <pt x="1232" y="963" on="0"/>
        <pt x="1105" y="1152" on="0"/>
        <pt x="1016" y="1152" on="1"/>
        <pt x="597" y="1152" on="1"/>
      </contour>
      <contour>
        <pt x="453" y="360" on="1"/>
        <pt x="1016" y="360" on="1"/>
        <pt x="1165" y="360" on="0"/>
        <pt x="1380" y="635" on="0"/>
        <pt x="1380" y="828" on="1"/>
        <pt x="1380" y="955" on="0"/>
        <pt x="1281" y="1171" on="0"/>
        <pt x="1114" y="1296" on="0"/>
        <pt x="1016" y="1296" on="1"/>
        <pt x="453" y="1296" on="1"/>
      </contour>
      <contour>
        <pt x="381" y="288" on="1"/>
        <pt x="381" y="1368" on="1"/>
        <pt x="1016" y="1368" on="1"/>
        <pt x="1133" y="1368" on="0"/>
        <pt x="1335" y="1224" on="0"/>
        <pt x="1454" y="975" on="0"/>
        <pt x="1454" y="828" on="1"/>
        <pt x="1454" y="682" on="0"/>
        <pt x="1335" y="432" on="0"/>
        <pt x="1133" y="288" on="0"/>
        <pt x="1016" y="288" on="1"/>
      </contour>
      <contour>
        <pt x="309" y="216" on="1"/>
        <pt x="1016" y="216" on="1"/>
        <pt x="1153" y="216" on="0"/>
        <pt x="1388" y="380" on="0"/>
        <pt x="1528" y="662" on="0"/>
        <pt x="1528" y="828" on="1"/>
        <pt x="1528" y="993" on="0"/>
        <pt x="1388" y="1276" on="0"/>
        <pt x="1152" y="1440" on="0"/>
        <pt x="1016" y="1440" on="1"/>
        <pt x="309" y="1440" on="1"/>
      </contour>
      <contour>
        <pt x="237" y="144" on="1"/>
        <pt x="237" y="1512" on="1"/>
        <pt x="1016" y="1512" on="1"/>
        <pt x="1172" y="1512" on="0"/>
        <pt x="1442" y="1329" on="0"/>
        <pt x="1602" y="1013" on="0"/>
        <pt x="1602" y="643" on="0"/>
        <pt x="1442" y="327" on="0"/>
        <pt x="1172" y="144" on="0"/>
        <pt x="1016" y="144" on="1"/>
      </contour>
      <contour>
        <pt x="165" y="72" on="1"/>
        <pt x="1016" y="72" on="1"/>
        <pt x="1147" y="72" on="0"/>
        <pt x="1391" y="192" on="0"/>
        <pt x="1569" y="394" on="0"/>
        <pt x="1676" y="675" on="0"/>
        <pt x="1676" y="981" on="0"/>
        <pt x="1569" y="1261" on="0"/>
        <pt x="1391" y="1464" on="0"/>
        <pt x="1147" y="1584" on="0"/>
        <pt x="1016" y="1584" on="1"/>
        <pt x="165" y="1584" on="1"/>
      </contour>
      <contour>
        <pt x="1016" y="0" on="1"/>
        <pt x="93" y="0" on="1"/>
        <pt x="93" y="1656" on="1"/>
        <pt x="1016" y="1656" on="1"/>
        <pt x="1211" y="1656" on="0"/>
        <pt x="1549" y="1434" on="0"/>
        <pt x="1750" y="1052" on="0"/>
        <pt x="1750" y="828" on="1"/>
        <pt x="1750" y="660" on="0"/>
        <pt x="1631" y="353" on="0"/>
        <pt x="1433" y="131" on="0"/>
        <pt x="1162" y="0" on="0"/>
      </contour>
    </TTGlyph>
    <TTGlyph name="Dcaron" xMin="93" yMin="0" xMax="1750" yMax="2318">
      <component glyphName="caron" x="550" y="290" flags="0x1004"/>
      <component glyphName="D" x="0" y="0" flags="0x1204"/>
    </TTGlyph>
    <TTGlyph name="Dcroat" xMin="-100" yMin="0" xMax="1751" yMax="1656">
      <contour>
        <pt x="-100" y="798" on="1"/>
        <pt x="50" y="798" on="1"/>
        <pt x="50" y="870" on="1"/>
        <pt x="-100" y="870" on="1"/>
      </contour>
      <contour>
        <pt x="-100" y="726" on="1"/>
        <pt x="50" y="726" on="1"/>
        <pt x="50" y="654" on="1"/>
        <pt x="-100" y="654" on="1"/>
      </contour>
      <contour>
        <pt x="-100" y="942" on="1"/>
        <pt x="50" y="942" on="1"/>
        <pt x="50" y="1014" on="1"/>
        <pt x="-100" y="1014" on="1"/>
      </contour>
      <contour>
        <pt x="636" y="798" on="1"/>
        <pt x="878" y="798" on="1"/>
        <pt x="878" y="870" on="1"/>
        <pt x="636" y="870" on="1"/>
      </contour>
      <contour>
        <pt x="636" y="726" on="1"/>
        <pt x="878" y="726" on="1"/>
        <pt x="878" y="654" on="1"/>
        <pt x="636" y="654" on="1"/>
      </contour>
      <contour>
        <pt x="636" y="942" on="1"/>
        <pt x="878" y="942" on="1"/>
        <pt x="878" y="1014" on="1"/>
        <pt x="636" y="1014" on="1"/>
      </contour>
      <contour>
        <pt x="526" y="432" on="1"/>
        <pt x="526" y="1224" on="1"/>
        <pt x="526" y="1224" on="0"/>
        <pt x="1017" y="1224" on="1"/>
        <pt x="1136" y="1224" on="0"/>
        <pt x="1307" y="991" on="0"/>
        <pt x="1307" y="828" on="1"/>
        <pt x="1307" y="664" on="0"/>
        <pt x="1136" y="432" on="0"/>
        <pt x="1017" y="432" on="1"/>
      </contour>
      <contour>
        <pt x="598" y="504" on="1"/>
        <pt x="1017" y="504" on="1"/>
        <pt x="1106" y="504" on="0"/>
        <pt x="1233" y="694" on="0"/>
        <pt x="1233" y="828" on="1"/>
        <pt x="1233" y="963" on="0"/>
        <pt x="1106" y="1152" on="0"/>
        <pt x="1017" y="1152" on="1"/>
        <pt x="598" y="1152" on="1"/>
      </contour>
      <contour>
        <pt x="454" y="360" on="1"/>
        <pt x="1017" y="360" on="1"/>
        <pt x="1166" y="360" on="0"/>
        <pt x="1381" y="635" on="0"/>
        <pt x="1381" y="828" on="1"/>
        <pt x="1381" y="955" on="0"/>
        <pt x="1282" y="1171" on="0"/>
        <pt x="1115" y="1296" on="0"/>
        <pt x="1017" y="1296" on="1"/>
        <pt x="454" y="1296" on="1"/>
      </contour>
      <contour>
        <pt x="382" y="288" on="1"/>
        <pt x="382" y="1368" on="1"/>
        <pt x="1017" y="1368" on="1"/>
        <pt x="1134" y="1368" on="0"/>
        <pt x="1336" y="1224" on="0"/>
        <pt x="1455" y="975" on="0"/>
        <pt x="1455" y="828" on="1"/>
        <pt x="1455" y="682" on="0"/>
        <pt x="1336" y="432" on="0"/>
        <pt x="1134" y="288" on="0"/>
        <pt x="1017" y="288" on="1"/>
      </contour>
      <contour>
        <pt x="310" y="216" on="1"/>
        <pt x="1017" y="216" on="1"/>
        <pt x="1154" y="216" on="0"/>
        <pt x="1389" y="380" on="0"/>
        <pt x="1529" y="662" on="0"/>
        <pt x="1529" y="828" on="1"/>
        <pt x="1529" y="993" on="0"/>
        <pt x="1389" y="1276" on="0"/>
        <pt x="1153" y="1440" on="0"/>
        <pt x="1017" y="1440" on="1"/>
        <pt x="310" y="1440" on="1"/>
      </contour>
      <contour>
        <pt x="238" y="144" on="1"/>
        <pt x="238" y="1512" on="1"/>
        <pt x="1017" y="1512" on="1"/>
        <pt x="1173" y="1512" on="0"/>
        <pt x="1443" y="1329" on="0"/>
        <pt x="1603" y="1013" on="0"/>
        <pt x="1603" y="643" on="0"/>
        <pt x="1443" y="327" on="0"/>
        <pt x="1173" y="144" on="0"/>
        <pt x="1017" y="144" on="1"/>
      </contour>
      <contour>
        <pt x="166" y="72" on="1"/>
        <pt x="1017" y="72" on="1"/>
        <pt x="1148" y="72" on="0"/>
        <pt x="1392" y="192" on="0"/>
        <pt x="1570" y="394" on="0"/>
        <pt x="1677" y="675" on="0"/>
        <pt x="1677" y="981" on="0"/>
        <pt x="1570" y="1261" on="0"/>
        <pt x="1392" y="1464" on="0"/>
        <pt x="1148" y="1584" on="0"/>
        <pt x="1017" y="1584" on="1"/>
        <pt x="166" y="1584" on="1"/>
      </contour>
      <contour>
        <pt x="1017" y="0" on="1"/>
        <pt x="94" y="0" on="1"/>
        <pt x="94" y="1656" on="1"/>
        <pt x="1017" y="1656" on="1"/>
        <pt x="1212" y="1656" on="0"/>
        <pt x="1550" y="1434" on="0"/>
        <pt x="1751" y="1052" on="0"/>
        <pt x="1751" y="828" on="1"/>
        <pt x="1751" y="660" on="0"/>
        <pt x="1632" y="353" on="0"/>
        <pt x="1434" y="131" on="0"/>
        <pt x="1163" y="0" on="0"/>
      </contour>
    </TTGlyph>
    <TTGlyph name="E" xMin="93" yMin="0" xMax="1363" yMax="1656">
      <contour>
        <pt x="453" y="0" on="1"/>
        <pt x="381" y="0" on="1"/>
        <pt x="381" y="1656" on="1"/>
        <pt x="453" y="1656" on="1"/>
      </contour>
      <contour>
        <pt x="309" y="0" on="1"/>
        <pt x="237" y="0" on="1"/>
        <pt x="237" y="1656" on="1"/>
        <pt x="309" y="1656" on="1"/>
      </contour>
      <contour>
        <pt x="165" y="0" on="1"/>
        <pt x="93" y="0" on="1"/>
        <pt x="93" y="1656" on="1"/>
        <pt x="165" y="1656" on="1"/>
      </contour>
      <contour>
        <pt x="597" y="360" on="1"/>
        <pt x="1363" y="360" on="1"/>
        <pt x="1363" y="288" on="1"/>
        <pt x="597" y="288" on="1"/>
        <pt x="597" y="216" on="1"/>
        <pt x="1363" y="216" on="1"/>
        <pt x="1363" y="144" on="1"/>
        <pt x="597" y="144" on="1"/>
        <pt x="597" y="72" on="1"/>
        <pt x="1363" y="72" on="1"/>
        <pt x="1363" y="0" on="1"/>
        <pt x="525" y="0" on="1"/>
        <pt x="525" y="1656" on="1"/>
        <pt x="1363" y="1656" on="1"/>
        <pt x="1363" y="1584" on="1"/>
        <pt x="597" y="1584" on="1"/>
        <pt x="597" y="1512" on="1"/>
        <pt x="1363" y="1512" on="1"/>
        <pt x="1363" y="1440" on="1"/>
        <pt x="597" y="1440" on="1"/>
        <pt x="597" y="1368" on="1"/>
        <pt x="1363" y="1368" on="1"/>
        <pt x="1363" y="1296" on="1"/>
        <pt x="597" y="1296" on="1"/>
        <pt x="597" y="1008" on="1"/>
        <pt x="990" y="1008" on="1"/>
        <pt x="990" y="936" on="1"/>
        <pt x="597" y="936" on="1"/>
        <pt x="597" y="864" on="1"/>
        <pt x="990" y="864" on="1"/>
        <pt x="990" y="792" on="1"/>
        <pt x="597" y="792" on="1"/>
        <pt x="597" y="720" on="1"/>
        <pt x="990" y="720" on="1"/>
        <pt x="990" y="648" on="1"/>
        <pt x="597" y="648" on="1"/>
      </contour>
    </TTGlyph>
    <TTGlyph name="Eacute" xMin="93" yMin="0" xMax="1395" yMax="2312">
      <component glyphName="acute" x="487" y="373" flags="0x1004"/>
      <component glyphName="E" x="0" y="0" flags="0x1204"/>
    </TTGlyph>
    <TTGlyph name="Ebreve" xMin="93" yMin="0" xMax="1363" yMax="2078">
      <component glyphName="breve" x="358" y="226" flags="0x1004"/>
      <component glyphName="E" x="0" y="0" flags="0x1204"/>
    </TTGlyph>
    <TTGlyph name="Ecaron" xMin="93" yMin="0" xMax="1363" yMax="2318">
      <component glyphName="caron" x="357" y="290" flags="0x1004"/>
      <component glyphName="E" x="0" y="0" flags="0x1204"/>
    </TTGlyph>
    <TTGlyph name="Ecircumflex" xMin="93" yMin="0" xMax="1363" yMax="2318">
      <component glyphName="circumflex" x="342" y="286" flags="0x1004"/>
      <component glyphName="E" x="0" y="0" flags="0x1204"/>
    </TTGlyph>
    <TTGlyph name="Edieresis" xMin="93" yMin="0" xMax="1363" yMax="2054">
      <component glyphName="dieresis" x="157" y="318" flags="0x1004"/>
      <component glyphName="E" x="0" y="0" flags="0x1204"/>
    </TTGlyph>
    <TTGlyph name="Edotaccent" xMin="93" yMin="0" xMax="1363" yMax="2190">
      <component glyphName="uni0307" x="462" y="1038" flags="0x1004"/>
      <component glyphName="E" x="0" y="0" flags="0x1204"/>
    </TTGlyph>
    <TTGlyph name="Egrave" xMin="60" yMin="0" xMax="1363" yMax="2312">
      <component glyphName="grave" x="1" y="373" flags="0x1004"/>
      <component glyphName="E" x="0" y="0" flags="0x1204"/>
    </TTGlyph>
    <TTGlyph name="Emacron" xMin="93" yMin="0" xMax="1363" yMax="1656">
      <component glyphName="E" x="0" y="0" flags="0x1204"/>
    </TTGlyph>
    <TTGlyph name="Eng" xMin="94" yMin="-643" xMax="1695" yMax="1656">
      <contour>
        <pt x="526" y="859" on="1"/>
        <pt x="598" y="740" on="1"/>
        <pt x="598" y="0" on="1"/>
        <pt x="526" y="0" on="1"/>
      </contour>
      <contour>
        <pt x="1142" y="962" on="1"/>
        <pt x="1142" y="824" on="1"/>
        <pt x="602" y="1656" on="1"/>
        <pt x="686" y="1656" on="1"/>
      </contour>
      <contour>
        <pt x="382" y="1095" on="1"/>
        <pt x="454" y="974" on="1"/>
        <pt x="454" y="0" on="1"/>
        <pt x="382" y="0" on="1"/>
      </contour>
      <contour>
        <pt x="1139" y="693" on="1"/>
        <pt x="1139" y="555" on="1"/>
        <pt x="433" y="1656" on="1"/>
        <pt x="518" y="1656" on="1"/>
      </contour>
      <contour>
        <pt x="238" y="1334" on="1"/>
        <pt x="310" y="1212" on="1"/>
        <pt x="310" y="0" on="1"/>
        <pt x="238" y="0" on="1"/>
      </contour>
      <contour>
        <pt x="1136" y="421" on="1"/>
        <pt x="1136" y="284" on="1"/>
        <pt x="263" y="1656" on="1"/>
        <pt x="347" y="1656" on="1"/>
      </contour>
      <contour>
        <pt x="1066" y="-211" on="1"/>
        <pt x="943" y="-211" on="1"/>
        <pt x="943" y="-139" on="1"/>
        <pt x="1066" y="-139" on="1"/>
        <pt x="1119" y="-139" on="0"/>
        <pt x="1191" y="-59" on="0"/>
        <pt x="1191" y="7" on="1"/>
        <pt x="1191" y="1656" on="1"/>
        <pt x="1263" y="1656" on="1"/>
        <pt x="1263" y="7" on="1"/>
        <pt x="1263" y="-88" on="0"/>
        <pt x="1149" y="-211" on="0"/>
      </contour>
      <contour>
        <pt x="1407" y="7" on="1"/>
        <pt x="1407" y="-143" on="0"/>
        <pt x="1208" y="-355" on="0"/>
        <pt x="1066" y="-355" on="1"/>
        <pt x="943" y="-355" on="1"/>
        <pt x="943" y="-283" on="1"/>
        <pt x="1066" y="-283" on="1"/>
        <pt x="1178" y="-283" on="0"/>
        <pt x="1335" y="-113" on="0"/>
        <pt x="1335" y="7" on="1"/>
        <pt x="1335" y="1656" on="1"/>
        <pt x="1407" y="1656" on="1"/>
      </contour>
      <contour>
        <pt x="1551" y="7" on="1"/>
        <pt x="1551" y="-130" on="0"/>
        <pt x="1422" y="-363" on="0"/>
        <pt x="1198" y="-499" on="0"/>
        <pt x="1066" y="-499" on="1"/>
        <pt x="943" y="-499" on="1"/>
        <pt x="943" y="-427" on="1"/>
        <pt x="1066" y="-427" on="1"/>
        <pt x="1238" y="-427" on="0"/>
        <pt x="1479" y="-173" on="0"/>
        <pt x="1479" y="7" on="1"/>
        <pt x="1479" y="1656" on="1"/>
        <pt x="1551" y="1656" on="1"/>
      </contour>
      <contour>
        <pt x="1695" y="0" on="1"/>
        <pt x="1694" y="-131" on="0"/>
        <pt x="1593" y="-369" on="0"/>
        <pt x="1425" y="-541" on="0"/>
        <pt x="1193" y="-643" on="0"/>
        <pt x="1066" y="-643" on="1"/>
        <pt x="943" y="-643" on="1"/>
        <pt x="943" y="-571" on="1"/>
        <pt x="1066" y="-571" on="1"/>
        <pt x="1180" y="-571" on="0"/>
        <pt x="1386" y="-479" on="0"/>
        <pt x="1535" y="-324" on="0"/>
        <pt x="1623" y="-110" on="0"/>
        <pt x="1623" y="7" on="1"/>
        <pt x="1623" y="1656" on="1"/>
        <pt x="1695" y="1656" on="1"/>
      </contour>
      <contour>
        <pt x="94" y="1656" on="1"/>
        <pt x="180" y="1656" on="1"/>
        <pt x="1130" y="155" on="1"/>
        <pt x="1130" y="20" on="1"/>
        <pt x="166" y="1539" on="1"/>
        <pt x="166" y="0" on="1"/>
        <pt x="94" y="0" on="1"/>
      </contour>
    </TTGlyph>
    <TTGlyph name="Eogonek" xMin="92" yMin="-573" xMax="1362" yMax="1656">
      <component glyphName="ogonek" x="927" y="3" flags="0x1004"/>
      <component glyphName="E" x="-1" y="0" flags="0x1004"/>
    </TTGlyph>
    <TTGlyph name="Eth" xMin="55" yMin="0" xMax="1786" yMax="1656">
      <contour>
        <pt x="55" y="648" on="1"/>
        <pt x="55" y="720" on="1"/>
        <pt x="809" y="720" on="1"/>
        <pt x="809" y="648" on="1"/>
      </contour>
      <contour>
        <pt x="55" y="792" on="1"/>
        <pt x="55" y="864" on="1"/>
        <pt x="809" y="864" on="1"/>
        <pt x="809" y="792" on="1"/>
      </contour>
      <contour>
        <pt x="55" y="936" on="1"/>
        <pt x="55" y="1008" on="1"/>
        <pt x="809" y="1008" on="1"/>
        <pt x="809" y="936" on="1"/>
      </contour>
      <contour>
        <pt x="561" y="612" on="1"/>
        <pt x="633" y="612" on="1"/>
        <pt x="633" y="504" on="1"/>
        <pt x="1052" y="504" on="1"/>
        <pt x="1141" y="504" on="0"/>
        <pt x="1268" y="694" on="0"/>
        <pt x="1268" y="828" on="1"/>
        <pt x="1268" y="963" on="0"/>
        <pt x="1141" y="1152" on="0"/>
        <pt x="1052" y="1152" on="1"/>
        <pt x="633" y="1152" on="1"/>
        <pt x="633" y="1045" on="1"/>
        <pt x="561" y="1045" on="1"/>
        <pt x="561" y="1224" on="1"/>
        <pt x="1052" y="1224" on="1"/>
        <pt x="1171" y="1224" on="0"/>
        <pt x="1342" y="991" on="0"/>
        <pt x="1342" y="828" on="1"/>
        <pt x="1342" y="664" on="0"/>
        <pt x="1171" y="432" on="0"/>
        <pt x="1052" y="432" on="1"/>
        <pt x="561" y="432" on="1"/>
      </contour>
      <contour>
        <pt x="417" y="612" on="1"/>
        <pt x="489" y="612" on="1"/>
        <pt x="489" y="360" on="1"/>
        <pt x="1052" y="360" on="1"/>
        <pt x="1201" y="360" on="0"/>
        <pt x="1416" y="635" on="0"/>
        <pt x="1416" y="828" on="1"/>
        <pt x="1416" y="955" on="0"/>
        <pt x="1317" y="1171" on="0"/>
        <pt x="1150" y="1296" on="0"/>
        <pt x="1052" y="1296" on="1"/>
        <pt x="489" y="1296" on="1"/>
        <pt x="489" y="1045" on="1"/>
        <pt x="417" y="1045" on="1"/>
        <pt x="417" y="1368" on="1"/>
        <pt x="1052" y="1368" on="1"/>
        <pt x="1169" y="1368" on="0"/>
        <pt x="1371" y="1224" on="0"/>
        <pt x="1490" y="975" on="0"/>
        <pt x="1490" y="828" on="1"/>
        <pt x="1490" y="682" on="0"/>
        <pt x="1371" y="432" on="0"/>
        <pt x="1169" y="288" on="0"/>
        <pt x="1052" y="288" on="1"/>
        <pt x="417" y="288" on="1"/>
      </contour>
      <contour>
        <pt x="273" y="612" on="1"/>
        <pt x="345" y="612" on="1"/>
        <pt x="345" y="216" on="1"/>
        <pt x="1052" y="216" on="1"/>
        <pt x="1189" y="216" on="0"/>
        <pt x="1424" y="380" on="0"/>
        <pt x="1564" y="662" on="0"/>
        <pt x="1564" y="828" on="1"/>
        <pt x="1564" y="993" on="0"/>
        <pt x="1424" y="1276" on="0"/>
        <pt x="1188" y="1440" on="0"/>
        <pt x="1052" y="1440" on="1"/>
        <pt x="345" y="1440" on="1"/>
        <pt x="345" y="1045" on="1"/>
        <pt x="273" y="1045" on="1"/>
        <pt x="273" y="1512" on="1"/>
        <pt x="1052" y="1512" on="1"/>
        <pt x="1208" y="1512" on="0"/>
        <pt x="1478" y="1329" on="0"/>
        <pt x="1638" y="1013" on="0"/>
        <pt x="1638" y="643" on="0"/>
        <pt x="1478" y="327" on="0"/>
        <pt x="1208" y="144" on="0"/>
        <pt x="1052" y="144" on="1"/>
        <pt x="273" y="144" on="1"/>
      </contour>
      <contour>
        <pt x="129" y="612" on="1"/>
        <pt x="201" y="612" on="1"/>
        <pt x="201" y="72" on="1"/>
        <pt x="1052" y="72" on="1"/>
        <pt x="1183" y="72" on="0"/>
        <pt x="1427" y="192" on="0"/>
        <pt x="1605" y="394" on="0"/>
        <pt x="1712" y="675" on="0"/>
        <pt x="1712" y="981" on="0"/>
        <pt x="1605" y="1261" on="0"/>
        <pt x="1427" y="1464" on="0"/>
        <pt x="1183" y="1584" on="0"/>
        <pt x="1052" y="1584" on="1"/>
        <pt x="201" y="1584" on="1"/>
        <pt x="201" y="1045" on="1"/>
        <pt x="129" y="1045" on="1"/>
        <pt x="129" y="1656" on="1"/>
        <pt x="1052" y="1656" on="1"/>
        <pt x="1247" y="1656" on="0"/>
        <pt x="1585" y="1434" on="0"/>
        <pt x="1786" y="1052" on="0"/>
        <pt x="1786" y="828" on="1"/>
        <pt x="1786" y="660" on="0"/>
        <pt x="1667" y="353" on="0"/>
        <pt x="1469" y="131" on="0"/>
        <pt x="1198" y="0" on="0"/>
        <pt x="1052" y="0" on="1"/>
        <pt x="129" y="0" on="1"/>
      </contour>
    </TTGlyph>
    <TTGlyph name="Euro" xMin="52" yMin="-72" xMax="1551" yMax="1728">
      <contour>
        <pt x="1397" y="481" on="1"/>
        <pt x="1419" y="418" on="1"/>
        <pt x="1284" y="360" on="0"/>
        <pt x="1097" y="360" on="1"/>
        <pt x="971" y="360" on="0"/>
        <pt x="756" y="485" on="0"/>
        <pt x="629" y="701" on="0"/>
        <pt x="629" y="955" on="0"/>
        <pt x="756" y="1171" on="0"/>
        <pt x="971" y="1296" on="0"/>
        <pt x="1097" y="1296" on="1"/>
        <pt x="1285" y="1296" on="0"/>
        <pt x="1419" y="1240" on="1"/>
        <pt x="1397" y="1174" on="1"/>
        <pt x="1289" y="1224" on="0"/>
        <pt x="1097" y="1224" on="1"/>
        <pt x="932" y="1224" on="0"/>
        <pt x="701" y="992" on="0"/>
        <pt x="701" y="664" on="0"/>
        <pt x="932" y="432" on="0"/>
        <pt x="1097" y="432" on="1"/>
        <pt x="1288" y="432" on="0"/>
      </contour>
      <contour>
        <pt x="1441" y="350" on="1"/>
        <pt x="1463" y="283" on="1"/>
        <pt x="1299" y="216" on="0"/>
        <pt x="1097" y="216" on="1"/>
        <pt x="972" y="216" on="0"/>
        <pt x="745" y="313" on="0"/>
        <pt x="582" y="477" on="0"/>
        <pt x="485" y="703" on="0"/>
        <pt x="485" y="953" on="0"/>
        <pt x="582" y="1179" on="0"/>
        <pt x="745" y="1343" on="0"/>
        <pt x="972" y="1440" on="0"/>
        <pt x="1097" y="1440" on="1"/>
        <pt x="1299" y="1440" on="0"/>
        <pt x="1463" y="1373" on="1"/>
        <pt x="1441" y="1306" on="1"/>
        <pt x="1292" y="1368" on="0"/>
        <pt x="1097" y="1368" on="1"/>
        <pt x="950" y="1368" on="0"/>
        <pt x="701" y="1223" on="0"/>
        <pt x="557" y="975" on="0"/>
        <pt x="557" y="681" on="0"/>
        <pt x="701" y="433" on="0"/>
        <pt x="950" y="288" on="0"/>
        <pt x="1097" y="288" on="1"/>
        <pt x="1292" y="288" on="0"/>
      </contour>
      <contour>
        <pt x="1485" y="215" on="1"/>
        <pt x="1507" y="147" on="1"/>
        <pt x="1321" y="72" on="0"/>
        <pt x="1097" y="72" on="1"/>
        <pt x="943" y="72" on="0"/>
        <pt x="663" y="192" on="0"/>
        <pt x="461" y="394" on="0"/>
        <pt x="341" y="674" on="0"/>
        <pt x="341" y="982" on="0"/>
        <pt x="461" y="1262" on="0"/>
        <pt x="663" y="1464" on="0"/>
        <pt x="943" y="1584" on="0"/>
        <pt x="1097" y="1584" on="1"/>
        <pt x="1325" y="1584" on="0"/>
        <pt x="1508" y="1510" on="1"/>
        <pt x="1485" y="1441" on="1"/>
        <pt x="1310" y="1512" on="0"/>
        <pt x="1097" y="1512" on="1"/>
        <pt x="913" y="1512" on="0"/>
        <pt x="598" y="1329" on="0"/>
        <pt x="413" y="1014" on="0"/>
        <pt x="413" y="642" on="0"/>
        <pt x="598" y="327" on="0"/>
        <pt x="913" y="144" on="0"/>
        <pt x="1097" y="144" on="1"/>
        <pt x="1314" y="144" on="0"/>
      </contour>
      <contour>
        <pt x="1530" y="79" on="1"/>
        <pt x="1551" y="10" on="1"/>
        <pt x="1340" y="-72" on="0"/>
        <pt x="1097" y="-72" on="1"/>
        <pt x="914" y="-72" on="0"/>
        <pt x="581" y="71" on="0"/>
        <pt x="340" y="312" on="0"/>
        <pt x="197" y="645" on="0"/>
        <pt x="197" y="1011" on="0"/>
        <pt x="340" y="1344" on="0"/>
        <pt x="581" y="1585" on="0"/>
        <pt x="914" y="1728" on="0"/>
        <pt x="1097" y="1728" on="1"/>
        <pt x="1340" y="1728" on="0"/>
        <pt x="1551" y="1646" on="1"/>
        <pt x="1529" y="1577" on="1"/>
        <pt x="1328" y="1656" on="0"/>
        <pt x="1097" y="1656" on="1"/>
        <pt x="930" y="1656" on="0"/>
        <pt x="624" y="1525" on="0"/>
        <pt x="401" y="1303" on="0"/>
        <pt x="269" y="996" on="0"/>
        <pt x="269" y="660" on="0"/>
        <pt x="401" y="353" on="0"/>
        <pt x="624" y="131" on="0"/>
        <pt x="930" y="0" on="0"/>
        <pt x="1097" y="0" on="1"/>
        <pt x="1329" y="0" on="0"/>
      </contour>
      <contour>
        <pt x="52" y="902" on="1"/>
        <pt x="52" y="974" on="1"/>
        <pt x="177" y="974" on="1"/>
        <pt x="167" y="902" on="1"/>
      </contour>
      <contour>
        <pt x="52" y="686" on="1"/>
        <pt x="52" y="758" on="1"/>
        <pt x="167" y="758" on="1"/>
        <pt x="177" y="686" on="1"/>
      </contour>
      <contour>
        <pt x="743" y="902" on="1"/>
        <pt x="763" y="974" on="1"/>
        <pt x="1204" y="974" on="1"/>
        <pt x="1204" y="902" on="1"/>
      </contour>
      <contour>
        <pt x="763" y="686" on="1"/>
        <pt x="743" y="758" on="1"/>
        <pt x="1204" y="758" on="1"/>
        <pt x="1204" y="686" on="1"/>
      </contour>
    </TTGlyph>
    <TTGlyph name="F" xMin="93" yMin="0" xMax="1322" yMax="1656">
      <contour>
        <pt x="597" y="0" on="1"/>
        <pt x="525" y="0" on="1"/>
        <pt x="525" y="1656" on="1"/>
        <pt x="1322" y="1656" on="1"/>
        <pt x="1322" y="1584" on="1"/>
        <pt x="597" y="1584" on="1"/>
        <pt x="597" y="1512" on="1"/>
        <pt x="1322" y="1512" on="1"/>
        <pt x="1322" y="1440" on="1"/>
        <pt x="597" y="1440" on="1"/>
        <pt x="597" y="1368" on="1"/>
        <pt x="1322" y="1368" on="1"/>
        <pt x="1322" y="1296" on="1"/>
        <pt x="597" y="1296" on="1"/>
        <pt x="597" y="936" on="1"/>
        <pt x="1288" y="936" on="1"/>
        <pt x="1288" y="864" on="1"/>
        <pt x="597" y="864" on="1"/>
        <pt x="597" y="792" on="1"/>
        <pt x="1288" y="792" on="1"/>
        <pt x="1288" y="720" on="1"/>
        <pt x="597" y="720" on="1"/>
        <pt x="597" y="648" on="1"/>
        <pt x="1288" y="648" on="1"/>
        <pt x="1288" y="576" on="1"/>
        <pt x="597" y="576" on="1"/>
      </contour>
      <contour>
        <pt x="453" y="0" on="1"/>
        <pt x="381" y="0" on="1"/>
        <pt x="381" y="1656" on="1"/>
        <pt x="453" y="1656" on="1"/>
      </contour>
      <contour>
        <pt x="309" y="0" on="1"/>
        <pt x="237" y="0" on="1"/>
        <pt x="237" y="1656" on="1"/>
        <pt x="309" y="1656" on="1"/>
      </contour>
      <contour>
        <pt x="165" y="0" on="1"/>
        <pt x="93" y="0" on="1"/>
        <pt x="93" y="1656" on="1"/>
        <pt x="165" y="1656" on="1"/>
      </contour>
    </TTGlyph>
    <TTGlyph name="G" xMin="56" yMin="-72" xMax="1776" yMax="1728">
      <contour>
        <pt x="1416" y="865" on="1"/>
        <pt x="1488" y="865" on="1"/>
        <pt x="1488" y="0" on="1"/>
        <pt x="1416" y="0" on="1"/>
      </contour>
      <contour>
        <pt x="1704" y="865" on="1"/>
        <pt x="1776" y="865" on="1"/>
        <pt x="1776" y="0" on="1"/>
        <pt x="1704" y="0" on="1"/>
      </contour>
      <contour>
        <pt x="1560" y="865" on="1"/>
        <pt x="1632" y="865" on="1"/>
        <pt x="1632" y="0" on="1"/>
        <pt x="1560" y="0" on="1"/>
      </contour>
      <contour>
        <pt x="1344" y="865" on="1"/>
        <pt x="1344" y="0" on="1"/>
        <pt x="1154" y="-72" on="0"/>
        <pt x="950" y="-72" on="1"/>
        <pt x="773" y="-72" on="0"/>
        <pt x="449" y="58" on="0"/>
        <pt x="203" y="289" on="0"/>
        <pt x="56" y="630" on="0"/>
        <pt x="56" y="828" on="1"/>
        <pt x="56" y="1011" on="0"/>
        <pt x="199" y="1344" on="0"/>
        <pt x="440" y="1585" on="0"/>
        <pt x="773" y="1728" on="0"/>
        <pt x="956" y="1728" on="1"/>
        <pt x="1184" y="1728" on="0"/>
        <pt x="1576" y="1516" on="0"/>
        <pt x="1700" y="1334" on="1"/>
        <pt x="1640" y="1295" on="1"/>
        <pt x="1526" y="1462" on="0"/>
        <pt x="1165" y="1656" on="0"/>
        <pt x="956" y="1656" on="1"/>
        <pt x="788" y="1656" on="0"/>
        <pt x="481" y="1525" on="0"/>
        <pt x="259" y="1303" on="0"/>
        <pt x="128" y="996" on="0"/>
        <pt x="128" y="828" on="1"/>
        <pt x="128" y="647" on="0"/>
        <pt x="263" y="333" on="0"/>
        <pt x="488" y="121" on="0"/>
        <pt x="786" y="0" on="0"/>
        <pt x="947" y="0" on="1"/>
        <pt x="1116" y="0" on="0"/>
        <pt x="1272" y="53" on="1"/>
        <pt x="1272" y="122" on="1"/>
        <pt x="1123" y="72" on="0"/>
        <pt x="959" y="72" on="1"/>
        <pt x="840" y="72" on="0"/>
        <pt x="615" y="139" on="0"/>
        <pt x="424" y="270" on="0"/>
        <pt x="281" y="451" on="0"/>
        <pt x="200" y="692" on="0"/>
        <pt x="200" y="828" on="1"/>
        <pt x="200" y="1033" on="0"/>
        <pt x="403" y="1381" on="0"/>
        <pt x="751" y="1584" on="0"/>
        <pt x="956" y="1584" on="1"/>
        <pt x="1148" y="1584" on="0"/>
        <pt x="1478" y="1405" on="0"/>
        <pt x="1582" y="1252" on="1"/>
        <pt x="1522" y="1213" on="1"/>
        <pt x="1428" y="1351" on="0"/>
        <pt x="1129" y="1512" on="0"/>
        <pt x="956" y="1512" on="1"/>
        <pt x="817" y="1512" on="0"/>
        <pt x="563" y="1404" on="0"/>
        <pt x="380" y="1221" on="0"/>
        <pt x="272" y="967" on="0"/>
        <pt x="272" y="828" on="1"/>
        <pt x="272" y="703" on="0"/>
        <pt x="345" y="484" on="0"/>
        <pt x="474" y="321" on="0"/>
        <pt x="646" y="204" on="0"/>
        <pt x="849" y="144" on="0"/>
        <pt x="956" y="144" on="1"/>
        <pt x="1122" y="144" on="0"/>
        <pt x="1272" y="200" on="1"/>
        <pt x="1272" y="272" on="1"/>
        <pt x="1124" y="215" on="0"/>
        <pt x="963" y="215" on="1"/>
        <pt x="841" y="215" on="0"/>
        <pt x="619" y="298" on="0"/>
        <pt x="446" y="450" on="0"/>
        <pt x="344" y="686" on="0"/>
        <pt x="344" y="828" on="1"/>
        <pt x="344" y="994" on="0"/>
        <pt x="508" y="1276" on="0"/>
        <pt x="790" y="1440" on="0"/>
        <pt x="956" y="1440" on="1"/>
        <pt x="1111" y="1440" on="0"/>
        <pt x="1378" y="1296" on="0"/>
        <pt x="1462" y="1172" on="1"/>
        <pt x="1402" y="1133" on="1"/>
        <pt x="1328" y="1241" on="0"/>
        <pt x="1093" y="1368" on="0"/>
        <pt x="956" y="1368" on="1"/>
        <pt x="809" y="1368" on="0"/>
        <pt x="561" y="1223" on="0"/>
        <pt x="416" y="975" on="0"/>
        <pt x="416" y="828" on="1"/>
        <pt x="416" y="726" on="0"/>
        <pt x="474" y="550" on="0"/>
        <pt x="576" y="422" on="0"/>
        <pt x="713" y="332" on="0"/>
        <pt x="871" y="287" on="0"/>
        <pt x="956" y="287" on="1"/>
        <pt x="1125" y="287" on="0"/>
        <pt x="1272" y="354" on="1"/>
        <pt x="1272" y="423" on="1"/>
        <pt x="1130" y="360" on="0"/>
        <pt x="965" y="360" on="1"/>
        <pt x="870" y="360" on="0"/>
        <pt x="702" y="418" on="0"/>
        <pt x="567" y="530" on="0"/>
        <pt x="488" y="713" on="0"/>
        <pt x="488" y="828" on="1"/>
        <pt x="488" y="923" on="0"/>
        <pt x="562" y="1096" on="0"/>
        <pt x="688" y="1222" on="0"/>
        <pt x="861" y="1296" on="0"/>
        <pt x="956" y="1296" on="1"/>
        <pt x="1075" y="1296" on="0"/>
        <pt x="1279" y="1185" on="0"/>
        <pt x="1343" y="1090" on="1"/>
        <pt x="1284" y="1051" on="1"/>
        <pt x="1230" y="1131" on="0"/>
        <pt x="1057" y="1224" on="0"/>
        <pt x="956" y="1224" on="1"/>
        <pt x="792" y="1224" on="0"/>
        <pt x="560" y="992" on="0"/>
        <pt x="560" y="828" on="1"/>
        <pt x="560" y="727" on="0"/>
        <pt x="626" y="572" on="0"/>
        <pt x="741" y="479" on="0"/>
        <pt x="882" y="432" on="0"/>
        <pt x="963" y="432" on="1"/>
        <pt x="1129" y="432" on="0"/>
        <pt x="1272" y="501" on="1"/>
        <pt x="1272" y="865" on="1"/>
      </contour>
    </TTGlyph>
    <TTGlyph name="Gbreve" xMin="56" yMin="-72" xMax="1776" yMax="2078">
      <component glyphName="breve" x="586" y="226" flags="0x1004"/>
      <component glyphName="G" x="0" y="0" flags="0x1204"/>
    </TTGlyph>
    <TTGlyph name="Gcommaaccent" xMin="56" yMin="-822" xMax="1776" yMax="1728">
      <component glyphName="uni0326" x="672" y="-29" flags="0x1004"/>
      <component glyphName="G" x="0" y="0" flags="0x1204"/>
    </TTGlyph>
    <TTGlyph name="Gdotaccent" xMin="56" yMin="-72" xMax="1776" yMax="2190">
      <component glyphName="dotaccent" x="694" y="534" flags="0x1004"/>
      <component glyphName="G" x="0" y="0" flags="0x1204"/>
    </TTGlyph>
    <TTGlyph name="H" xMin="93" yMin="0" xMax="1749" yMax="1656">
      <contour>
        <pt x="1677" y="1656" on="1"/>
        <pt x="1749" y="1656" on="1"/>
        <pt x="1749" y="0" on="1"/>
        <pt x="1677" y="0" on="1"/>
      </contour>
      <contour>
        <pt x="93" y="1656" on="1"/>
        <pt x="165" y="1656" on="1"/>
        <pt x="165" y="0" on="1"/>
        <pt x="93" y="0" on="1"/>
      </contour>
      <contour>
        <pt x="1533" y="1656" on="1"/>
        <pt x="1605" y="1656" on="1"/>
        <pt x="1605" y="0" on="1"/>
        <pt x="1533" y="0" on="1"/>
      </contour>
      <contour>
        <pt x="1389" y="1656" on="1"/>
        <pt x="1461" y="1656" on="1"/>
        <pt x="1461" y="0" on="1"/>
        <pt x="1389" y="0" on="1"/>
      </contour>
      <contour>
        <pt x="1245" y="1656" on="1"/>
        <pt x="1317" y="1656" on="1"/>
        <pt x="1317" y="0" on="1"/>
        <pt x="1245" y="0" on="1"/>
        <pt x="1245" y="649" on="1"/>
        <pt x="597" y="649" on="1"/>
        <pt x="597" y="0" on="1"/>
        <pt x="525" y="0" on="1"/>
        <pt x="525" y="1656" on="1"/>
        <pt x="597" y="1656" on="1"/>
        <pt x="597" y="1009" on="1"/>
        <pt x="1245" y="1009" on="1"/>
      </contour>
      <contour>
        <pt x="381" y="1656" on="1"/>
        <pt x="453" y="1656" on="1"/>
        <pt x="453" y="0" on="1"/>
        <pt x="381" y="0" on="1"/>
      </contour>
      <contour>
        <pt x="237" y="1656" on="1"/>
        <pt x="309" y="1656" on="1"/>
        <pt x="309" y="0" on="1"/>
        <pt x="237" y="0" on="1"/>
      </contour>
      <contour>
        <pt x="1245" y="721" on="1"/>
        <pt x="1245" y="793" on="1"/>
        <pt x="597" y="793" on="1"/>
        <pt x="597" y="721" on="1"/>
      </contour>
      <contour>
        <pt x="1245" y="865" on="1"/>
        <pt x="1245" y="937" on="1"/>
        <pt x="597" y="937" on="1"/>
        <pt x="597" y="865" on="1"/>
      </contour>
    </TTGlyph>
    <TTGlyph name="Hbar" xMin="-57" yMin="0" xMax="1890" yMax="1656">
      <contour>
        <pt x="1780" y="1380" on="1"/>
        <pt x="1890" y="1380" on="1"/>
        <pt x="1890" y="1452" on="1"/>
        <pt x="1780" y="1452" on="1"/>
      </contour>
      <contour>
        <pt x="1780" y="1308" on="1"/>
        <pt x="1890" y="1308" on="1"/>
        <pt x="1890" y="1236" on="1"/>
        <pt x="1780" y="1236" on="1"/>
      </contour>
      <contour>
        <pt x="-57" y="1380" on="1"/>
        <pt x="53" y="1380" on="1"/>
        <pt x="53" y="1452" on="1"/>
        <pt x="-57" y="1452" on="1"/>
      </contour>
      <contour>
        <pt x="-57" y="1308" on="1"/>
        <pt x="53" y="1308" on="1"/>
        <pt x="53" y="1236" on="1"/>
        <pt x="-57" y="1236" on="1"/>
      </contour>
      <contour>
        <pt x="638" y="1380" on="1"/>
        <pt x="1208" y="1380" on="1"/>
        <pt x="1208" y="1452" on="1"/>
        <pt x="638" y="1452" on="1"/>
      </contour>
      <contour>
        <pt x="638" y="1308" on="1"/>
        <pt x="1208" y="1308" on="1"/>
        <pt x="1208" y="1236" on="1"/>
        <pt x="638" y="1236" on="1"/>
      </contour>
      <contour>
        <pt x="1678" y="1656" on="1"/>
        <pt x="1750" y="1656" on="1"/>
        <pt x="1750" y="0" on="1"/>
        <pt x="1678" y="0" on="1"/>
      </contour>
      <contour>
        <pt x="94" y="1656" on="1"/>
        <pt x="166" y="1656" on="1"/>
        <pt x="166" y="0" on="1"/>
        <pt x="94" y="0" on="1"/>
      </contour>
      <contour>
        <pt x="1534" y="1656" on="1"/>
        <pt x="1606" y="1656" on="1"/>
        <pt x="1606" y="0" on="1"/>
        <pt x="1534" y="0" on="1"/>
      </contour>
      <contour>
        <pt x="1390" y="1656" on="1"/>
        <pt x="1462" y="1656" on="1"/>
        <pt x="1462" y="0" on="1"/>
        <pt x="1390" y="0" on="1"/>
      </contour>
      <contour>
        <pt x="1246" y="1656" on="1"/>
        <pt x="1318" y="1656" on="1"/>
        <pt x="1318" y="0" on="1"/>
        <pt x="1246" y="0" on="1"/>
        <pt x="1246" y="649" on="1"/>
        <pt x="598" y="649" on="1"/>
        <pt x="598" y="0" on="1"/>
        <pt x="526" y="0" on="1"/>
        <pt x="526" y="1656" on="1"/>
        <pt x="598" y="1656" on="1"/>
        <pt x="598" y="1009" on="1"/>
        <pt x="1246" y="1009" on="1"/>
      </contour>
      <contour>
        <pt x="382" y="1656" on="1"/>
        <pt x="454" y="1656" on="1"/>
        <pt x="454" y="0" on="1"/>
        <pt x="382" y="0" on="1"/>
      </contour>
      <contour>
        <pt x="238" y="1656" on="1"/>
        <pt x="310" y="1656" on="1"/>
        <pt x="310" y="0" on="1"/>
        <pt x="238" y="0" on="1"/>
      </contour>
      <contour>
        <pt x="1246" y="721" on="1"/>
        <pt x="1246" y="793" on="1"/>
        <pt x="598" y="793" on="1"/>
        <pt x="598" y="721" on="1"/>
      </contour>
      <contour>
        <pt x="1246" y="865" on="1"/>
        <pt x="1246" y="937" on="1"/>
        <pt x="598" y="937" on="1"/>
        <pt x="598" y="865" on="1"/>
      </contour>
    </TTGlyph>
    <TTGlyph name="Hcircumflex" xMin="93" yMin="0" xMax="1749" yMax="2318">
      <component glyphName="circumflex" x="535" y="286" flags="0x1004"/>
      <component glyphName="H" x="0" y="0" flags="0x1204"/>
    </TTGlyph>
    <TTGlyph name="I" xMin="93" yMin="0" xMax="597" yMax="1656">
      <contour>
        <pt x="525" y="1656" on="1"/>
        <pt x="597" y="1656" on="1"/>
        <pt x="597" y="0" on="1"/>
        <pt x="525" y="0" on="1"/>
      </contour>
      <contour>
        <pt x="381" y="1656" on="1"/>
        <pt x="453" y="1656" on="1"/>
        <pt x="453" y="0" on="1"/>
        <pt x="381" y="0" on="1"/>
      </contour>
      <contour>
        <pt x="237" y="1656" on="1"/>
        <pt x="309" y="1656" on="1"/>
        <pt x="309" y="0" on="1"/>
        <pt x="237" y="0" on="1"/>
      </contour>
      <contour>
        <pt x="93" y="1656" on="1"/>
        <pt x="165" y="1656" on="1"/>
        <pt x="165" y="0" on="1"/>
        <pt x="93" y="0" on="1"/>
      </contour>
    </TTGlyph>
    <TTGlyph name="IJ" xMin="92" yMin="-72" xMax="1493" yMax="1656">
      <component glyphName="J" x="694" y="0" flags="0x1004"/>
      <component glyphName="I" x="-1" y="0" flags="0x1004"/>
    </TTGlyph>
    <TTGlyph name="Iacute" xMin="93" yMin="0" xMax="1012" yMax="2312">
      <component glyphName="acute" x="104" y="373" flags="0x1004"/>
      <component glyphName="I" x="0" y="0" flags="0x1204"/>
    </TTGlyph>
    <TTGlyph name="Ibreve" xMin="43" yMin="0" xMax="647" yMax="2078">
      <component glyphName="breve" x="-25" y="226" flags="0x1004"/>
      <component glyphName="I" x="0" y="0" flags="0x1204"/>
    </TTGlyph>
    <TTGlyph name="Icircumflex" xMin="36" yMin="0" xMax="654" yMax="2318">
      <component glyphName="circumflex" x="-41" y="286" flags="0x1004"/>
      <component glyphName="I" x="0" y="0" flags="0x1204"/>
    </TTGlyph>
    <TTGlyph name="Idieresis" xMin="-143" yMin="0" xMax="831" yMax="2054">
      <component glyphName="dieresis" x="-226" y="318" flags="0x1004"/>
      <component glyphName="I" x="0" y="0" flags="0x1204"/>
    </TTGlyph>
    <TTGlyph name="Idotaccent" xMin="93" yMin="0" xMax="597" yMax="2190">
      <component glyphName="dotaccent" x="83" y="534" flags="0x1004"/>
      <component glyphName="I" x="0" y="0" flags="0x1204"/>
    </TTGlyph>
    <TTGlyph name="Igrave" xMin="-323" yMin="0" xMax="597" yMax="2312">
      <component glyphName="grave" x="-382" y="373" flags="0x1004"/>
      <component glyphName="I" x="0" y="0" flags="0x1204"/>
    </TTGlyph>
    <TTGlyph name="Imacron" xMin="93" yMin="0" xMax="597" yMax="1656">
      <component glyphName="I" x="0" y="0" flags="0x1204"/>
    </TTGlyph>
    <TTGlyph name="Iogonek" xMin="93" yMin="-573" xMax="597" yMax="1656">
      <component glyphName="ogonek" x="163" y="3" flags="0x1004"/>
      <component glyphName="I" x="0" y="0" flags="0x1204"/>
    </TTGlyph>
    <TTGlyph name="Itilde" xMin="-267" yMin="0" xMax="956" yMax="2190">
      <component glyphName="tilde" x="-340" y="678" flags="0x1004"/>
      <component glyphName="I" x="0" y="0" flags="0x1204"/>
    </TTGlyph>
    <TTGlyph name="J" xMin="47" yMin="-72" xMax="799" yMax="1656">
      <contour>
        <pt x="170" y="360" on="1"/>
        <pt x="47" y="360" on="1"/>
        <pt x="47" y="432" on="1"/>
        <pt x="170" y="432" on="1"/>
        <pt x="223" y="432" on="0"/>
        <pt x="295" y="512" on="0"/>
        <pt x="295" y="578" on="1"/>
        <pt x="295" y="1656" on="1"/>
        <pt x="367" y="1656" on="1"/>
        <pt x="367" y="578" on="1"/>
        <pt x="367" y="483" on="0"/>
        <pt x="253" y="360" on="0"/>
      </contour>
      <contour>
        <pt x="170" y="216" on="1"/>
        <pt x="47" y="216" on="1"/>
        <pt x="47" y="288" on="1"/>
        <pt x="170" y="288" on="1"/>
        <pt x="282" y="288" on="0"/>
        <pt x="439" y="458" on="0"/>
        <pt x="439" y="578" on="1"/>
        <pt x="439" y="1656" on="1"/>
        <pt x="511" y="1656" on="1"/>
        <pt x="511" y="578" on="1"/>
        <pt x="511" y="428" on="0"/>
        <pt x="312" y="216" on="0"/>
      </contour>
      <contour>
        <pt x="170" y="72" on="1"/>
        <pt x="47" y="72" on="1"/>
        <pt x="47" y="144" on="1"/>
        <pt x="170" y="144" on="1"/>
        <pt x="342" y="144" on="0"/>
        <pt x="583" y="398" on="0"/>
        <pt x="583" y="578" on="1"/>
        <pt x="583" y="1656" on="1"/>
        <pt x="655" y="1656" on="1"/>
        <pt x="655" y="578" on="1"/>
        <pt x="655" y="441" on="0"/>
        <pt x="526" y="208" on="0"/>
        <pt x="302" y="72" on="0"/>
      </contour>
      <contour>
        <pt x="170" y="-72" on="1"/>
        <pt x="47" y="-72" on="1"/>
        <pt x="47" y="0" on="1"/>
        <pt x="170" y="0" on="1"/>
        <pt x="284" y="0" on="0"/>
        <pt x="490" y="92" on="0"/>
        <pt x="639" y="247" on="0"/>
        <pt x="727" y="461" on="0"/>
        <pt x="727" y="578" on="1"/>
        <pt x="727" y="1656" on="1"/>
        <pt x="799" y="1656" on="1"/>
        <pt x="799" y="578" on="1"/>
        <pt x="799" y="446" on="0"/>
        <pt x="700" y="206" on="0"/>
        <pt x="531" y="31" on="0"/>
        <pt x="298" y="-72" on="0"/>
      </contour>
    </TTGlyph>
    <TTGlyph name="Jcircumflex" xMin="47" yMin="-72" xMax="856" yMax="2318">
      <component glyphName="circumflex" x="161" y="286" flags="0x1004"/>
      <component glyphName="J" x="0" y="0" flags="0x1204"/>
    </TTGlyph>
    <TTGlyph name="K" xMin="93" yMin="0" xMax="1626" yMax="1656">
      <contour>
        <pt x="597" y="0" on="1"/>
        <pt x="525" y="0" on="1"/>
        <pt x="525" y="1656" on="1"/>
        <pt x="597" y="1656" on="1"/>
      </contour>
      <contour>
        <pt x="453" y="0" on="1"/>
        <pt x="381" y="0" on="1"/>
        <pt x="381" y="1656" on="1"/>
        <pt x="453" y="1656" on="1"/>
      </contour>
      <contour>
        <pt x="309" y="0" on="1"/>
        <pt x="237" y="0" on="1"/>
        <pt x="237" y="1656" on="1"/>
        <pt x="309" y="1656" on="1"/>
      </contour>
      <contour>
        <pt x="165" y="0" on="1"/>
        <pt x="93" y="0" on="1"/>
        <pt x="93" y="1656" on="1"/>
        <pt x="165" y="1656" on="1"/>
      </contour>
      <contour>
        <pt x="1123" y="828" on="1"/>
        <pt x="1546" y="1656" on="1"/>
        <pt x="1626" y="1656" on="1"/>
        <pt x="1203" y="828" on="1"/>
        <pt x="1626" y="0" on="1"/>
        <pt x="1546" y="0" on="1"/>
      </contour>
      <contour>
        <pt x="962" y="828" on="1"/>
        <pt x="1385" y="1656" on="1"/>
        <pt x="1465" y="1656" on="1"/>
        <pt x="1042" y="828" on="1"/>
        <pt x="1465" y="0" on="1"/>
        <pt x="1385" y="0" on="1"/>
      </contour>
      <contour>
        <pt x="801" y="828" on="1"/>
        <pt x="1224" y="1656" on="1"/>
        <pt x="1304" y="1656" on="1"/>
        <pt x="881" y="828" on="1"/>
        <pt x="1304" y="0" on="1"/>
        <pt x="1224" y="0" on="1"/>
      </contour>
      <contour>
        <pt x="639" y="828" on="1"/>
        <pt x="1063" y="1656" on="1"/>
        <pt x="1143" y="1656" on="1"/>
        <pt x="719" y="828" on="1"/>
        <pt x="1143" y="0" on="1"/>
        <pt x="1063" y="0" on="1"/>
      </contour>
    </TTGlyph>
    <TTGlyph name="Kcommaaccent" xMin="93" yMin="-750" xMax="1626" yMax="1656">
      <component glyphName="uni0326" x="582" y="43" flags="0x1004"/>
      <component glyphName="K" x="0" y="0" flags="0x1204"/>
    </TTGlyph>
    <TTGlyph name="L" xMin="93" yMin="0" xMax="1173" yMax="1656">
      <contour>
        <pt x="93" y="1656" on="1"/>
        <pt x="165" y="1656" on="1"/>
        <pt x="165" y="0" on="1"/>
        <pt x="93" y="0" on="1"/>
      </contour>
      <contour>
        <pt x="525" y="1656" on="1"/>
        <pt x="597" y="1656" on="1"/>
        <pt x="597" y="360" on="1"/>
        <pt x="1173" y="360" on="1"/>
        <pt x="1173" y="288" on="1"/>
        <pt x="597" y="288" on="1"/>
        <pt x="597" y="216" on="1"/>
        <pt x="1173" y="216" on="1"/>
        <pt x="1173" y="144" on="1"/>
        <pt x="597" y="144" on="1"/>
        <pt x="597" y="72" on="1"/>
        <pt x="1173" y="72" on="1"/>
        <pt x="1173" y="0" on="1"/>
        <pt x="525" y="0" on="1"/>
      </contour>
      <contour>
        <pt x="381" y="1656" on="1"/>
        <pt x="453" y="1656" on="1"/>
        <pt x="453" y="0" on="1"/>
        <pt x="381" y="0" on="1"/>
      </contour>
      <contour>
        <pt x="237" y="1656" on="1"/>
        <pt x="309" y="1656" on="1"/>
        <pt x="309" y="0" on="1"/>
        <pt x="237" y="0" on="1"/>
      </contour>
    </TTGlyph>
    <TTGlyph name="Lacute" xMin="93" yMin="0" xMax="1300" yMax="2312">
      <component glyphName="acute" x="392" y="373" flags="0x1004"/>
      <component glyphName="L" x="0" y="0" flags="0x1204"/>
    </TTGlyph>
    <TTGlyph name="Lcaron" xMin="92" yMin="0" xMax="1687" yMax="1728">
      <component glyphName="comma" x="1248" y="1367" flags="0x1004"/>
      <component glyphName="L" x="-1" y="0" flags="0x1004"/>
    </TTGlyph>
    <TTGlyph name="Lcommaaccent" xMin="93" yMin="-750" xMax="1173" yMax="1656">
      <component glyphName="uni0326" x="355" y="43" flags="0x1004"/>
      <component glyphName="L" x="0" y="0" flags="0x1204"/>
    </TTGlyph>
    <TTGlyph name="Ldot" xMin="93" yMin="0" xMax="1173" yMax="1656">
      <component glyphName="periodcentered" x="631" y="-108" flags="0x1004"/>
      <component glyphName="L" x="0" y="0" flags="0x1204"/>
    </TTGlyph>
    <TTGlyph name="Lslash" xMin="-136" yMin="0" xMax="1174" yMax="1656">
      <contour>
        <pt x="-136" y="718" on="1"/>
        <pt x="44" y="780" on="1"/>
        <pt x="44" y="852" on="1"/>
        <pt x="-136" y="790" on="1"/>
      </contour>
      <contour>
        <pt x="-136" y="646" on="1"/>
        <pt x="44" y="708" on="1"/>
        <pt x="44" y="636" on="1"/>
        <pt x="-136" y="574" on="1"/>
      </contour>
      <contour>
        <pt x="-136" y="862" on="1"/>
        <pt x="44" y="924" on="1"/>
        <pt x="44" y="996" on="1"/>
        <pt x="-136" y="934" on="1"/>
      </contour>
      <contour>
        <pt x="652" y="990" on="1"/>
        <pt x="941" y="1090" on="1"/>
        <pt x="941" y="1162" on="1"/>
        <pt x="652" y="1062" on="1"/>
      </contour>
      <contour>
        <pt x="652" y="918" on="1"/>
        <pt x="941" y="1018" on="1"/>
        <pt x="941" y="946" on="1"/>
        <pt x="652" y="846" on="1"/>
      </contour>
      <contour>
        <pt x="652" y="1134" on="1"/>
        <pt x="941" y="1234" on="1"/>
        <pt x="941" y="1306" on="1"/>
        <pt x="652" y="1206" on="1"/>
      </contour>
      <contour>
        <pt x="310" y="0" on="1"/>
        <pt x="238" y="0" on="1"/>
        <pt x="238" y="1656" on="1"/>
        <pt x="310" y="1656" on="1"/>
      </contour>
      <contour>
        <pt x="598" y="360" on="1"/>
        <pt x="1174" y="360" on="1"/>
        <pt x="1174" y="288" on="1"/>
        <pt x="598" y="288" on="1"/>
        <pt x="598" y="216" on="1"/>
        <pt x="1174" y="216" on="1"/>
        <pt x="1174" y="144" on="1"/>
        <pt x="598" y="144" on="1"/>
        <pt x="598" y="72" on="1"/>
        <pt x="1174" y="72" on="1"/>
        <pt x="1174" y="0" on="1"/>
        <pt x="526" y="0" on="1"/>
        <pt x="526" y="1656" on="1"/>
        <pt x="598" y="1656" on="1"/>
      </contour>
      <contour>
        <pt x="454" y="0" on="1"/>
        <pt x="382" y="0" on="1"/>
        <pt x="382" y="1656" on="1"/>
        <pt x="454" y="1656" on="1"/>
      </contour>
      <contour>
        <pt x="94" y="1656" on="1"/>
        <pt x="166" y="1656" on="1"/>
        <pt x="166" y="0" on="1"/>
        <pt x="94" y="0" on="1"/>
      </contour>
    </TTGlyph>
    <TTGlyph name="M" xMin="93" yMin="0" xMax="1789" yMax="1656">
      <contour>
        <pt x="1285" y="604" on="1"/>
        <pt x="1357" y="740" on="1"/>
        <pt x="1357" y="0" on="1"/>
        <pt x="1285" y="0" on="1"/>
      </contour>
      <contour>
        <pt x="1429" y="880" on="1"/>
        <pt x="1501" y="1016" on="1"/>
        <pt x="1501" y="0" on="1"/>
        <pt x="1429" y="0" on="1"/>
      </contour>
      <contour>
        <pt x="1573" y="1152" on="1"/>
        <pt x="1645" y="1289" on="1"/>
        <pt x="1645" y="0" on="1"/>
        <pt x="1573" y="0" on="1"/>
      </contour>
      <contour>
        <pt x="1090" y="638" on="1"/>
        <pt x="1049" y="713" on="1"/>
        <pt x="1545" y="1656" on="1"/>
        <pt x="1626" y="1656" on="1"/>
      </contour>
      <contour>
        <pt x="1007" y="795" on="1"/>
        <pt x="965" y="871" on="1"/>
        <pt x="1381" y="1656" on="1"/>
        <pt x="1463" y="1656" on="1"/>
      </contour>
      <contour>
        <pt x="525" y="732" on="1"/>
        <pt x="597" y="596" on="1"/>
        <pt x="597" y="0" on="1"/>
        <pt x="525" y="0" on="1"/>
      </contour>
      <contour>
        <pt x="381" y="1006" on="1"/>
        <pt x="453" y="870" on="1"/>
        <pt x="453" y="0" on="1"/>
        <pt x="381" y="0" on="1"/>
      </contour>
      <contour>
        <pt x="237" y="1280" on="1"/>
        <pt x="309" y="1143" on="1"/>
        <pt x="309" y="0" on="1"/>
        <pt x="237" y="0" on="1"/>
      </contour>
      <contour>
        <pt x="819" y="432" on="1"/>
        <pt x="738" y="432" on="1"/>
        <pt x="165" y="1519" on="1"/>
        <pt x="165" y="0" on="1"/>
        <pt x="93" y="0" on="1"/>
        <pt x="93" y="1656" on="1"/>
        <pt x="174" y="1656" on="1"/>
      </contour>
      <contour>
        <pt x="982" y="432" on="1"/>
        <pt x="900" y="432" on="1"/>
        <pt x="256" y="1656" on="1"/>
        <pt x="338" y="1656" on="1"/>
      </contour>
      <contour>
        <pt x="1717" y="1519" on="1"/>
        <pt x="1144" y="432" on="1"/>
        <pt x="1062" y="432" on="1"/>
        <pt x="419" y="1656" on="1"/>
        <pt x="500" y="1656" on="1"/>
        <pt x="1104" y="508" on="1"/>
        <pt x="1707" y="1656" on="1"/>
        <pt x="1789" y="1656" on="1"/>
        <pt x="1789" y="0" on="1"/>
        <pt x="1717" y="0" on="1"/>
      </contour>
    </TTGlyph>
    <TTGlyph name="N" xMin="93" yMin="0" xMax="1701" yMax="1656">
      <contour>
        <pt x="1269" y="797" on="1"/>
        <pt x="1197" y="916" on="1"/>
        <pt x="1197" y="1656" on="1"/>
        <pt x="1269" y="1656" on="1"/>
      </contour>
      <contour>
        <pt x="1413" y="561" on="1"/>
        <pt x="1341" y="682" on="1"/>
        <pt x="1341" y="1656" on="1"/>
        <pt x="1413" y="1656" on="1"/>
      </contour>
      <contour>
        <pt x="1557" y="322" on="1"/>
        <pt x="1485" y="444" on="1"/>
        <pt x="1485" y="1656" on="1"/>
        <pt x="1557" y="1656" on="1"/>
      </contour>
      <contour>
        <pt x="525" y="859" on="1"/>
        <pt x="597" y="740" on="1"/>
        <pt x="597" y="0" on="1"/>
        <pt x="525" y="0" on="1"/>
      </contour>
      <contour>
        <pt x="381" y="1095" on="1"/>
        <pt x="453" y="974" on="1"/>
        <pt x="453" y="0" on="1"/>
        <pt x="381" y="0" on="1"/>
      </contour>
      <contour>
        <pt x="237" y="1334" on="1"/>
        <pt x="309" y="1212" on="1"/>
        <pt x="309" y="0" on="1"/>
        <pt x="237" y="0" on="1"/>
      </contour>
      <contour>
        <pt x="262" y="1656" on="1"/>
        <pt x="346" y="1656" on="1"/>
        <pt x="1364" y="0" on="1"/>
        <pt x="1280" y="0" on="1"/>
      </contour>
      <contour>
        <pt x="432" y="1656" on="1"/>
        <pt x="517" y="1656" on="1"/>
        <pt x="1534" y="0" on="1"/>
        <pt x="1448" y="0" on="1"/>
      </contour>
      <contour>
        <pt x="601" y="1656" on="1"/>
        <pt x="685" y="1656" on="1"/>
        <pt x="1629" y="117" on="1"/>
        <pt x="1629" y="1656" on="1"/>
        <pt x="1701" y="1656" on="1"/>
        <pt x="1701" y="0" on="1"/>
        <pt x="1701" y="0" on="0"/>
        <pt x="1616" y="0" on="1"/>
      </contour>
      <contour>
        <pt x="165" y="1539" on="1"/>
        <pt x="165" y="0" on="1"/>
        <pt x="93" y="0" on="1"/>
        <pt x="93" y="1656" on="1"/>
        <pt x="93" y="1656" on="0"/>
        <pt x="179" y="1656" on="1"/>
        <pt x="1194" y="0" on="1"/>
        <pt x="1111" y="0" on="1"/>
      </contour>
    </TTGlyph>
    <TTGlyph name="Nacute" xMin="93" yMin="0" xMax="1701" yMax="2312">
      <component glyphName="acute" x="656" y="373" flags="0x1004"/>
      <component glyphName="N" x="0" y="0" flags="0x1204"/>
    </TTGlyph>
    <TTGlyph name="Ncaron" xMin="93" yMin="0" xMax="1701" yMax="2318">
      <component glyphName="caron" x="526" y="290" flags="0x1004"/>
      <component glyphName="N" x="0" y="0" flags="0x1204"/>
    </TTGlyph>
    <TTGlyph name="Ncommaaccent" xMin="93" yMin="-750" xMax="1701" yMax="1656">
      <component glyphName="uni0326" x="619" y="43" flags="0x1004"/>
      <component glyphName="N" x="0" y="0" flags="0x1204"/>
    </TTGlyph>
    <TTGlyph name="Ntilde" xMin="93" yMin="0" xMax="1701" yMax="2190">
      <component glyphName="tilde" x="212" y="678" flags="0x1004"/>
      <component glyphName="N" x="0" y="0" flags="0x1204"/>
    </TTGlyph>
    <TTGlyph name="O" xMin="56" yMin="-72" xMax="1856" yMax="1728">
      <contour>
        <pt x="560" y="992" on="0"/>
        <pt x="560" y="664" on="0"/>
        <pt x="792" y="432" on="0"/>
        <pt x="1120" y="432" on="0"/>
        <pt x="1352" y="664" on="0"/>
        <pt x="1352" y="992" on="0"/>
        <pt x="1120" y="1224" on="0"/>
        <pt x="792" y="1224" on="0"/>
      </contour>
      <contour>
        <pt x="488" y="733" on="0"/>
        <pt x="488" y="923" on="0"/>
        <pt x="562" y="1096" on="0"/>
        <pt x="688" y="1222" on="0"/>
        <pt x="861" y="1296" on="0"/>
        <pt x="1051" y="1296" on="0"/>
        <pt x="1224" y="1222" on="0"/>
        <pt x="1350" y="1096" on="0"/>
        <pt x="1424" y="923" on="0"/>
        <pt x="1424" y="733" on="0"/>
        <pt x="1350" y="560" on="0"/>
        <pt x="1224" y="434" on="0"/>
        <pt x="1051" y="360" on="0"/>
        <pt x="861" y="360" on="0"/>
        <pt x="688" y="434" on="0"/>
        <pt x="562" y="560" on="0"/>
      </contour>
      <contour>
        <pt x="416" y="975" on="0"/>
        <pt x="416" y="681" on="0"/>
        <pt x="561" y="433" on="0"/>
        <pt x="809" y="288" on="0"/>
        <pt x="1103" y="288" on="0"/>
        <pt x="1351" y="433" on="0"/>
        <pt x="1496" y="681" on="0"/>
        <pt x="1496" y="975" on="0"/>
        <pt x="1351" y="1223" on="0"/>
        <pt x="1103" y="1368" on="0"/>
        <pt x="809" y="1368" on="0"/>
        <pt x="561" y="1223" on="0"/>
      </contour>
      <contour>
        <pt x="344" y="662" on="0"/>
        <pt x="344" y="994" on="0"/>
        <pt x="508" y="1276" on="0"/>
        <pt x="790" y="1440" on="0"/>
        <pt x="1122" y="1440" on="0"/>
        <pt x="1404" y="1276" on="0"/>
        <pt x="1568" y="994" on="0"/>
        <pt x="1568" y="662" on="0"/>
        <pt x="1404" y="380" on="0"/>
        <pt x="1122" y="216" on="0"/>
        <pt x="790" y="216" on="0"/>
        <pt x="508" y="380" on="0"/>
      </contour>
      <contour>
        <pt x="272" y="967" on="0"/>
        <pt x="272" y="689" on="0"/>
        <pt x="380" y="435" on="0"/>
        <pt x="563" y="252" on="0"/>
        <pt x="817" y="144" on="0"/>
        <pt x="1095" y="144" on="0"/>
        <pt x="1349" y="252" on="0"/>
        <pt x="1532" y="435" on="0"/>
        <pt x="1640" y="689" on="0"/>
        <pt x="1640" y="967" on="0"/>
        <pt x="1532" y="1221" on="0"/>
        <pt x="1349" y="1404" on="0"/>
        <pt x="1095" y="1512" on="0"/>
        <pt x="817" y="1512" on="0"/>
        <pt x="563" y="1404" on="0"/>
        <pt x="380" y="1221" on="0"/>
      </contour>
      <contour>
        <pt x="200" y="623" on="0"/>
        <pt x="200" y="1033" on="0"/>
        <pt x="403" y="1381" on="0"/>
        <pt x="751" y="1584" on="0"/>
        <pt x="1161" y="1584" on="0"/>
        <pt x="1509" y="1381" on="0"/>
        <pt x="1712" y="1033" on="0"/>
        <pt x="1712" y="623" on="0"/>
        <pt x="1509" y="275" on="0"/>
        <pt x="1161" y="72" on="0"/>
        <pt x="751" y="72" on="0"/>
        <pt x="403" y="275" on="0"/>
      </contour>
      <contour>
        <pt x="128" y="996" on="0"/>
        <pt x="128" y="660" on="0"/>
        <pt x="259" y="353" on="0"/>
        <pt x="481" y="131" on="0"/>
        <pt x="788" y="0" on="0"/>
        <pt x="1124" y="0" on="0"/>
        <pt x="1431" y="131" on="0"/>
        <pt x="1653" y="353" on="0"/>
        <pt x="1784" y="660" on="0"/>
        <pt x="1784" y="996" on="0"/>
        <pt x="1653" y="1303" on="0"/>
        <pt x="1431" y="1525" on="0"/>
        <pt x="1124" y="1656" on="0"/>
        <pt x="788" y="1656" on="0"/>
        <pt x="481" y="1525" on="0"/>
        <pt x="259" y="1303" on="0"/>
      </contour>
      <contour>
        <pt x="56" y="645" on="0"/>
        <pt x="56" y="1011" on="0"/>
        <pt x="199" y="1344" on="0"/>
        <pt x="440" y="1585" on="0"/>
        <pt x="773" y="1728" on="0"/>
        <pt x="1139" y="1728" on="0"/>
        <pt x="1472" y="1585" on="0"/>
        <pt x="1713" y="1344" on="0"/>
        <pt x="1856" y="1011" on="0"/>
        <pt x="1856" y="645" on="0"/>
        <pt x="1713" y="312" on="0"/>
        <pt x="1472" y="71" on="0"/>
        <pt x="1139" y="-72" on="0"/>
        <pt x="773" y="-72" on="0"/>
        <pt x="440" y="71" on="0"/>
        <pt x="199" y="312" on="0"/>
      </contour>
    </TTGlyph>
    <TTGlyph name="OE" xMin="55" yMin="-72" xMax="2621" yMax="1728">
      <contour>
        <pt x="1639" y="0" on="1"/>
        <pt x="1711" y="0" on="1"/>
        <pt x="1711" y="1656" on="1"/>
        <pt x="1639" y="1656" on="1"/>
      </contour>
      <contour>
        <pt x="1495" y="0" on="1"/>
        <pt x="1495" y="1656" on="1"/>
        <pt x="1567" y="1656" on="1"/>
        <pt x="1567" y="0" on="1"/>
      </contour>
      <contour>
        <pt x="1456" y="629" on="1"/>
        <pt x="1456" y="479" on="1"/>
        <pt x="1375" y="360" on="0"/>
        <pt x="1104" y="216" on="0"/>
        <pt x="954" y="216" on="1"/>
        <pt x="788" y="216" on="0"/>
        <pt x="506" y="380" on="0"/>
        <pt x="342" y="662" on="0"/>
        <pt x="342" y="994" on="0"/>
        <pt x="506" y="1276" on="0"/>
        <pt x="788" y="1440" on="0"/>
        <pt x="954" y="1440" on="1"/>
        <pt x="1108" y="1440" on="0"/>
        <pt x="1372" y="1296" on="0"/>
        <pt x="1456" y="1173" on="1"/>
        <pt x="1456" y="1022" on="1"/>
        <pt x="1397" y="1177" on="0"/>
        <pt x="1125" y="1368" on="0"/>
        <pt x="955" y="1368" on="1"/>
        <pt x="808" y="1368" on="0"/>
        <pt x="560" y="1223" on="0"/>
        <pt x="415" y="975" on="0"/>
        <pt x="415" y="681" on="0"/>
        <pt x="560" y="433" on="0"/>
        <pt x="808" y="288" on="0"/>
        <pt x="955" y="288" on="1"/>
        <pt x="1123" y="288" on="0"/>
        <pt x="1396" y="476" on="0"/>
      </contour>
      <contour>
        <pt x="1456" y="172" on="1"/>
        <pt x="1456" y="83" on="1"/>
        <pt x="1228" y="-72" on="0"/>
        <pt x="955" y="-72" on="1"/>
        <pt x="772" y="-72" on="0"/>
        <pt x="439" y="71" on="0"/>
        <pt x="198" y="312" on="0"/>
        <pt x="55" y="645" on="0"/>
        <pt x="55" y="1011" on="0"/>
        <pt x="198" y="1344" on="0"/>
        <pt x="439" y="1585" on="0"/>
        <pt x="772" y="1728" on="0"/>
        <pt x="955" y="1728" on="1"/>
        <pt x="1225" y="1728" on="0"/>
        <pt x="1456" y="1572" on="1"/>
        <pt x="1456" y="1483" on="1"/>
        <pt x="1232" y="1656" on="0"/>
        <pt x="954" y="1656" on="1"/>
        <pt x="786" y="1656" on="0"/>
        <pt x="479" y="1525" on="0"/>
        <pt x="257" y="1303" on="0"/>
        <pt x="126" y="996" on="0"/>
        <pt x="126" y="660" on="0"/>
        <pt x="257" y="353" on="0"/>
        <pt x="479" y="131" on="0"/>
        <pt x="786" y="0" on="0"/>
        <pt x="954" y="0" on="1"/>
        <pt x="1233" y="0" on="0"/>
      </contour>
      <contour>
        <pt x="1456" y="366" on="1"/>
        <pt x="1456" y="266" on="1"/>
        <pt x="1239" y="72" on="0"/>
        <pt x="955" y="72" on="1"/>
        <pt x="750" y="72" on="0"/>
        <pt x="402" y="275" on="0"/>
        <pt x="199" y="623" on="0"/>
        <pt x="199" y="1033" on="0"/>
        <pt x="402" y="1381" on="0"/>
        <pt x="750" y="1584" on="0"/>
        <pt x="955" y="1584" on="1"/>
        <pt x="1240" y="1584" on="0"/>
        <pt x="1456" y="1389" on="1"/>
        <pt x="1456" y="1290" on="1"/>
        <pt x="1360" y="1395" on="0"/>
        <pt x="1102" y="1512" on="0"/>
        <pt x="955" y="1512" on="1"/>
        <pt x="816" y="1512" on="0"/>
        <pt x="562" y="1404" on="0"/>
        <pt x="379" y="1221" on="0"/>
        <pt x="271" y="967" on="0"/>
        <pt x="271" y="689" on="0"/>
        <pt x="379" y="435" on="0"/>
        <pt x="562" y="252" on="0"/>
        <pt x="816" y="144" on="0"/>
        <pt x="955" y="144" on="1"/>
        <pt x="1099" y="144" on="0"/>
        <pt x="1359" y="261" on="0"/>
      </contour>
      <contour>
        <pt x="558" y="992" on="0"/>
        <pt x="558" y="664" on="0"/>
        <pt x="790" y="432" on="0"/>
        <pt x="1118" y="432" on="0"/>
        <pt x="1350" y="664" on="0"/>
        <pt x="1350" y="992" on="0"/>
        <pt x="1118" y="1224" on="0"/>
        <pt x="790" y="1224" on="0"/>
      </contour>
      <contour>
        <pt x="1783" y="1656" on="1"/>
        <pt x="1783" y="0" on="1"/>
        <pt x="2621" y="0" on="1"/>
        <pt x="2621" y="72" on="1"/>
        <pt x="1855" y="72" on="1"/>
        <pt x="1855" y="144" on="1"/>
        <pt x="2621" y="144" on="1"/>
        <pt x="2621" y="216" on="1"/>
        <pt x="1855" y="216" on="1"/>
        <pt x="1855" y="288" on="1"/>
        <pt x="2621" y="288" on="1"/>
        <pt x="2621" y="360" on="1"/>
        <pt x="1855" y="360" on="1"/>
        <pt x="1855" y="648" on="1"/>
        <pt x="2248" y="648" on="1"/>
        <pt x="2248" y="720" on="1"/>
        <pt x="1855" y="720" on="1"/>
        <pt x="1855" y="792" on="1"/>
        <pt x="2248" y="792" on="1"/>
        <pt x="2248" y="864" on="1"/>
        <pt x="1855" y="864" on="1"/>
        <pt x="1855" y="936" on="1"/>
        <pt x="2248" y="936" on="1"/>
        <pt x="2248" y="1008" on="1"/>
        <pt x="1855" y="1008" on="1"/>
        <pt x="1855" y="1296" on="1"/>
        <pt x="2621" y="1296" on="1"/>
        <pt x="2621" y="1368" on="1"/>
        <pt x="1855" y="1368" on="1"/>
        <pt x="1855" y="1440" on="1"/>
        <pt x="2621" y="1440" on="1"/>
        <pt x="2621" y="1512" on="1"/>
        <pt x="1855" y="1512" on="1"/>
        <pt x="1855" y="1584" on="1"/>
        <pt x="2621" y="1584" on="1"/>
        <pt x="2621" y="1656" on="1"/>
      </contour>
      <contour>
        <pt x="486" y="733" on="0"/>
        <pt x="486" y="923" on="0"/>
        <pt x="560" y="1096" on="0"/>
        <pt x="686" y="1222" on="0"/>
        <pt x="859" y="1296" on="0"/>
        <pt x="1049" y="1296" on="0"/>
        <pt x="1222" y="1222" on="0"/>
        <pt x="1348" y="1096" on="0"/>
        <pt x="1422" y="923" on="0"/>
        <pt x="1422" y="733" on="0"/>
        <pt x="1348" y="560" on="0"/>
        <pt x="1222" y="434" on="0"/>
        <pt x="1049" y="360" on="0"/>
        <pt x="859" y="360" on="0"/>
        <pt x="686" y="434" on="0"/>
        <pt x="560" y="560" on="0"/>
      </contour>
    </TTGlyph>
    <TTGlyph name="Oacute" xMin="56" yMin="-72" xMax="1856" yMax="2312">
      <component glyphName="acute" x="715" y="373" flags="0x1004"/>
      <component glyphName="O" x="0" y="0" flags="0x1204"/>
    </TTGlyph>
    <TTGlyph name="Obreve" xMin="56" yMin="-72" xMax="1856" yMax="2078">
      <component glyphName="breve" x="586" y="226" flags="0x1004"/>
      <component glyphName="O" x="0" y="0" flags="0x1204"/>
    </TTGlyph>
    <TTGlyph name="Ocircumflex" xMin="56" yMin="-72" xMax="1856" yMax="2318">
      <component glyphName="circumflex" x="570" y="286" flags="0x1004"/>
      <component glyphName="O" x="0" y="0" flags="0x1204"/>
    </TTGlyph>
    <TTGlyph name="Odieresis" xMin="56" yMin="-72" xMax="1856" yMax="2054">
      <component glyphName="dieresis" x="385" y="318" flags="0x1004"/>
      <component glyphName="O" x="0" y="0" flags="0x1204"/>
    </TTGlyph>
    <TTGlyph name="Ograve" xMin="56" yMin="-72" xMax="1856" yMax="2312">
      <component glyphName="grave" x="229" y="373" flags="0x1004"/>
      <component glyphName="O" x="0" y="0" flags="0x1204"/>
    </TTGlyph>
    <TTGlyph name="Ohungarumlaut" xMin="56" yMin="-72" xMax="1997" yMax="2312">
      <component glyphName="hungarumlaut" x="341" y="373" flags="0x1004"/>
      <component glyphName="O" x="0" y="0" flags="0x1204"/>
    </TTGlyph>
    <TTGlyph name="Omacron" xMin="56" yMin="-72" xMax="1856" yMax="1728">
      <component glyphName="O" x="0" y="0" flags="0x1204"/>
    </TTGlyph>
    <TTGlyph name="Oslash" xMin="55" yMin="-328" xMax="1855" yMax="1948">
      <contour>
        <pt x="559" y="992" on="0"/>
        <pt x="559" y="664" on="0"/>
        <pt x="791" y="432" on="0"/>
        <pt x="1119" y="432" on="0"/>
        <pt x="1351" y="664" on="0"/>
        <pt x="1351" y="992" on="0"/>
        <pt x="1119" y="1224" on="0"/>
        <pt x="791" y="1224" on="0"/>
      </contour>
      <contour>
        <pt x="487" y="733" on="0"/>
        <pt x="487" y="923" on="0"/>
        <pt x="561" y="1096" on="0"/>
        <pt x="687" y="1222" on="0"/>
        <pt x="860" y="1296" on="0"/>
        <pt x="1050" y="1296" on="0"/>
        <pt x="1223" y="1222" on="0"/>
        <pt x="1349" y="1096" on="0"/>
        <pt x="1423" y="923" on="0"/>
        <pt x="1423" y="733" on="0"/>
        <pt x="1349" y="560" on="0"/>
        <pt x="1223" y="434" on="0"/>
        <pt x="1050" y="360" on="0"/>
        <pt x="860" y="360" on="0"/>
        <pt x="687" y="434" on="0"/>
        <pt x="561" y="560" on="0"/>
      </contour>
      <contour>
        <pt x="415" y="975" on="0"/>
        <pt x="415" y="681" on="0"/>
        <pt x="560" y="433" on="0"/>
        <pt x="808" y="288" on="0"/>
        <pt x="1102" y="288" on="0"/>
        <pt x="1350" y="433" on="0"/>
        <pt x="1495" y="681" on="0"/>
        <pt x="1495" y="975" on="0"/>
        <pt x="1350" y="1223" on="0"/>
        <pt x="1102" y="1368" on="0"/>
        <pt x="808" y="1368" on="0"/>
        <pt x="560" y="1223" on="0"/>
      </contour>
      <contour>
        <pt x="343" y="662" on="0"/>
        <pt x="343" y="994" on="0"/>
        <pt x="507" y="1276" on="0"/>
        <pt x="789" y="1440" on="0"/>
        <pt x="1121" y="1440" on="0"/>
        <pt x="1403" y="1276" on="0"/>
        <pt x="1567" y="994" on="0"/>
        <pt x="1567" y="662" on="0"/>
        <pt x="1403" y="380" on="0"/>
        <pt x="1121" y="216" on="0"/>
        <pt x="789" y="216" on="0"/>
        <pt x="507" y="380" on="0"/>
      </contour>
      <contour>
        <pt x="271" y="967" on="0"/>
        <pt x="271" y="689" on="0"/>
        <pt x="379" y="435" on="0"/>
        <pt x="562" y="252" on="0"/>
        <pt x="816" y="144" on="0"/>
        <pt x="1094" y="144" on="0"/>
        <pt x="1348" y="252" on="0"/>
        <pt x="1531" y="435" on="0"/>
        <pt x="1639" y="689" on="0"/>
        <pt x="1639" y="967" on="0"/>
        <pt x="1531" y="1221" on="0"/>
        <pt x="1348" y="1404" on="0"/>
        <pt x="1094" y="1512" on="0"/>
        <pt x="816" y="1512" on="0"/>
        <pt x="562" y="1404" on="0"/>
        <pt x="379" y="1221" on="0"/>
      </contour>
      <contour>
        <pt x="199" y="623" on="0"/>
        <pt x="199" y="1033" on="0"/>
        <pt x="402" y="1381" on="0"/>
        <pt x="750" y="1584" on="0"/>
        <pt x="1160" y="1584" on="0"/>
        <pt x="1508" y="1381" on="0"/>
        <pt x="1711" y="1033" on="0"/>
        <pt x="1711" y="623" on="0"/>
        <pt x="1508" y="275" on="0"/>
        <pt x="1160" y="72" on="0"/>
        <pt x="750" y="72" on="0"/>
        <pt x="402" y="275" on="0"/>
      </contour>
      <contour>
        <pt x="127" y="996" on="0"/>
        <pt x="127" y="660" on="0"/>
        <pt x="258" y="353" on="0"/>
        <pt x="480" y="131" on="0"/>
        <pt x="787" y="0" on="0"/>
        <pt x="1123" y="0" on="0"/>
        <pt x="1430" y="131" on="0"/>
        <pt x="1652" y="353" on="0"/>
        <pt x="1783" y="660" on="0"/>
        <pt x="1783" y="996" on="0"/>
        <pt x="1652" y="1303" on="0"/>
        <pt x="1430" y="1525" on="0"/>
        <pt x="1123" y="1656" on="0"/>
        <pt x="787" y="1656" on="0"/>
        <pt x="480" y="1525" on="0"/>
        <pt x="258" y="1303" on="0"/>
      </contour>
      <contour>
        <pt x="55" y="645" on="0"/>
        <pt x="55" y="1011" on="0"/>
        <pt x="198" y="1344" on="0"/>
        <pt x="439" y="1585" on="0"/>
        <pt x="772" y="1728" on="0"/>
        <pt x="1138" y="1728" on="0"/>
        <pt x="1471" y="1585" on="0"/>
        <pt x="1712" y="1344" on="0"/>
        <pt x="1855" y="1011" on="0"/>
        <pt x="1855" y="645" on="0"/>
        <pt x="1712" y="312" on="0"/>
        <pt x="1471" y="71" on="0"/>
        <pt x="1138" y="-72" on="0"/>
        <pt x="772" y="-72" on="0"/>
        <pt x="439" y="71" on="0"/>
        <pt x="198" y="312" on="0"/>
      </contour>
      <contour>
        <pt x="1538" y="1561" on="1"/>
        <pt x="1479" y="1604" on="1"/>
        <pt x="1589" y="1815" on="1"/>
        <pt x="1653" y="1782" on="1"/>
      </contour>
      <contour>
        <pt x="618" y="-52" on="1"/>
        <pt x="688" y="-74" on="1"/>
        <pt x="556" y="-328" on="1"/>
        <pt x="492" y="-295" on="1"/>
      </contour>
      <contour>
        <pt x="1421" y="1648" on="1"/>
        <pt x="1357" y="1681" on="1"/>
        <pt x="1461" y="1881" on="1"/>
        <pt x="1525" y="1848" on="1"/>
      </contour>
      <contour>
        <pt x="489" y="10" on="1"/>
        <pt x="553" y="-24" on="1"/>
        <pt x="429" y="-262" on="1"/>
        <pt x="365" y="-229" on="1"/>
      </contour>
      <contour>
        <pt x="1290" y="1709" on="1"/>
        <pt x="1220" y="1731" on="1"/>
        <pt x="1333" y="1948" on="1"/>
        <pt x="1397" y="1915" on="1"/>
      </contour>
      <contour>
        <pt x="366" y="87" on="1"/>
        <pt x="425" y="44" on="1"/>
        <pt x="301" y="-195" on="1"/>
        <pt x="237" y="-162" on="1"/>
      </contour>
    </TTGlyph>
    <TTGlyph name="Otilde" xMin="56" yMin="-72" xMax="1856" yMax="2190">
      <component glyphName="tilde" x="272" y="678" flags="0x1004"/>
      <component glyphName="O" x="0" y="0" flags="0x1204"/>
    </TTGlyph>
    <TTGlyph name="P" xMin="93" yMin="0" xMax="1677" yMax="1656">
      <contour>
        <pt x="653" y="784" on="1"/>
        <pt x="1071" y="784" on="1"/>
        <pt x="1174" y="784" on="0"/>
        <pt x="1317" y="923" on="0"/>
        <pt x="1317" y="1050" on="1"/>
        <pt x="1317" y="1145" on="0"/>
        <pt x="1167" y="1296" on="0"/>
        <pt x="1071" y="1296" on="1"/>
        <pt x="453" y="1296" on="1"/>
        <pt x="453" y="0" on="1"/>
        <pt x="381" y="0" on="1"/>
        <pt x="381" y="1368" on="1"/>
        <pt x="1071" y="1368" on="1"/>
        <pt x="1197" y="1368" on="0"/>
        <pt x="1389" y="1174" on="0"/>
        <pt x="1389" y="1050" on="1"/>
        <pt x="1389" y="897" on="0"/>
        <pt x="1203" y="712" on="0"/>
        <pt x="1071" y="712" on="1"/>
        <pt x="653" y="712" on="1"/>
      </contour>
      <contour>
        <pt x="653" y="640" on="1"/>
        <pt x="1071" y="640" on="1"/>
        <pt x="1175" y="640" on="0"/>
        <pt x="1352" y="741" on="0"/>
        <pt x="1461" y="931" on="0"/>
        <pt x="1461" y="1050" on="1"/>
        <pt x="1461" y="1204" on="0"/>
        <pt x="1226" y="1440" on="0"/>
        <pt x="1071" y="1440" on="1"/>
        <pt x="309" y="1440" on="1"/>
        <pt x="309" y="0" on="1"/>
        <pt x="237" y="0" on="1"/>
        <pt x="237" y="1512" on="1"/>
        <pt x="1071" y="1512" on="1"/>
        <pt x="1192" y="1512" on="0"/>
        <pt x="1406" y="1384" on="0"/>
        <pt x="1533" y="1170" on="0"/>
        <pt x="1533" y="1050" on="1"/>
        <pt x="1533" y="914" on="0"/>
        <pt x="1405" y="691" on="0"/>
        <pt x="1194" y="568" on="0"/>
        <pt x="1071" y="568" on="1"/>
        <pt x="653" y="568" on="1"/>
      </contour>
      <contour>
        <pt x="653" y="496" on="1"/>
        <pt x="1071" y="496" on="1"/>
        <pt x="1178" y="496" on="0"/>
        <pt x="1374" y="581" on="0"/>
        <pt x="1519" y="726" on="0"/>
        <pt x="1605" y="933" on="0"/>
        <pt x="1605" y="1050" on="1"/>
        <pt x="1605" y="1190" on="0"/>
        <pt x="1459" y="1437" on="0"/>
        <pt x="1212" y="1584" on="0"/>
        <pt x="1071" y="1584" on="1"/>
        <pt x="165" y="1584" on="1"/>
        <pt x="165" y="0" on="1"/>
        <pt x="93" y="0" on="1"/>
        <pt x="93" y="1656" on="1"/>
        <pt x="1071" y="1656" on="1"/>
        <pt x="1231" y="1656" on="0"/>
        <pt x="1511" y="1489" on="0"/>
        <pt x="1677" y="1209" on="0"/>
        <pt x="1677" y="1050" on="1"/>
        <pt x="1677" y="908" on="0"/>
        <pt x="1579" y="669" on="0"/>
        <pt x="1413" y="511" on="0"/>
        <pt x="1193" y="424" on="0"/>
        <pt x="1071" y="424" on="1"/>
        <pt x="653" y="424" on="1"/>
      </contour>
      <contour>
        <pt x="597" y="0" on="1"/>
        <pt x="525" y="0" on="1"/>
        <pt x="525" y="1224" on="1"/>
        <pt x="1071" y="1224" on="1"/>
        <pt x="1142" y="1224" on="0"/>
        <pt x="1245" y="1120" on="0"/>
        <pt x="1245" y="1050" on="1"/>
        <pt x="1245" y="856" on="0"/>
        <pt x="1071" y="856" on="1"/>
        <pt x="653" y="856" on="1"/>
        <pt x="653" y="928" on="1"/>
        <pt x="1071" y="928" on="1"/>
        <pt x="1119" y="928" on="0"/>
        <pt x="1173" y="982" on="0"/>
        <pt x="1173" y="1050" on="1"/>
        <pt x="1173" y="1094" on="0"/>
        <pt x="1114" y="1152" on="0"/>
        <pt x="1071" y="1152" on="1"/>
        <pt x="597" y="1152" on="1"/>
      </contour>
    </TTGlyph>
    <TTGlyph name="Q" xMin="56" yMin="-233" xMax="1856" yMax="1728">
      <contour>
        <pt x="1049" y="489" on="1"/>
        <pt x="975" y="471" on="1"/>
        <pt x="895" y="600" on="1"/>
        <pt x="956" y="638" on="1"/>
      </contour>
      <contour>
        <pt x="1298" y="-48" on="1"/>
        <pt x="1365" y="-19" on="1"/>
        <pt x="1473" y="-194" on="1"/>
        <pt x="1412" y="-233" on="1"/>
      </contour>
      <contour>
        <pt x="1177" y="556" on="1"/>
        <pt x="1117" y="518" on="1"/>
        <pt x="1019" y="675" on="1"/>
        <pt x="1080" y="713" on="1"/>
      </contour>
      <contour>
        <pt x="1429" y="14" on="1"/>
        <pt x="1490" y="52" on="1"/>
        <pt x="1594" y="-117" on="1"/>
        <pt x="1533" y="-156" on="1"/>
      </contour>
      <contour>
        <pt x="1276" y="670" on="1"/>
        <pt x="1232" y="604" on="1"/>
        <pt x="1142" y="749" on="1"/>
        <pt x="1202" y="790" on="1"/>
      </contour>
      <contour>
        <pt x="1549" y="93" on="1"/>
        <pt x="1604" y="142" on="1"/>
        <pt x="1716" y="-39" on="1"/>
        <pt x="1655" y="-78" on="1"/>
      </contour>
      <contour>
        <pt x="560" y="992" on="0"/>
        <pt x="560" y="664" on="0"/>
        <pt x="792" y="432" on="0"/>
        <pt x="1120" y="432" on="0"/>
        <pt x="1352" y="664" on="0"/>
        <pt x="1352" y="992" on="0"/>
        <pt x="1120" y="1224" on="0"/>
        <pt x="792" y="1224" on="0"/>
      </contour>
      <contour>
        <pt x="488" y="733" on="0"/>
        <pt x="488" y="923" on="0"/>
        <pt x="562" y="1096" on="0"/>
        <pt x="688" y="1222" on="0"/>
        <pt x="861" y="1296" on="0"/>
        <pt x="1051" y="1296" on="0"/>
        <pt x="1224" y="1222" on="0"/>
        <pt x="1350" y="1096" on="0"/>
        <pt x="1424" y="923" on="0"/>
        <pt x="1424" y="733" on="0"/>
        <pt x="1350" y="560" on="0"/>
        <pt x="1224" y="434" on="0"/>
        <pt x="1051" y="360" on="0"/>
        <pt x="861" y="360" on="0"/>
        <pt x="688" y="434" on="0"/>
        <pt x="562" y="560" on="0"/>
      </contour>
      <contour>
        <pt x="416" y="975" on="0"/>
        <pt x="416" y="681" on="0"/>
        <pt x="561" y="433" on="0"/>
        <pt x="809" y="288" on="0"/>
        <pt x="1103" y="288" on="0"/>
        <pt x="1351" y="433" on="0"/>
        <pt x="1496" y="681" on="0"/>
        <pt x="1496" y="975" on="0"/>
        <pt x="1351" y="1223" on="0"/>
        <pt x="1103" y="1368" on="0"/>
        <pt x="809" y="1368" on="0"/>
        <pt x="561" y="1223" on="0"/>
      </contour>
      <contour>
        <pt x="344" y="662" on="0"/>
        <pt x="344" y="994" on="0"/>
        <pt x="508" y="1276" on="0"/>
        <pt x="790" y="1440" on="0"/>
        <pt x="1122" y="1440" on="0"/>
        <pt x="1404" y="1276" on="0"/>
        <pt x="1568" y="994" on="0"/>
        <pt x="1568" y="662" on="0"/>
        <pt x="1404" y="380" on="0"/>
        <pt x="1122" y="216" on="0"/>
        <pt x="790" y="216" on="0"/>
        <pt x="508" y="380" on="0"/>
      </contour>
      <contour>
        <pt x="272" y="967" on="0"/>
        <pt x="272" y="689" on="0"/>
        <pt x="380" y="435" on="0"/>
        <pt x="563" y="252" on="0"/>
        <pt x="817" y="144" on="0"/>
        <pt x="1095" y="144" on="0"/>
        <pt x="1349" y="252" on="0"/>
        <pt x="1532" y="435" on="0"/>
        <pt x="1640" y="689" on="0"/>
        <pt x="1640" y="967" on="0"/>
        <pt x="1532" y="1221" on="0"/>
        <pt x="1349" y="1404" on="0"/>
        <pt x="1095" y="1512" on="0"/>
        <pt x="817" y="1512" on="0"/>
        <pt x="563" y="1404" on="0"/>
        <pt x="380" y="1221" on="0"/>
      </contour>
      <contour>
        <pt x="200" y="623" on="0"/>
        <pt x="200" y="1033" on="0"/>
        <pt x="403" y="1381" on="0"/>
        <pt x="751" y="1584" on="0"/>
        <pt x="1161" y="1584" on="0"/>
        <pt x="1509" y="1381" on="0"/>
        <pt x="1712" y="1033" on="0"/>
        <pt x="1712" y="623" on="0"/>
        <pt x="1509" y="275" on="0"/>
        <pt x="1161" y="72" on="0"/>
        <pt x="751" y="72" on="0"/>
        <pt x="403" y="275" on="0"/>
      </contour>
      <contour>
        <pt x="128" y="996" on="0"/>
        <pt x="128" y="660" on="0"/>
        <pt x="259" y="353" on="0"/>
        <pt x="481" y="131" on="0"/>
        <pt x="788" y="0" on="0"/>
        <pt x="1124" y="0" on="0"/>
        <pt x="1431" y="131" on="0"/>
        <pt x="1653" y="353" on="0"/>
        <pt x="1784" y="660" on="0"/>
        <pt x="1784" y="996" on="0"/>
        <pt x="1653" y="1303" on="0"/>
        <pt x="1431" y="1525" on="0"/>
        <pt x="1124" y="1656" on="0"/>
        <pt x="788" y="1656" on="0"/>
        <pt x="481" y="1525" on="0"/>
        <pt x="259" y="1303" on="0"/>
      </contour>
      <contour>
        <pt x="56" y="645" on="0"/>
        <pt x="56" y="1011" on="0"/>
        <pt x="199" y="1344" on="0"/>
        <pt x="440" y="1585" on="0"/>
        <pt x="773" y="1728" on="0"/>
        <pt x="1139" y="1728" on="0"/>
        <pt x="1472" y="1585" on="0"/>
        <pt x="1713" y="1344" on="0"/>
        <pt x="1856" y="1011" on="0"/>
        <pt x="1856" y="645" on="0"/>
        <pt x="1713" y="312" on="0"/>
        <pt x="1472" y="71" on="0"/>
        <pt x="1139" y="-72" on="0"/>
        <pt x="773" y="-72" on="0"/>
        <pt x="440" y="71" on="0"/>
        <pt x="199" y="312" on="0"/>
      </contour>
    </TTGlyph>
    <TTGlyph name="R" xMin="93" yMin="0" xMax="1667" yMax="1656">
      <contour>
        <pt x="637" y="824" on="1"/>
        <pt x="1071" y="824" on="1"/>
        <pt x="1170" y="824" on="0"/>
        <pt x="1307" y="952" on="0"/>
        <pt x="1307" y="1070" on="1"/>
        <pt x="1307" y="1157" on="0"/>
        <pt x="1163" y="1296" on="0"/>
        <pt x="1071" y="1296" on="1"/>
        <pt x="453" y="1296" on="1"/>
        <pt x="453" y="0" on="1"/>
        <pt x="381" y="0" on="1"/>
        <pt x="381" y="1368" on="1"/>
        <pt x="1071" y="1368" on="1"/>
        <pt x="1193" y="1368" on="0"/>
        <pt x="1379" y="1187" on="0"/>
        <pt x="1379" y="1070" on="1"/>
        <pt x="1379" y="926" on="0"/>
        <pt x="1199" y="752" on="0"/>
        <pt x="1071" y="752" on="1"/>
        <pt x="637" y="752" on="1"/>
      </contour>
      <contour>
        <pt x="637" y="680" on="1"/>
        <pt x="1071" y="680" on="1"/>
        <pt x="1227" y="680" on="0"/>
        <pt x="1451" y="899" on="0"/>
        <pt x="1451" y="1070" on="1"/>
        <pt x="1451" y="1217" on="0"/>
        <pt x="1222" y="1440" on="0"/>
        <pt x="1071" y="1440" on="1"/>
        <pt x="309" y="1440" on="1"/>
        <pt x="309" y="0" on="1"/>
        <pt x="237" y="0" on="1"/>
        <pt x="237" y="1512" on="1"/>
        <pt x="1071" y="1512" on="1"/>
        <pt x="1190" y="1512" on="0"/>
        <pt x="1399" y="1390" on="0"/>
        <pt x="1523" y="1185" on="0"/>
        <pt x="1523" y="1070" on="1"/>
        <pt x="1523" y="873" on="0"/>
        <pt x="1256" y="608" on="0"/>
        <pt x="1071" y="608" on="1"/>
        <pt x="637" y="608" on="1"/>
      </contour>
      <contour>
        <pt x="637" y="536" on="1"/>
        <pt x="1071" y="536" on="1"/>
        <pt x="1211" y="536" on="0"/>
        <pt x="1451" y="674" on="0"/>
        <pt x="1595" y="921" on="0"/>
        <pt x="1595" y="1070" on="1"/>
        <pt x="1595" y="1205" on="0"/>
        <pt x="1452" y="1442" on="0"/>
        <pt x="1210" y="1584" on="0"/>
        <pt x="1071" y="1584" on="1"/>
        <pt x="165" y="1584" on="1"/>
        <pt x="165" y="0" on="1"/>
        <pt x="93" y="0" on="1"/>
        <pt x="93" y="1656" on="1"/>
        <pt x="1071" y="1656" on="1"/>
        <pt x="1228" y="1656" on="0"/>
        <pt x="1504" y="1495" on="0"/>
        <pt x="1667" y="1224" on="0"/>
        <pt x="1667" y="1070" on="1"/>
        <pt x="1667" y="892" on="0"/>
        <pt x="1514" y="622" on="0"/>
        <pt x="1383" y="546" on="1"/>
        <pt x="1569" y="0" on="1"/>
        <pt x="1493" y="0" on="1"/>
        <pt x="1315" y="512" on="1"/>
        <pt x="1275" y="496" on="0"/>
        <pt x="1254" y="490" on="1"/>
        <pt x="1421" y="0" on="1"/>
        <pt x="1345" y="0" on="1"/>
        <pt x="1182" y="473" on="1"/>
        <pt x="1173" y="471" on="0"/>
        <pt x="1118" y="466" on="1"/>
        <pt x="1273" y="0" on="1"/>
        <pt x="1197" y="0" on="1"/>
        <pt x="1044" y="464" on="1"/>
        <pt x="979" y="464" on="1"/>
        <pt x="1125" y="0" on="1"/>
        <pt x="1049" y="0" on="1"/>
        <pt x="902" y="464" on="1"/>
        <pt x="637" y="464" on="1"/>
      </contour>
      <contour>
        <pt x="597" y="0" on="1"/>
        <pt x="525" y="0" on="1"/>
        <pt x="525" y="1224" on="1"/>
        <pt x="1071" y="1224" on="1"/>
        <pt x="1138" y="1224" on="0"/>
        <pt x="1235" y="1133" on="0"/>
        <pt x="1235" y="1070" on="1"/>
        <pt x="1235" y="896" on="0"/>
        <pt x="1071" y="896" on="1"/>
        <pt x="637" y="896" on="1"/>
        <pt x="637" y="968" on="1"/>
        <pt x="1071" y="968" on="1"/>
        <pt x="1114" y="968" on="0"/>
        <pt x="1163" y="1013" on="0"/>
        <pt x="1163" y="1070" on="1"/>
        <pt x="1163" y="1105" on="0"/>
        <pt x="1110" y="1152" on="0"/>
        <pt x="1071" y="1152" on="1"/>
        <pt x="597" y="1152" on="1"/>
      </contour>
    </TTGlyph>
    <TTGlyph name="Racute" xMin="93" yMin="0" xMax="1667" yMax="2312">
      <component glyphName="acute" x="341" y="373" flags="0x1004"/>
      <component glyphName="R" x="0" y="0" flags="0x1204"/>
    </TTGlyph>
    <TTGlyph name="Rcaron" xMin="93" yMin="0" xMax="1667" yMax="2318">
      <component glyphName="caron" x="211" y="290" flags="0x1004"/>
      <component glyphName="R" x="0" y="0" flags="0x1204"/>
    </TTGlyph>
    <TTGlyph name="Rcommaaccent" xMin="93" yMin="-750" xMax="1667" yMax="1656">
      <component glyphName="uni0326" x="553" y="43" flags="0x1004"/>
      <component glyphName="R" x="0" y="0" flags="0x1204"/>
    </TTGlyph>
    <TTGlyph name="S" xMin="39" yMin="-72" xMax="1352" yMax="1728">
      <contour>
        <pt x="762" y="1008" on="1"/>
        <pt x="641" y="1008" on="1"/>
        <pt x="564" y="1008" on="0"/>
        <pt x="496" y="1087" on="0"/>
        <pt x="496" y="1152" on="1"/>
        <pt x="496" y="1296" on="0"/>
        <pt x="711" y="1296" on="1"/>
        <pt x="913" y="1296" on="0"/>
        <pt x="1015" y="1236" on="1"/>
        <pt x="957" y="1192" on="1"/>
        <pt x="887" y="1224" on="0"/>
        <pt x="711" y="1224" on="1"/>
        <pt x="625" y="1224" on="0"/>
        <pt x="566" y="1186" on="0"/>
        <pt x="566" y="1118" on="0"/>
        <pt x="598" y="1080" on="0"/>
        <pt x="641" y="1080" on="1"/>
        <pt x="765" y="1080" on="1"/>
        <pt x="900" y="1080" on="0"/>
        <pt x="1117" y="988" on="0"/>
        <pt x="1257" y="829" on="0"/>
        <pt x="1331" y="622" on="0"/>
        <pt x="1331" y="504" on="1"/>
        <pt x="1331" y="408" on="0"/>
        <pt x="1277" y="236" on="0"/>
        <pt x="1168" y="92" on="0"/>
        <pt x="1015" y="-13" on="0"/>
        <pt x="804" y="-72" on="0"/>
        <pt x="681" y="-72" on="1"/>
        <pt x="488" y="-72" on="0"/>
        <pt x="151" y="45" on="0"/>
        <pt x="39" y="150" on="1"/>
        <pt x="97" y="193" on="1"/>
        <pt x="199" y="101" on="0"/>
        <pt x="506" y="0" on="0"/>
        <pt x="681" y="0" on="1"/>
        <pt x="818" y="0" on="0"/>
        <pt x="1039" y="79" on="0"/>
        <pt x="1182" y="217" on="0"/>
        <pt x="1259" y="399" on="0"/>
        <pt x="1259" y="504" on="1"/>
        <pt x="1259" y="643" on="0"/>
        <pt x="1147" y="868" on="0"/>
        <pt x="918" y="1008" on="0"/>
      </contour>
      <contour>
        <pt x="641" y="936" on="1"/>
        <pt x="755" y="936" on="1"/>
        <pt x="958" y="936" on="0"/>
        <pt x="1187" y="688" on="0"/>
        <pt x="1187" y="504" on="1"/>
        <pt x="1187" y="317" on="0"/>
        <pt x="921" y="72" on="0"/>
        <pt x="681" y="72" on="1"/>
        <pt x="521" y="72" on="0"/>
        <pt x="243" y="160" on="0"/>
        <pt x="151" y="240" on="1"/>
        <pt x="207" y="285" on="1"/>
        <pt x="289" y="218" on="0"/>
        <pt x="538" y="144" on="0"/>
        <pt x="681" y="144" on="1"/>
        <pt x="892" y="144" on="0"/>
        <pt x="1115" y="346" on="0"/>
        <pt x="1115" y="504" on="1"/>
        <pt x="1115" y="660" on="0"/>
        <pt x="928" y="864" on="0"/>
        <pt x="754" y="864" on="1"/>
        <pt x="641" y="864" on="1"/>
        <pt x="495" y="864" on="0"/>
        <pt x="349" y="1024" on="0"/>
        <pt x="349" y="1280" on="0"/>
        <pt x="530" y="1440" on="0"/>
        <pt x="711" y="1440" on="1"/>
        <pt x="838" y="1440" on="0"/>
        <pt x="1056" y="1381" on="0"/>
        <pt x="1127" y="1326" on="1"/>
        <pt x="1070" y="1282" on="1"/>
        <pt x="945" y="1368" on="0"/>
        <pt x="711" y="1368" on="1"/>
        <pt x="560" y="1368" on="0"/>
        <pt x="421" y="1249" on="0"/>
        <pt x="421" y="1152" on="1"/>
        <pt x="421" y="1054" on="0"/>
        <pt x="524" y="936" on="0"/>
      </contour>
      <contour>
        <pt x="641" y="792" on="1"/>
        <pt x="751" y="792" on="1"/>
        <pt x="897" y="792" on="0"/>
        <pt x="1043" y="630" on="0"/>
        <pt x="1043" y="504" on="1"/>
        <pt x="1043" y="376" on="0"/>
        <pt x="862" y="216" on="0"/>
        <pt x="681" y="216" on="1"/>
        <pt x="554" y="216" on="0"/>
        <pt x="335" y="275" on="0"/>
        <pt x="264" y="330" on="1"/>
        <pt x="321" y="374" on="1"/>
        <pt x="446" y="288" on="0"/>
        <pt x="681" y="288" on="1"/>
        <pt x="832" y="288" on="0"/>
        <pt x="971" y="407" on="0"/>
        <pt x="971" y="601" on="0"/>
        <pt x="867" y="720" on="0"/>
        <pt x="750" y="720" on="1"/>
        <pt x="641" y="720" on="1"/>
        <pt x="436" y="720" on="0"/>
        <pt x="205" y="965" on="0"/>
        <pt x="205" y="1339" on="0"/>
        <pt x="471" y="1584" on="0"/>
        <pt x="711" y="1584" on="1"/>
        <pt x="871" y="1584" on="0"/>
        <pt x="1148" y="1496" on="0"/>
        <pt x="1240" y="1416" on="1"/>
        <pt x="1184" y="1371" on="1"/>
        <pt x="1102" y="1438" on="0"/>
        <pt x="854" y="1512" on="0"/>
        <pt x="711" y="1512" on="1"/>
        <pt x="500" y="1512" on="0"/>
        <pt x="277" y="1310" on="0"/>
        <pt x="277" y="1152" on="1"/>
        <pt x="277" y="995" on="0"/>
        <pt x="465" y="792" on="0"/>
      </contour>
      <contour>
        <pt x="641" y="648" on="1"/>
        <pt x="751" y="648" on="1"/>
        <pt x="828" y="648" on="0"/>
        <pt x="896" y="568" on="0"/>
        <pt x="896" y="504" on="1"/>
        <pt x="896" y="360" on="0"/>
        <pt x="681" y="360" on="1"/>
        <pt x="478" y="360" on="0"/>
        <pt x="376" y="420" on="1"/>
        <pt x="434" y="464" on="1"/>
        <pt x="504" y="432" on="0"/>
        <pt x="681" y="432" on="1"/>
        <pt x="767" y="432" on="0"/>
        <pt x="826" y="470" on="0"/>
        <pt x="826" y="504" on="1"/>
        <pt x="826" y="537" on="0"/>
        <pt x="793" y="576" on="0"/>
        <pt x="749" y="576" on="1"/>
        <pt x="641" y="576" on="1"/>
        <pt x="503" y="576" on="0"/>
        <pt x="280" y="666" on="0"/>
        <pt x="137" y="824" on="0"/>
        <pt x="61" y="1032" on="0"/>
        <pt x="61" y="1152" on="1"/>
        <pt x="61" y="1248" on="0"/>
        <pt x="115" y="1420" on="0"/>
        <pt x="224" y="1564" on="0"/>
        <pt x="377" y="1669" on="0"/>
        <pt x="588" y="1728" on="0"/>
        <pt x="711" y="1728" on="1"/>
        <pt x="904" y="1728" on="0"/>
        <pt x="1240" y="1611" on="0"/>
        <pt x="1352" y="1506" on="1"/>
        <pt x="1294" y="1463" on="1"/>
        <pt x="1192" y="1555" on="0"/>
        <pt x="886" y="1656" on="0"/>
        <pt x="711" y="1656" on="1"/>
        <pt x="574" y="1656" on="0"/>
        <pt x="353" y="1577" on="0"/>
        <pt x="210" y="1439" on="0"/>
        <pt x="133" y="1257" on="0"/>
        <pt x="133" y="1152" on="1"/>
        <pt x="133" y="1011" on="0"/>
        <pt x="247" y="785" on="0"/>
        <pt x="481" y="648" on="0"/>
      </contour>
    </TTGlyph>
    <TTGlyph name="Sacute" xMin="39" yMin="-72" xMax="1378" yMax="2312">
      <component glyphName="acute" x="470" y="373" flags="0x1004"/>
      <component glyphName="S" x="0" y="0" flags="0x1204"/>
    </TTGlyph>
    <TTGlyph name="Scaron" xMin="39" yMin="-72" xMax="1352" yMax="2318">
      <component glyphName="caron" x="340" y="290" flags="0x1004"/>
      <component glyphName="S" x="0" y="0" flags="0x1204"/>
    </TTGlyph>
    <TTGlyph name="Scedilla" xMin="39" yMin="-710" xMax="1352" yMax="1728">
      <component glyphName="cedilla" x="246" y="59" flags="0x1004"/>
      <component glyphName="S" x="0" y="0" flags="0x1204"/>
    </TTGlyph>
    <TTGlyph name="Scircumflex" xMin="39" yMin="-72" xMax="1352" yMax="2318">
      <component glyphName="circumflex" x="310" y="286" flags="0x1004"/>
      <component glyphName="S" x="0" y="0" flags="0x1204"/>
    </TTGlyph>
    <TTGlyph name="Scommaaccent" xMin="39" yMin="-822" xMax="1352" yMax="1728">
      <component glyphName="uni0326" x="403" y="-29" flags="0x1004"/>
      <component glyphName="S" x="0" y="0" flags="0x1204"/>
    </TTGlyph>
    <TTGlyph name="T" xMin="61" yMin="0" xMax="1141" yMax="1656">
      <contour>
        <pt x="61" y="1584" on="1"/>
        <pt x="61" y="1656" on="1"/>
        <pt x="1141" y="1656" on="1"/>
        <pt x="1141" y="1584" on="1"/>
      </contour>
      <contour>
        <pt x="61" y="1440" on="1"/>
        <pt x="61" y="1512" on="1"/>
        <pt x="1141" y="1512" on="1"/>
        <pt x="1141" y="1440" on="1"/>
      </contour>
      <contour>
        <pt x="61" y="1296" on="1"/>
        <pt x="61" y="1368" on="1"/>
        <pt x="1141" y="1368" on="1"/>
        <pt x="1141" y="1296" on="1"/>
        <pt x="853" y="1296" on="1"/>
        <pt x="853" y="0" on="1"/>
        <pt x="781" y="0" on="1"/>
        <pt x="781" y="1296" on="1"/>
        <pt x="709" y="1296" on="1"/>
        <pt x="709" y="0" on="1"/>
        <pt x="637" y="0" on="1"/>
        <pt x="637" y="1296" on="1"/>
        <pt x="565" y="1296" on="1"/>
        <pt x="565" y="0" on="1"/>
        <pt x="493" y="0" on="1"/>
        <pt x="493" y="1296" on="1"/>
        <pt x="421" y="1296" on="1"/>
        <pt x="421" y="0" on="1"/>
        <pt x="349" y="0" on="1"/>
        <pt x="349" y="1296" on="1"/>
      </contour>
    </TTGlyph>
    <TTGlyph name="Tbar" xMin="61" yMin="0" xMax="1141" yMax="1656">
      <contour>
        <pt x="65" y="798" on="1"/>
        <pt x="307" y="798" on="1"/>
        <pt x="307" y="870" on="1"/>
        <pt x="65" y="870" on="1"/>
      </contour>
      <contour>
        <pt x="65" y="726" on="1"/>
        <pt x="307" y="726" on="1"/>
        <pt x="307" y="654" on="1"/>
        <pt x="65" y="654" on="1"/>
      </contour>
      <contour>
        <pt x="65" y="942" on="1"/>
        <pt x="307" y="942" on="1"/>
        <pt x="307" y="1014" on="1"/>
        <pt x="65" y="1014" on="1"/>
      </contour>
      <contour>
        <pt x="65" y="726" on="1"/>
      </contour>
      <contour>
        <pt x="65" y="798" on="1"/>
      </contour>
      <contour>
        <pt x="65" y="870" on="1"/>
      </contour>
      <contour>
        <pt x="65" y="942" on="1"/>
      </contour>
      <contour>
        <pt x="65" y="1014" on="1"/>
      </contour>
      <contour>
        <pt x="893" y="798" on="1"/>
        <pt x="1135" y="798" on="1"/>
        <pt x="1135" y="870" on="1"/>
        <pt x="893" y="870" on="1"/>
      </contour>
      <contour>
        <pt x="893" y="726" on="1"/>
        <pt x="1135" y="726" on="1"/>
        <pt x="1135" y="654" on="1"/>
        <pt x="893" y="654" on="1"/>
      </contour>
      <contour>
        <pt x="893" y="942" on="1"/>
        <pt x="1135" y="942" on="1"/>
        <pt x="1135" y="1014" on="1"/>
        <pt x="893" y="1014" on="1"/>
      </contour>
      <contour>
        <pt x="893" y="726" on="1"/>
      </contour>
      <contour>
        <pt x="893" y="798" on="1"/>
      </contour>
      <contour>
        <pt x="893" y="870" on="1"/>
      </contour>
      <contour>
        <pt x="893" y="942" on="1"/>
      </contour>
      <contour>
        <pt x="893" y="1014" on="1"/>
      </contour>
      <contour>
        <pt x="61" y="1584" on="1"/>
        <pt x="61" y="1656" on="1"/>
        <pt x="1141" y="1656" on="1"/>
        <pt x="1141" y="1584" on="1"/>
      </contour>
      <contour>
        <pt x="61" y="1440" on="1"/>
        <pt x="61" y="1512" on="1"/>
        <pt x="1141" y="1512" on="1"/>
        <pt x="1141" y="1440" on="1"/>
      </contour>
      <contour>
        <pt x="61" y="1296" on="1"/>
        <pt x="61" y="1368" on="1"/>
        <pt x="1141" y="1368" on="1"/>
        <pt x="1141" y="1296" on="1"/>
        <pt x="853" y="1296" on="1"/>
        <pt x="853" y="0" on="1"/>
        <pt x="781" y="0" on="1"/>
        <pt x="781" y="1296" on="1"/>
        <pt x="709" y="1296" on="1"/>
        <pt x="709" y="0" on="1"/>
        <pt x="637" y="0" on="1"/>
        <pt x="637" y="1296" on="1"/>
        <pt x="565" y="1296" on="1"/>
        <pt x="565" y="0" on="1"/>
        <pt x="493" y="0" on="1"/>
        <pt x="493" y="1296" on="1"/>
        <pt x="421" y="1296" on="1"/>
        <pt x="421" y="0" on="1"/>
        <pt x="349" y="0" on="1"/>
        <pt x="349" y="1296" on="1"/>
      </contour>
    </TTGlyph>
    <TTGlyph name="Tcaron" xMin="61" yMin="0" xMax="1141" yMax="2318">
      <component glyphName="caron" x="230" y="290" flags="0x1004"/>
      <component glyphName="T" x="0" y="0" flags="0x1204"/>
    </TTGlyph>
    <TTGlyph name="Tcommaaccent" xMin="61" yMin="-638" xMax="1141" yMax="1656">
      <component glyphName="cedilla" x="152" y="131" flags="0x1004"/>
      <component glyphName="T" x="0" y="0" flags="0x1204"/>
    </TTGlyph>
    <TTGlyph name="Thorn" xMin="94" yMin="-144" xMax="1567" yMax="1728">
      <contour>
        <pt x="631" y="559" on="1"/>
        <pt x="631" y="633" on="1"/>
        <pt x="700" y="624" on="0"/>
        <pt x="855" y="624" on="1"/>
        <pt x="940" y="624" on="0"/>
        <pt x="1063" y="746" on="0"/>
        <pt x="1063" y="918" on="0"/>
        <pt x="941" y="1040" on="0"/>
        <pt x="855" y="1040" on="1"/>
        <pt x="745" y="1040" on="0"/>
        <pt x="598" y="1029" on="1"/>
        <pt x="598" y="-144" on="1"/>
        <pt x="526" y="-144" on="1"/>
        <pt x="526" y="1728" on="1"/>
        <pt x="598" y="1728" on="1"/>
        <pt x="598" y="1540" on="1"/>
        <pt x="758" y="1544" on="0"/>
        <pt x="855" y="1544" on="1"/>
        <pt x="999" y="1544" on="0"/>
        <pt x="1263" y="1431" on="0"/>
        <pt x="1454" y="1240" on="0"/>
        <pt x="1567" y="976" on="0"/>
        <pt x="1567" y="688" on="0"/>
        <pt x="1454" y="424" on="0"/>
        <pt x="1263" y="233" on="0"/>
        <pt x="999" y="120" on="0"/>
        <pt x="855" y="120" on="1"/>
        <pt x="700" y="120" on="0"/>
        <pt x="631" y="122" on="1"/>
        <pt x="631" y="195" on="1"/>
        <pt x="735" y="192" on="0"/>
        <pt x="855" y="192" on="1"/>
        <pt x="1028" y="192" on="0"/>
        <pt x="1323" y="364" on="0"/>
        <pt x="1495" y="659" on="0"/>
        <pt x="1495" y="832" on="1"/>
        <pt x="1495" y="962" on="0"/>
        <pt x="1393" y="1199" on="0"/>
        <pt x="1221" y="1370" on="0"/>
        <pt x="984" y="1472" on="0"/>
        <pt x="855" y="1472" on="1"/>
        <pt x="798" y="1472" on="0"/>
        <pt x="598" y="1467" on="1"/>
        <pt x="598" y="1395" on="1"/>
        <pt x="731" y="1400" on="0"/>
        <pt x="855" y="1400" on="1"/>
        <pt x="1008" y="1400" on="0"/>
        <pt x="1270" y="1247" on="0"/>
        <pt x="1423" y="985" on="0"/>
        <pt x="1423" y="679" on="0"/>
        <pt x="1271" y="417" on="0"/>
        <pt x="1009" y="264" on="0"/>
        <pt x="701" y="264" on="0"/>
        <pt x="631" y="267" on="1"/>
        <pt x="631" y="340" on="1"/>
        <pt x="723" y="336" on="0"/>
        <pt x="855" y="336" on="1"/>
        <pt x="989" y="336" on="0"/>
        <pt x="1218" y="469" on="0"/>
        <pt x="1351" y="698" on="0"/>
        <pt x="1351" y="966" on="0"/>
        <pt x="1217" y="1195" on="0"/>
        <pt x="989" y="1328" on="0"/>
        <pt x="855" y="1328" on="1"/>
        <pt x="758" y="1328" on="0"/>
        <pt x="598" y="1322" on="1"/>
        <pt x="598" y="1250" on="1"/>
        <pt x="758" y="1256" on="0"/>
        <pt x="855" y="1256" on="1"/>
        <pt x="1030" y="1256" on="0"/>
        <pt x="1279" y="1007" on="0"/>
        <pt x="1279" y="657" on="0"/>
        <pt x="1030" y="408" on="0"/>
        <pt x="855" y="408" on="1"/>
        <pt x="723" y="408" on="0"/>
        <pt x="631" y="412" on="1"/>
        <pt x="631" y="485" on="1"/>
        <pt x="717" y="480" on="0"/>
        <pt x="855" y="480" on="1"/>
        <pt x="1000" y="480" on="0"/>
        <pt x="1207" y="686" on="0"/>
        <pt x="1207" y="832" on="1"/>
        <pt x="1207" y="977" on="0"/>
        <pt x="1000" y="1184" on="0"/>
        <pt x="710" y="1184" on="0"/>
        <pt x="598" y="1177" on="1"/>
        <pt x="598" y="1104" on="1"/>
        <pt x="678" y="1112" on="0"/>
        <pt x="855" y="1112" on="1"/>
        <pt x="970" y="1112" on="0"/>
        <pt x="1135" y="948" on="0"/>
        <pt x="1135" y="832" on="1"/>
        <pt x="1135" y="717" on="0"/>
        <pt x="970" y="552" on="0"/>
        <pt x="855" y="552" on="1"/>
        <pt x="728" y="552" on="0"/>
      </contour>
      <contour>
        <pt x="382" y="1728" on="1"/>
        <pt x="454" y="1728" on="1"/>
        <pt x="454" y="-144" on="1"/>
        <pt x="382" y="-144" on="1"/>
      </contour>
      <contour>
        <pt x="238" y="1728" on="1"/>
        <pt x="310" y="1728" on="1"/>
        <pt x="310" y="-144" on="1"/>
        <pt x="238" y="-144" on="1"/>
      </contour>
      <contour>
        <pt x="94" y="1728" on="1"/>
        <pt x="166" y="1728" on="1"/>
        <pt x="166" y="-144" on="1"/>
        <pt x="94" y="-144" on="1"/>
      </contour>
    </TTGlyph>
    <TTGlyph name="U" xMin="83" yMin="-72" xMax="1763" yMax="1656">
      <contour>
        <pt x="1259" y="728" on="1"/>
        <pt x="1259" y="1656" on="1"/>
        <pt x="1331" y="1656" on="1"/>
        <pt x="1331" y="728" on="1"/>
        <pt x="1331" y="576" on="0"/>
        <pt x="1091" y="360" on="0"/>
        <pt x="755" y="360" on="0"/>
        <pt x="515" y="576" on="0"/>
        <pt x="515" y="728" on="1"/>
        <pt x="515" y="1656" on="1"/>
        <pt x="587" y="1656" on="1"/>
        <pt x="587" y="728" on="1"/>
        <pt x="587" y="606" on="0"/>
        <pt x="784" y="432" on="0"/>
        <pt x="1062" y="432" on="0"/>
        <pt x="1259" y="606" on="0"/>
      </contour>
      <contour>
        <pt x="1403" y="728" on="1"/>
        <pt x="1403" y="1656" on="1"/>
        <pt x="1475" y="1656" on="1"/>
        <pt x="1475" y="728" on="1"/>
        <pt x="1475" y="624" on="0"/>
        <pt x="1387" y="435" on="0"/>
        <pt x="1239" y="297" on="0"/>
        <pt x="1035" y="216" on="0"/>
        <pt x="811" y="216" on="0"/>
        <pt x="607" y="297" on="0"/>
        <pt x="459" y="435" on="0"/>
        <pt x="371" y="624" on="0"/>
        <pt x="371" y="728" on="1"/>
        <pt x="371" y="1656" on="1"/>
        <pt x="443" y="1656" on="1"/>
        <pt x="443" y="728" on="1"/>
        <pt x="443" y="609" on="0"/>
        <pt x="572" y="406" on="0"/>
        <pt x="793" y="288" on="0"/>
        <pt x="1053" y="288" on="0"/>
        <pt x="1274" y="406" on="0"/>
        <pt x="1403" y="609" on="0"/>
      </contour>
      <contour>
        <pt x="1547" y="728" on="1"/>
        <pt x="1547" y="1656" on="1"/>
        <pt x="1619" y="1656" on="1"/>
        <pt x="1619" y="728" on="1"/>
        <pt x="1619" y="595" on="0"/>
        <pt x="1508" y="352" on="0"/>
        <pt x="1322" y="176" on="0"/>
        <pt x="1064" y="72" on="0"/>
        <pt x="782" y="72" on="0"/>
        <pt x="524" y="176" on="0"/>
        <pt x="338" y="352" on="0"/>
        <pt x="227" y="595" on="0"/>
        <pt x="227" y="728" on="1"/>
        <pt x="227" y="1656" on="1"/>
        <pt x="299" y="1656" on="1"/>
        <pt x="299" y="728" on="1"/>
        <pt x="299" y="570" on="0"/>
        <pt x="467" y="301" on="0"/>
        <pt x="754" y="144" on="0"/>
        <pt x="1092" y="144" on="0"/>
        <pt x="1379" y="301" on="0"/>
        <pt x="1547" y="570" on="0"/>
      </contour>
      <contour>
        <pt x="1691" y="728" on="1"/>
        <pt x="1691" y="1656" on="1"/>
        <pt x="1763" y="1656" on="1"/>
        <pt x="1763" y="728" on="1"/>
        <pt x="1763" y="512" on="0"/>
        <pt x="1537" y="143" on="0"/>
        <pt x="1150" y="-72" on="0"/>
        <pt x="696" y="-72" on="0"/>
        <pt x="309" y="143" on="0"/>
        <pt x="83" y="512" on="0"/>
        <pt x="83" y="728" on="1"/>
        <pt x="83" y="1656" on="1"/>
        <pt x="155" y="1656" on="1"/>
        <pt x="155" y="728" on="1"/>
        <pt x="155" y="581" on="0"/>
        <pt x="277" y="311" on="0"/>
        <pt x="483" y="116" on="0"/>
        <pt x="768" y="0" on="0"/>
        <pt x="1078" y="0" on="0"/>
        <pt x="1363" y="116" on="0"/>
        <pt x="1569" y="311" on="0"/>
        <pt x="1691" y="581" on="0"/>
      </contour>
    </TTGlyph>
    <TTGlyph name="Uacute" xMin="83" yMin="-72" xMax="1763" yMax="2312">
      <component glyphName="acute" x="682" y="373" flags="0x1004"/>
      <component glyphName="U" x="0" y="0" flags="0x1204"/>
    </TTGlyph>
    <TTGlyph name="Ubreve" xMin="83" yMin="-72" xMax="1763" yMax="2078">
      <component glyphName="breve" x="553" y="226" flags="0x1004"/>
      <component glyphName="U" x="0" y="0" flags="0x1204"/>
    </TTGlyph>
    <TTGlyph name="Ucircumflex" xMin="83" yMin="-72" xMax="1763" yMax="2318">
      <component glyphName="circumflex" x="537" y="286" flags="0x1004"/>
      <component glyphName="U" x="0" y="0" flags="0x1204"/>
    </TTGlyph>
    <TTGlyph name="Udieresis" xMin="83" yMin="-72" xMax="1763" yMax="2054">
      <component glyphName="dieresis" x="352" y="318" flags="0x1004"/>
      <component glyphName="U" x="0" y="0" flags="0x1204"/>
    </TTGlyph>
    <TTGlyph name="Ugrave" xMin="83" yMin="-72" xMax="1763" yMax="2312">
      <component glyphName="grave" x="196" y="373" flags="0x1004"/>
      <component glyphName="U" x="0" y="0" flags="0x1204"/>
    </TTGlyph>
    <TTGlyph name="Uhungarumlaut" xMin="83" yMin="-72" xMax="1964" yMax="2312">
      <component glyphName="hungarumlaut" x="308" y="373" flags="0x1004"/>
      <component glyphName="U" x="0" y="0" flags="0x1204"/>
    </TTGlyph>
    <TTGlyph name="Umacron" xMin="83" yMin="-72" xMax="1763" yMax="1656">
      <component glyphName="U" x="0" y="0" flags="0x1204"/>
    </TTGlyph>
    <TTGlyph name="Uogonek" xMin="83" yMin="-647" xMax="1763" yMax="1656">
      <component glyphName="ogonek" x="549" y="-71" flags="0x1004"/>
      <component glyphName="U" x="0" y="0" flags="0x1204"/>
    </TTGlyph>
    <TTGlyph name="Uring" xMin="83" yMin="-72" xMax="1763" yMax="2366">
      <component glyphName="ring" x="584" y="246" flags="0x1004"/>
      <component glyphName="U" x="0" y="0" flags="0x1204"/>
    </TTGlyph>
    <TTGlyph name="Utilde" xMin="83" yMin="-72" xMax="1763" yMax="2190">
      <component glyphName="tilde" x="238" y="678" flags="0x1004"/>
      <component glyphName="U" x="0" y="0" flags="0x1204"/>
    </TTGlyph>
    <TTGlyph name="V" xMin="37" yMin="0" xMax="1889" yMax="1656">
      <contour>
        <pt x="37" y="1656" on="1"/>
        <pt x="115" y="1656" on="1"/>
        <pt x="731" y="97" on="1"/>
        <pt x="1347" y="1656" on="1"/>
        <pt x="1424" y="1656" on="1"/>
        <pt x="770" y="0" on="1"/>
        <pt x="692" y="0" on="1"/>
      </contour>
      <contour>
        <pt x="781" y="360" on="1"/>
        <pt x="740" y="268" on="1"/>
        <pt x="192" y="1656" on="1"/>
        <pt x="269" y="1656" on="1"/>
      </contour>
      <contour>
        <pt x="858" y="557" on="1"/>
        <pt x="820" y="458" on="1"/>
        <pt x="347" y="1656" on="1"/>
        <pt x="425" y="1656" on="1"/>
      </contour>
      <contour>
        <pt x="934" y="757" on="1"/>
        <pt x="896" y="656" on="1"/>
        <pt x="502" y="1656" on="1"/>
        <pt x="579" y="1656" on="1"/>
      </contour>
      <contour>
        <pt x="1811" y="1656" on="1"/>
        <pt x="1889" y="1656" on="1"/>
        <pt x="1234" y="0" on="1"/>
        <pt x="1157" y="0" on="1"/>
      </contour>
      <contour>
        <pt x="1657" y="1656" on="1"/>
        <pt x="1734" y="1656" on="1"/>
        <pt x="1079" y="0" on="1"/>
        <pt x="1002" y="0" on="1"/>
      </contour>
      <contour>
        <pt x="1501" y="1656" on="1"/>
        <pt x="1579" y="1656" on="1"/>
        <pt x="924" y="0" on="1"/>
        <pt x="847" y="0" on="1"/>
      </contour>
    </TTGlyph>
    <TTGlyph name="W" xMin="41" yMin="0" xMax="2336" yMax="1656">
      <contour>
        <pt x="567" y="509" on="1"/>
        <pt x="533" y="367" on="1"/>
        <pt x="191" y="1656" on="1"/>
        <pt x="265" y="1656" on="1"/>
      </contour>
      <contour>
        <pt x="642" y="786" on="1"/>
        <pt x="605" y="648" on="1"/>
        <pt x="340" y="1656" on="1"/>
        <pt x="413" y="1656" on="1"/>
      </contour>
      <contour>
        <pt x="717" y="1073" on="1"/>
        <pt x="679" y="933" on="1"/>
        <pt x="488" y="1656" on="1"/>
        <pt x="563" y="1656" on="1"/>
      </contour>
      <contour>
        <pt x="1002" y="0" on="1"/>
        <pt x="927" y="0" on="1"/>
        <pt x="1365" y="1654" on="1"/>
        <pt x="1364" y="1656" on="1"/>
        <pt x="1440" y="1656" on="1"/>
        <pt x="1440" y="1654" on="1"/>
        <pt x="1635" y="982" on="1"/>
        <pt x="1814" y="1656" on="1"/>
        <pt x="1889" y="1656" on="1"/>
        <pt x="1450" y="0" on="1"/>
        <pt x="1375" y="0" on="1"/>
        <pt x="1179" y="671" on="1"/>
      </contour>
      <contour>
        <pt x="852" y="0" on="1"/>
        <pt x="778" y="0" on="1"/>
        <pt x="1216" y="1656" on="1"/>
        <pt x="1290" y="1656" on="1"/>
      </contour>
      <contour>
        <pt x="703" y="0" on="1"/>
        <pt x="629" y="0" on="1"/>
        <pt x="1068" y="1656" on="1"/>
        <pt x="1141" y="1656" on="1"/>
      </contour>
      <contour>
        <pt x="1898" y="0" on="1"/>
        <pt x="1823" y="0" on="1"/>
        <pt x="2261" y="1656" on="1"/>
        <pt x="2336" y="1656" on="1"/>
      </contour>
      <contour>
        <pt x="1748" y="0" on="1"/>
        <pt x="1674" y="0" on="1"/>
        <pt x="2112" y="1656" on="1"/>
        <pt x="2186" y="1656" on="1"/>
      </contour>
      <contour>
        <pt x="1599" y="0" on="1"/>
        <pt x="1525" y="0" on="1"/>
        <pt x="1964" y="1656" on="1"/>
        <pt x="2037" y="1656" on="1"/>
      </contour>
      <contour>
        <pt x="517" y="142" on="1"/>
        <pt x="918" y="1656" on="1"/>
        <pt x="993" y="1656" on="1"/>
        <pt x="554" y="0" on="1"/>
        <pt x="479" y="0" on="1"/>
        <pt x="41" y="1656" on="1"/>
        <pt x="116" y="1656" on="1"/>
      </contour>
      <contour>
        <pt x="1217" y="812" on="1"/>
        <pt x="1411" y="136" on="1"/>
        <pt x="1449" y="279" on="1"/>
        <pt x="1254" y="953" on="1"/>
      </contour>
      <contour>
        <pt x="1291" y="1094" on="1"/>
        <pt x="1486" y="420" on="1"/>
        <pt x="1524" y="561" on="1"/>
        <pt x="1329" y="1236" on="1"/>
      </contour>
      <contour>
        <pt x="1365" y="1374" on="1"/>
        <pt x="1561" y="700" on="1"/>
        <pt x="1598" y="842" on="1"/>
        <pt x="1404" y="1518" on="1"/>
      </contour>
    </TTGlyph>
    <TTGlyph name="X" xMin="31" yMin="0" xMax="1769" yMax="1656">
      <contour>
        <pt x="595" y="895" on="1"/>
        <pt x="552" y="827" on="1"/>
        <pt x="31" y="1656" on="1"/>
        <pt x="116" y="1656" on="1"/>
      </contour>
      <contour>
        <pt x="950" y="354" on="1"/>
        <pt x="992" y="422" on="1"/>
        <pt x="1258" y="0" on="1"/>
        <pt x="1173" y="0" on="1"/>
      </contour>
      <contour>
        <pt x="680" y="1029" on="1"/>
        <pt x="637" y="962" on="1"/>
        <pt x="201" y="1656" on="1"/>
        <pt x="285" y="1656" on="1"/>
      </contour>
      <contour>
        <pt x="1035" y="489" on="1"/>
        <pt x="1077" y="557" on="1"/>
        <pt x="1428" y="0" on="1"/>
        <pt x="1343" y="0" on="1"/>
      </contour>
      <contour>
        <pt x="765" y="1165" on="1"/>
        <pt x="723" y="1098" on="1"/>
        <pt x="371" y="1656" on="1"/>
        <pt x="456" y="1656" on="1"/>
      </contour>
      <contour>
        <pt x="1121" y="625" on="1"/>
        <pt x="1163" y="693" on="1"/>
        <pt x="1599" y="0" on="1"/>
        <pt x="1514" y="0" on="1"/>
      </contour>
      <contour>
        <pt x="850" y="1300" on="1"/>
        <pt x="808" y="1232" on="1"/>
        <pt x="541" y="1656" on="1"/>
        <pt x="626" y="1656" on="1"/>
      </contour>
      <contour>
        <pt x="1205" y="760" on="1"/>
        <pt x="1247" y="828" on="1"/>
        <pt x="1769" y="0" on="1"/>
        <pt x="1684" y="0" on="1"/>
      </contour>
      <contour>
        <pt x="1634" y="1656" on="1"/>
        <pt x="1719" y="1656" on="1"/>
        <pt x="677" y="0" on="1"/>
        <pt x="592" y="0" on="1"/>
      </contour>
      <contour>
        <pt x="1465" y="1656" on="1"/>
        <pt x="1549" y="1656" on="1"/>
        <pt x="507" y="0" on="1"/>
        <pt x="422" y="0" on="1"/>
      </contour>
      <contour>
        <pt x="1294" y="1656" on="1"/>
        <pt x="1379" y="1656" on="1"/>
        <pt x="336" y="0" on="1"/>
        <pt x="251" y="0" on="1"/>
      </contour>
      <contour>
        <pt x="1124" y="1656" on="1"/>
        <pt x="1209" y="1656" on="1"/>
        <pt x="166" y="0" on="1"/>
        <pt x="81" y="0" on="1"/>
      </contour>
    </TTGlyph>
    <TTGlyph name="Y" xMin="35" yMin="0" xMax="1581" yMax="1656">
      <contour>
        <pt x="647" y="833" on="1"/>
        <pt x="611" y="754" on="1"/>
        <pt x="179" y="1656" on="1"/>
        <pt x="251" y="1656" on="1"/>
      </contour>
      <contour>
        <pt x="719" y="991" on="1"/>
        <pt x="682" y="912" on="1"/>
        <pt x="323" y="1656" on="1"/>
        <pt x="395" y="1656" on="1"/>
      </contour>
      <contour>
        <pt x="791" y="1148" on="1"/>
        <pt x="755" y="1069" on="1"/>
        <pt x="467" y="1656" on="1"/>
        <pt x="539" y="1656" on="1"/>
      </contour>
      <contour>
        <pt x="700" y="558" on="1"/>
        <pt x="1221" y="1656" on="1"/>
        <pt x="1293" y="1656" on="1"/>
        <pt x="772" y="558" on="1"/>
        <pt x="772" y="0" on="1"/>
        <pt x="700" y="0" on="1"/>
      </contour>
      <contour>
        <pt x="844" y="558" on="1"/>
        <pt x="1365" y="1656" on="1"/>
        <pt x="1437" y="1656" on="1"/>
        <pt x="916" y="558" on="1"/>
        <pt x="916" y="0" on="1"/>
        <pt x="844" y="0" on="1"/>
      </contour>
      <contour>
        <pt x="988" y="558" on="1"/>
        <pt x="1509" y="1656" on="1"/>
        <pt x="1581" y="1656" on="1"/>
        <pt x="1060" y="558" on="1"/>
        <pt x="1060" y="0" on="1"/>
        <pt x="988" y="0" on="1"/>
      </contour>
      <contour>
        <pt x="592" y="634" on="1"/>
        <pt x="1077" y="1656" on="1"/>
        <pt x="1149" y="1656" on="1"/>
        <pt x="628" y="558" on="1"/>
        <pt x="628" y="0" on="1"/>
        <pt x="556" y="0" on="1"/>
        <pt x="556" y="558" on="1"/>
        <pt x="35" y="1656" on="1"/>
        <pt x="107" y="1656" on="1"/>
      </contour>
    </TTGlyph>
    <TTGlyph name="Yacute" xMin="35" yMin="0" xMax="1581" yMax="2312">
      <component glyphName="acute" x="567" y="373" flags="0x1004"/>
      <component glyphName="Y" x="0" y="0" flags="0x1204"/>
    </TTGlyph>
    <TTGlyph name="Ycircumflex" xMin="35" yMin="0" xMax="1581" yMax="2318">
      <component glyphName="circumflex" x="422" y="286" flags="0x1004"/>
      <component glyphName="Y" x="0" y="0" flags="0x1204"/>
    </TTGlyph>
    <TTGlyph name="Ydieresis" xMin="35" yMin="0" xMax="1581" yMax="2054">
      <component glyphName="dieresis" x="237" y="318" flags="0x1004"/>
      <component glyphName="Y" x="0" y="0" flags="0x1204"/>
    </TTGlyph>
    <TTGlyph name="Z" xMin="79" yMin="0" xMax="1665" yMax="1656">
      <contour>
        <pt x="876" y="432" on="1"/>
        <pt x="995" y="504" on="1"/>
        <pt x="1665" y="504" on="1"/>
        <pt x="1665" y="432" on="1"/>
      </contour>
      <contour>
        <pt x="640" y="288" on="1"/>
        <pt x="761" y="360" on="1"/>
        <pt x="1665" y="360" on="1"/>
        <pt x="1665" y="288" on="1"/>
      </contour>
      <contour>
        <pt x="401" y="144" on="1"/>
        <pt x="523" y="216" on="1"/>
        <pt x="1665" y="216" on="1"/>
        <pt x="1665" y="144" on="1"/>
      </contour>
      <contour>
        <pt x="868" y="1224" on="1"/>
        <pt x="749" y="1152" on="1"/>
        <pt x="79" y="1152" on="1"/>
        <pt x="79" y="1224" on="1"/>
      </contour>
      <contour>
        <pt x="1104" y="1368" on="1"/>
        <pt x="983" y="1296" on="1"/>
        <pt x="79" y="1296" on="1"/>
        <pt x="79" y="1368" on="1"/>
      </contour>
      <contour>
        <pt x="1343" y="1512" on="1"/>
        <pt x="1221" y="1440" on="1"/>
        <pt x="79" y="1440" on="1"/>
        <pt x="79" y="1512" on="1"/>
      </contour>
      <contour>
        <pt x="1665" y="1487" on="1"/>
        <pt x="1665" y="1403" on="1"/>
        <pt x="79" y="337" on="1"/>
        <pt x="79" y="421" on="1"/>
      </contour>
      <contour>
        <pt x="1665" y="1317" on="1"/>
        <pt x="1665" y="1232" on="1"/>
        <pt x="79" y="167" on="1"/>
        <pt x="79" y="253" on="1"/>
      </contour>
      <contour>
        <pt x="1665" y="1148" on="1"/>
        <pt x="1665" y="1064" on="1"/>
        <pt x="186" y="72" on="1"/>
        <pt x="1665" y="72" on="1"/>
        <pt x="1665" y="0" on="1"/>
        <pt x="79" y="0" on="1"/>
        <pt x="79" y="0" on="0"/>
        <pt x="79" y="85" on="1"/>
      </contour>
      <contour>
        <pt x="1558" y="1584" on="1"/>
        <pt x="79" y="1584" on="1"/>
        <pt x="79" y="1656" on="1"/>
        <pt x="1665" y="1656" on="1"/>
        <pt x="1665" y="1656" on="0"/>
        <pt x="1665" y="1570" on="1"/>
        <pt x="79" y="507" on="1"/>
        <pt x="79" y="590" on="1"/>
      </contour>
    </TTGlyph>
    <TTGlyph name="Zacute" xMin="79" yMin="0" xMax="1665" yMax="2312">
      <component glyphName="acute" x="631" y="373" flags="0x1004"/>
      <component glyphName="Z" x="0" y="0" flags="0x1204"/>
    </TTGlyph>
    <TTGlyph name="Zcaron" xMin="79" yMin="0" xMax="1665" yMax="2318">
      <component glyphName="caron" x="501" y="290" flags="0x1004"/>
      <component glyphName="Z" x="0" y="0" flags="0x1204"/>
    </TTGlyph>
    <TTGlyph name="Zdotaccent" xMin="79" yMin="0" xMax="1665" yMax="2190">
      <component glyphName="dotaccent" x="610" y="534" flags="0x1004"/>
      <component glyphName="Z" x="0" y="0" flags="0x1204"/>
    </TTGlyph>
    <TTGlyph name="a" xMin="55" yMin="-39" xMax="1619" yMax="1482">
      <contour>
        <pt x="1115" y="710" on="1"/>
        <pt x="1115" y="838" on="0"/>
        <pt x="957" y="978" on="0"/>
        <pt x="827" y="978" on="1"/>
        <pt x="717" y="978" on="0"/>
        <pt x="559" y="826" on="0"/>
        <pt x="559" y="720" on="1"/>
        <pt x="559" y="660" on="0"/>
        <pt x="591" y="565" on="0"/>
        <pt x="646" y="502" on="0"/>
        <pt x="722" y="461" on="0"/>
        <pt x="805" y="443" on="0"/>
        <pt x="852" y="443" on="1"/>
        <pt x="966" y="443" on="0"/>
        <pt x="1060" y="499" on="1"/>
        <pt x="1060" y="427" on="1"/>
        <pt x="963" y="376" on="0"/>
        <pt x="851" y="376" on="1"/>
        <pt x="779" y="376" on="0"/>
        <pt x="652" y="415" on="0"/>
        <pt x="548" y="494" on="0"/>
        <pt x="487" y="631" on="0"/>
        <pt x="487" y="720" on="1"/>
        <pt x="487" y="858" on="0"/>
        <pt x="681" y="1050" on="0"/>
        <pt x="827" y="1050" on="1"/>
        <pt x="988" y="1050" on="0"/>
        <pt x="1187" y="869" on="0"/>
        <pt x="1187" y="710" on="1"/>
        <pt x="1187" y="0" on="1"/>
        <pt x="1115" y="0" on="1"/>
      </contour>
      <contour>
        <pt x="1331" y="710" on="1"/>
        <pt x="1331" y="0" on="1"/>
        <pt x="1259" y="0" on="1"/>
        <pt x="1259" y="710" on="1"/>
        <pt x="1259" y="899" on="0"/>
        <pt x="1017" y="1122" on="0"/>
        <pt x="827" y="1122" on="1"/>
        <pt x="651" y="1122" on="0"/>
        <pt x="415" y="888" on="0"/>
        <pt x="415" y="720" on="1"/>
        <pt x="415" y="618" on="0"/>
        <pt x="486" y="456" on="0"/>
        <pt x="608" y="358" on="0"/>
        <pt x="759" y="307" on="0"/>
        <pt x="843" y="307" on="1"/>
        <pt x="957" y="307" on="0"/>
        <pt x="1060" y="360" on="1"/>
        <pt x="1060" y="284" on="1"/>
        <pt x="952" y="239" on="0"/>
        <pt x="842" y="239" on="1"/>
        <pt x="743" y="239" on="0"/>
        <pt x="565" y="300" on="0"/>
        <pt x="425" y="417" on="0"/>
        <pt x="343" y="604" on="0"/>
        <pt x="343" y="720" on="1"/>
        <pt x="343" y="917" on="0"/>
        <pt x="622" y="1194" on="0"/>
        <pt x="827" y="1194" on="1"/>
        <pt x="971" y="1194" on="0"/>
        <pt x="1199" y="1077" on="0"/>
        <pt x="1331" y="855" on="0"/>
      </contour>
      <contour>
        <pt x="1475" y="710" on="1"/>
        <pt x="1475" y="0" on="1"/>
        <pt x="1403" y="0" on="1"/>
        <pt x="1403" y="710" on="1"/>
        <pt x="1403" y="875" on="0"/>
        <pt x="1252" y="1130" on="0"/>
        <pt x="990" y="1266" on="0"/>
        <pt x="827" y="1266" on="1"/>
        <pt x="672" y="1266" on="0"/>
        <pt x="416" y="1119" on="0"/>
        <pt x="271" y="869" on="0"/>
        <pt x="271" y="720" on="1"/>
        <pt x="271" y="592" on="0"/>
        <pt x="365" y="381" on="0"/>
        <pt x="524" y="245" on="0"/>
        <pt x="727" y="170" on="0"/>
        <pt x="838" y="170" on="1"/>
        <pt x="951" y="170" on="0"/>
        <pt x="1060" y="217" on="1"/>
        <pt x="1060" y="144" on="1"/>
        <pt x="946" y="101" on="0"/>
        <pt x="836" y="101" on="1"/>
        <pt x="663" y="101" on="0"/>
        <pt x="373" y="257" on="0"/>
        <pt x="199" y="543" on="0"/>
        <pt x="199" y="720" on="1"/>
        <pt x="199" y="846" on="0"/>
        <pt x="296" y="1074" on="0"/>
        <pt x="462" y="1240" on="0"/>
        <pt x="696" y="1338" on="0"/>
        <pt x="827" y="1338" on="1"/>
        <pt x="1010" y="1338" on="0"/>
        <pt x="1305" y="1182" on="0"/>
        <pt x="1475" y="894" on="0"/>
      </contour>
      <contour>
        <pt x="1619" y="710" on="1"/>
        <pt x="1619" y="0" on="1"/>
        <pt x="1547" y="0" on="1"/>
        <pt x="1547" y="710" on="1"/>
        <pt x="1547" y="914" on="0"/>
        <pt x="1357" y="1235" on="0"/>
        <pt x="1029" y="1410" on="0"/>
        <pt x="827" y="1410" on="1"/>
        <pt x="633" y="1410" on="0"/>
        <pt x="311" y="1224" on="0"/>
        <pt x="127" y="907" on="0"/>
        <pt x="127" y="720" on="1"/>
        <pt x="127" y="597" on="0"/>
        <pt x="206" y="376" on="0"/>
        <pt x="343" y="211" on="0"/>
        <pt x="522" y="91" on="0"/>
        <pt x="729" y="29" on="0"/>
        <pt x="836" y="29" on="1"/>
        <pt x="954" y="29" on="0"/>
        <pt x="1060" y="74" on="1"/>
        <pt x="1060" y="0" on="1"/>
        <pt x="949" y="-39" on="0"/>
        <pt x="832" y="-39" on="1"/>
        <pt x="711" y="-39" on="0"/>
        <pt x="482" y="29" on="0"/>
        <pt x="287" y="162" on="0"/>
        <pt x="139" y="343" on="0"/>
        <pt x="55" y="585" on="0"/>
        <pt x="55" y="720" on="1"/>
        <pt x="55" y="875" on="0"/>
        <pt x="172" y="1156" on="0"/>
        <pt x="375" y="1361" on="0"/>
        <pt x="664" y="1482" on="0"/>
        <pt x="827" y="1482" on="1"/>
        <pt x="993" y="1482" on="0"/>
        <pt x="1285" y="1370" on="0"/>
        <pt x="1497" y="1171" on="0"/>
        <pt x="1619" y="881" on="0"/>
      </contour>
    </TTGlyph>
    <TTGlyph name="aacute" xMin="55" yMin="-39" xMax="1619" yMax="2096">
      <component glyphName="acute" x="586" y="157" flags="0x1004"/>
      <component glyphName="a" x="0" y="0" flags="0x1204"/>
    </TTGlyph>
    <TTGlyph name="abreve" xMin="55" yMin="-39" xMax="1619" yMax="1862">
      <component glyphName="breve" x="457" y="10" flags="0x1004"/>
      <component glyphName="a" x="0" y="0" flags="0x1204"/>
    </TTGlyph>
    <TTGlyph name="acircumflex" xMin="55" yMin="-39" xMax="1619" yMax="2102">
      <component glyphName="circumflex" x="441" y="70" flags="0x1004"/>
      <component glyphName="a" x="0" y="0" flags="0x1204"/>
    </TTGlyph>
    <TTGlyph name="acute" xMin="70" yMin="1457" xMax="908" yMax="1939">
      <contour>
        <pt x="127" y="1561" on="1"/>
        <pt x="70" y="1613" on="1"/>
        <pt x="737" y="1939" on="1"/>
        <pt x="794" y="1887" on="1"/>
      </contour>
      <contour>
        <pt x="241" y="1457" on="1"/>
        <pt x="184" y="1509" on="1"/>
        <pt x="850" y="1835" on="1"/>
        <pt x="908" y="1782" on="1"/>
      </contour>
    </TTGlyph>
    <TTGlyph name="adieresis" xMin="55" yMin="-39" xMax="1619" yMax="1838">
      <component glyphName="dieresis" x="256" y="102" flags="0x1004"/>
      <component glyphName="a" x="0" y="0" flags="0x1204"/>
    </TTGlyph>
    <TTGlyph name="ae" xMin="55" yMin="-39" xMax="2308" yMax="1482">
      <contour>
        <pt x="1475" y="710" on="1"/>
        <pt x="1475" y="0" on="1"/>
        <pt x="1403" y="0" on="1"/>
        <pt x="1403" y="0" on="0"/>
        <pt x="1403" y="710" on="1"/>
        <pt x="1403" y="875" on="0"/>
        <pt x="1252" y="1130" on="0"/>
        <pt x="990" y="1266" on="0"/>
        <pt x="827" y="1266" on="1"/>
        <pt x="672" y="1266" on="0"/>
        <pt x="416" y="1119" on="0"/>
        <pt x="271" y="869" on="0"/>
        <pt x="271" y="720" on="1"/>
        <pt x="271" y="592" on="0"/>
        <pt x="365" y="381" on="0"/>
        <pt x="524" y="245" on="0"/>
        <pt x="727" y="170" on="0"/>
        <pt x="838" y="170" on="1"/>
        <pt x="951" y="170" on="0"/>
        <pt x="1060" y="217" on="1"/>
        <pt x="1060" y="144" on="1"/>
        <pt x="946" y="101" on="0"/>
        <pt x="836" y="101" on="1"/>
        <pt x="663" y="101" on="0"/>
        <pt x="373" y="257" on="0"/>
        <pt x="199" y="543" on="0"/>
        <pt x="199" y="720" on="1"/>
        <pt x="199" y="846" on="0"/>
        <pt x="296" y="1074" on="0"/>
        <pt x="462" y="1240" on="0"/>
        <pt x="696" y="1338" on="0"/>
        <pt x="827" y="1338" on="1"/>
        <pt x="1010" y="1338" on="0"/>
        <pt x="1305" y="1182" on="0"/>
        <pt x="1475" y="894" on="0"/>
      </contour>
      <contour>
        <pt x="1331" y="710" on="1"/>
        <pt x="1331" y="0" on="1"/>
        <pt x="1259" y="0" on="1"/>
        <pt x="1259" y="710" on="1"/>
        <pt x="1259" y="899" on="0"/>
        <pt x="1017" y="1122" on="0"/>
        <pt x="827" y="1122" on="1"/>
        <pt x="651" y="1122" on="0"/>
        <pt x="415" y="888" on="0"/>
        <pt x="415" y="720" on="1"/>
        <pt x="415" y="618" on="0"/>
        <pt x="486" y="456" on="0"/>
        <pt x="608" y="358" on="0"/>
        <pt x="759" y="307" on="0"/>
        <pt x="843" y="307" on="1"/>
        <pt x="957" y="307" on="0"/>
        <pt x="1060" y="360" on="1"/>
        <pt x="1060" y="284" on="1"/>
        <pt x="952" y="239" on="0"/>
        <pt x="842" y="239" on="1"/>
        <pt x="743" y="239" on="0"/>
        <pt x="565" y="300" on="0"/>
        <pt x="425" y="417" on="0"/>
        <pt x="343" y="604" on="0"/>
        <pt x="343" y="720" on="1"/>
        <pt x="343" y="917" on="0"/>
        <pt x="622" y="1194" on="0"/>
        <pt x="827" y="1194" on="1"/>
        <pt x="971" y="1194" on="0"/>
        <pt x="1199" y="1077" on="0"/>
        <pt x="1331" y="855" on="0"/>
      </contour>
      <contour>
        <pt x="1115" y="710" on="1"/>
        <pt x="1115" y="838" on="0"/>
        <pt x="957" y="978" on="0"/>
        <pt x="827" y="978" on="1"/>
        <pt x="717" y="978" on="0"/>
        <pt x="559" y="826" on="0"/>
        <pt x="559" y="720" on="1"/>
        <pt x="559" y="660" on="0"/>
        <pt x="591" y="565" on="0"/>
        <pt x="646" y="502" on="0"/>
        <pt x="722" y="461" on="0"/>
        <pt x="805" y="443" on="0"/>
        <pt x="852" y="443" on="1"/>
        <pt x="966" y="443" on="0"/>
        <pt x="1060" y="499" on="1"/>
        <pt x="1060" y="427" on="1"/>
        <pt x="963" y="376" on="0"/>
        <pt x="851" y="376" on="1"/>
        <pt x="779" y="376" on="0"/>
        <pt x="652" y="415" on="0"/>
        <pt x="548" y="494" on="0"/>
        <pt x="487" y="631" on="0"/>
        <pt x="487" y="720" on="1"/>
        <pt x="487" y="858" on="0"/>
        <pt x="681" y="1050" on="0"/>
        <pt x="827" y="1050" on="1"/>
        <pt x="988" y="1050" on="0"/>
        <pt x="1187" y="869" on="0"/>
        <pt x="1187" y="710" on="1"/>
        <pt x="1187" y="0" on="1"/>
        <pt x="1115" y="0" on="1"/>
      </contour>
      <contour>
        <pt x="1620" y="360" on="1"/>
        <pt x="2308" y="360" on="1"/>
        <pt x="2308" y="288" on="1"/>
        <pt x="1620" y="288" on="1"/>
        <pt x="1620" y="216" on="1"/>
        <pt x="2308" y="216" on="1"/>
        <pt x="2308" y="144" on="1"/>
        <pt x="1620" y="144" on="1"/>
        <pt x="1620" y="72" on="1"/>
        <pt x="2308" y="72" on="1"/>
        <pt x="2308" y="0" on="1"/>
        <pt x="1619" y="0" on="1"/>
        <pt x="1548" y="0" on="1"/>
        <pt x="1547" y="0" on="1"/>
        <pt x="1547" y="710" on="1"/>
        <pt x="1547" y="914" on="0"/>
        <pt x="1357" y="1235" on="0"/>
        <pt x="1029" y="1410" on="0"/>
        <pt x="827" y="1410" on="1"/>
        <pt x="633" y="1410" on="0"/>
        <pt x="311" y="1224" on="0"/>
        <pt x="127" y="907" on="0"/>
        <pt x="127" y="720" on="1"/>
        <pt x="127" y="597" on="0"/>
        <pt x="206" y="376" on="0"/>
        <pt x="343" y="211" on="0"/>
        <pt x="522" y="91" on="0"/>
        <pt x="729" y="29" on="0"/>
        <pt x="836" y="29" on="1"/>
        <pt x="954" y="29" on="0"/>
        <pt x="1060" y="74" on="1"/>
        <pt x="1060" y="0" on="1"/>
        <pt x="949" y="-39" on="0"/>
        <pt x="832" y="-39" on="1"/>
        <pt x="711" y="-39" on="0"/>
        <pt x="482" y="29" on="0"/>
        <pt x="287" y="162" on="0"/>
        <pt x="139" y="343" on="0"/>
        <pt x="55" y="585" on="0"/>
        <pt x="55" y="720" on="1"/>
        <pt x="55" y="875" on="0"/>
        <pt x="172" y="1156" on="0"/>
        <pt x="375" y="1361" on="0"/>
        <pt x="664" y="1482" on="0"/>
        <pt x="827" y="1482" on="1"/>
        <pt x="896" y="1482" on="0"/>
        <pt x="1029" y="1462" on="0"/>
        <pt x="1152" y="1424" on="0"/>
        <pt x="1265" y="1369" on="0"/>
        <pt x="1365" y="1297" on="0"/>
        <pt x="1451" y="1210" on="0"/>
        <pt x="1521" y="1108" on="0"/>
        <pt x="1548" y="1051" on="1"/>
        <pt x="1548" y="1440" on="1"/>
        <pt x="2308" y="1440" on="1"/>
        <pt x="2308" y="1368" on="1"/>
        <pt x="1620" y="1368" on="1"/>
        <pt x="1620" y="1296" on="1"/>
        <pt x="2308" y="1296" on="1"/>
        <pt x="2308" y="1224" on="1"/>
        <pt x="1620" y="1224" on="1"/>
        <pt x="1620" y="1152" on="1"/>
        <pt x="2308" y="1152" on="1"/>
        <pt x="2308" y="1080" on="1"/>
        <pt x="1620" y="1080" on="1"/>
        <pt x="1620" y="901" on="1"/>
        <pt x="2268" y="901" on="1"/>
        <pt x="2268" y="829" on="1"/>
        <pt x="1620" y="829" on="1"/>
        <pt x="1620" y="757" on="1"/>
        <pt x="2268" y="757" on="1"/>
        <pt x="2268" y="685" on="1"/>
        <pt x="1620" y="685" on="1"/>
        <pt x="1620" y="613" on="1"/>
        <pt x="2268" y="613" on="1"/>
        <pt x="2268" y="541" on="1"/>
        <pt x="1620" y="541" on="1"/>
      </contour>
      <contour>
        <pt x="1260" y="1402" on="1"/>
        <pt x="1332" y="1361" on="1"/>
        <pt x="1332" y="1440" on="1"/>
        <pt x="1260" y="1440" on="1"/>
      </contour>
      <contour>
        <pt x="1476" y="1225" on="1"/>
        <pt x="1404" y="1302" on="1"/>
        <pt x="1404" y="1440" on="1"/>
        <pt x="1476" y="1440" on="1"/>
      </contour>
    </TTGlyph>
    <TTGlyph name="agrave" xMin="55" yMin="-39" xMax="1619" yMax="2096">
      <component glyphName="grave" x="100" y="157" flags="0x1004"/>
      <component glyphName="a" x="0" y="0" flags="0x1204"/>
    </TTGlyph>
    <TTGlyph name="amacron" xMin="55" yMin="-39" xMax="1619" yMax="1482">
      <component glyphName="a" x="0" y="0" flags="0x1204"/>
    </TTGlyph>
    <TTGlyph name="ampersand" xMin="69" yMin="0" xMax="2052" yMax="1656">
      <contour>
        <pt x="1835" y="781" on="1"/>
        <pt x="1835" y="853" on="1"/>
        <pt x="2052" y="853" on="1"/>
        <pt x="2052" y="781" on="1"/>
      </contour>
      <contour>
        <pt x="1835" y="643" on="1"/>
        <pt x="1835" y="715" on="1"/>
        <pt x="2052" y="715" on="1"/>
        <pt x="2052" y="643" on="1"/>
      </contour>
      <contour>
        <pt x="1725" y="580" on="1"/>
        <pt x="1725" y="1656" on="1"/>
        <pt x="1797" y="1656" on="1"/>
        <pt x="1797" y="580" on="1"/>
        <pt x="1797" y="535" on="0"/>
        <pt x="1828" y="504" on="0"/>
        <pt x="1857" y="504" on="1"/>
        <pt x="1991" y="504" on="1"/>
        <pt x="1991" y="432" on="1"/>
        <pt x="1854" y="432" on="1"/>
        <pt x="1798" y="432" on="0"/>
        <pt x="1725" y="506" on="0"/>
      </contour>
      <contour>
        <pt x="1581" y="580" on="1"/>
        <pt x="1581" y="1656" on="1"/>
        <pt x="1653" y="1656" on="1"/>
        <pt x="1653" y="580" on="1"/>
        <pt x="1653" y="474" on="0"/>
        <pt x="1763" y="360" on="0"/>
        <pt x="1848" y="360" on="1"/>
        <pt x="1991" y="360" on="1"/>
        <pt x="1991" y="288" on="1"/>
        <pt x="1851" y="288" on="1"/>
        <pt x="1739" y="288" on="0"/>
        <pt x="1581" y="444" on="0"/>
      </contour>
      <contour>
        <pt x="1437" y="580" on="1"/>
        <pt x="1437" y="1656" on="1"/>
        <pt x="1509" y="1656" on="1"/>
        <pt x="1509" y="580" on="1"/>
        <pt x="1509" y="468" on="0"/>
        <pt x="1606" y="299" on="0"/>
        <pt x="1760" y="216" on="0"/>
        <pt x="1851" y="216" on="1"/>
        <pt x="1991" y="216" on="1"/>
        <pt x="1991" y="144" on="1"/>
        <pt x="1853" y="144" on="1"/>
        <pt x="1743" y="144" on="0"/>
        <pt x="1555" y="246" on="0"/>
        <pt x="1437" y="448" on="0"/>
      </contour>
      <contour>
        <pt x="1293" y="580" on="1"/>
        <pt x="1293" y="1656" on="1"/>
        <pt x="1365" y="1656" on="1"/>
        <pt x="1365" y="580" on="1"/>
        <pt x="1365" y="465" on="0"/>
        <pt x="1445" y="271" on="0"/>
        <pt x="1580" y="143" on="0"/>
        <pt x="1755" y="72" on="0"/>
        <pt x="1850" y="72" on="1"/>
        <pt x="1991" y="72" on="1"/>
        <pt x="1991" y="0" on="1"/>
        <pt x="1851" y="0" on="1"/>
        <pt x="1742" y="0" on="0"/>
        <pt x="1540" y="82" on="0"/>
        <pt x="1385" y="229" on="0"/>
        <pt x="1293" y="450" on="0"/>
      </contour>
      <contour>
        <pt x="573" y="577" on="1"/>
        <pt x="573" y="504" on="0"/>
        <pt x="665" y="504" on="1"/>
        <pt x="1221" y="504" on="1"/>
        <pt x="1221" y="432" on="1"/>
        <pt x="665" y="432" on="1"/>
        <pt x="591" y="432" on="0"/>
        <pt x="501" y="500" on="0"/>
        <pt x="501" y="577" on="1"/>
        <pt x="501" y="714" on="0"/>
        <pt x="665" y="714" on="1"/>
        <pt x="1260" y="714" on="1"/>
        <pt x="1260" y="642" on="1"/>
        <pt x="665" y="642" on="1"/>
        <pt x="620" y="642" on="0"/>
        <pt x="573" y="616" on="0"/>
      </contour>
      <contour>
        <pt x="1149" y="1224" on="1"/>
        <pt x="1149" y="1152" on="1"/>
        <pt x="665" y="1152" on="1"/>
        <pt x="625" y="1152" on="0"/>
        <pt x="573" y="1113" on="0"/>
        <pt x="573" y="1079" on="1"/>
        <pt x="573" y="996" on="0"/>
        <pt x="665" y="996" on="1"/>
        <pt x="1260" y="996" on="1"/>
        <pt x="1260" y="924" on="1"/>
        <pt x="665" y="924" on="1"/>
        <pt x="591" y="924" on="0"/>
        <pt x="501" y="997" on="0"/>
        <pt x="501" y="1079" on="1"/>
        <pt x="501" y="1141" on="0"/>
        <pt x="597" y="1224" on="0"/>
        <pt x="665" y="1224" on="1"/>
      </contour>
      <contour>
        <pt x="1149" y="1368" on="1"/>
        <pt x="1149" y="1296" on="1"/>
        <pt x="665" y="1296" on="1"/>
        <pt x="572" y="1296" on="0"/>
        <pt x="429" y="1166" on="0"/>
        <pt x="429" y="1079" on="1"/>
        <pt x="429" y="971" on="0"/>
        <pt x="566" y="852" on="0"/>
        <pt x="665" y="852" on="1"/>
        <pt x="1260" y="852" on="1"/>
        <pt x="1260" y="780" on="1"/>
        <pt x="665" y="780" on="1"/>
        <pt x="644" y="780" on="0"/>
        <pt x="634" y="781" on="1"/>
        <pt x="533" y="772" on="0"/>
        <pt x="429" y="660" on="0"/>
        <pt x="429" y="587" on="1"/>
        <pt x="429" y="479" on="0"/>
        <pt x="566" y="360" on="0"/>
        <pt x="665" y="360" on="1"/>
        <pt x="1221" y="360" on="1"/>
        <pt x="1221" y="288" on="1"/>
        <pt x="665" y="288" on="1"/>
        <pt x="537" y="288" on="0"/>
        <pt x="357" y="451" on="0"/>
        <pt x="357" y="587" on="1"/>
        <pt x="357" y="759" on="0"/>
        <pt x="514" y="815" on="1"/>
        <pt x="442" y="852" on="0"/>
        <pt x="357" y="988" on="0"/>
        <pt x="357" y="1079" on="1"/>
        <pt x="357" y="1195" on="0"/>
        <pt x="542" y="1368" on="0"/>
        <pt x="665" y="1368" on="1"/>
      </contour>
      <contour>
        <pt x="1149" y="1512" on="1"/>
        <pt x="1149" y="1440" on="1"/>
        <pt x="665" y="1440" on="1"/>
        <pt x="513" y="1440" on="0"/>
        <pt x="285" y="1225" on="0"/>
        <pt x="285" y="1079" on="1"/>
        <pt x="285" y="927" on="0"/>
        <pt x="396" y="823" on="1"/>
        <pt x="344" y="786" on="0"/>
        <pt x="285" y="645" on="0"/>
        <pt x="285" y="587" on="1"/>
        <pt x="285" y="425" on="0"/>
        <pt x="509" y="216" on="0"/>
        <pt x="665" y="216" on="1"/>
        <pt x="1221" y="216" on="1"/>
        <pt x="1221" y="144" on="1"/>
        <pt x="665" y="144" on="1"/>
        <pt x="545" y="144" on="0"/>
        <pt x="338" y="257" on="0"/>
        <pt x="213" y="462" on="0"/>
        <pt x="213" y="587" on="1"/>
        <pt x="213" y="716" on="0"/>
        <pt x="312" y="826" on="1"/>
        <pt x="213" y="939" on="0"/>
        <pt x="213" y="1079" on="1"/>
        <pt x="213" y="1194" on="0"/>
        <pt x="337" y="1395" on="0"/>
        <pt x="546" y="1512" on="0"/>
        <pt x="665" y="1512" on="1"/>
      </contour>
      <contour>
        <pt x="1149" y="1656" on="1"/>
        <pt x="1149" y="1584" on="1"/>
        <pt x="665" y="1584" on="1"/>
        <pt x="526" y="1584" on="0"/>
        <pt x="284" y="1447" on="0"/>
        <pt x="141" y="1214" on="0"/>
        <pt x="141" y="1079" on="1"/>
        <pt x="141" y="941" on="0"/>
        <pt x="230" y="822" on="1"/>
        <pt x="186" y="770" on="0"/>
        <pt x="141" y="635" on="0"/>
        <pt x="141" y="587" on="1"/>
        <pt x="141" y="479" on="0"/>
        <pt x="226" y="287" on="0"/>
        <pt x="368" y="151" on="0"/>
        <pt x="560" y="72" on="0"/>
        <pt x="665" y="72" on="1"/>
        <pt x="1221" y="72" on="1"/>
        <pt x="1221" y="0" on="1"/>
        <pt x="665" y="0" on="1"/>
        <pt x="544" y="0" on="0"/>
        <pt x="328" y="82" on="0"/>
        <pt x="165" y="230" on="0"/>
        <pt x="69" y="453" on="0"/>
        <pt x="69" y="587" on="1"/>
        <pt x="69" y="706" on="0"/>
        <pt x="152" y="821" on="1"/>
        <pt x="69" y="932" on="0"/>
        <pt x="69" y="1079" on="1"/>
        <pt x="69" y="1233" on="0"/>
        <pt x="232" y="1500" on="0"/>
        <pt x="507" y="1656" on="0"/>
        <pt x="665" y="1656" on="1"/>
      </contour>
      <contour>
        <pt x="2052" y="924" on="1"/>
        <pt x="1835" y="924" on="1"/>
        <pt x="1835" y="996" on="1"/>
        <pt x="2052" y="996" on="1"/>
      </contour>
    </TTGlyph>
    <TTGlyph name="aogonek" xMin="55" yMin="-665" xMax="1619" yMax="1482">
      <component glyphName="ogonek" x="401" y="-89" flags="0x1004"/>
      <component glyphName="a" x="0" y="0" flags="0x1004"/>
    </TTGlyph>
    <TTGlyph name="approxequal" xMin="73" yMin="634" xMax="1296" yMax="1512">
      <component glyphName="asciitilde" x="0" y="-518" flags="0x1004"/>
      <component glyphName="asciitilde" x="0" y="0" flags="0x1004"/>
    </TTGlyph>
    <TTGlyph name="aring" xMin="55" yMin="-39" xMax="1619" yMax="2150">
      <component glyphName="ring" x="498" y="30" flags="0x1004"/>
      <component glyphName="a" x="0" y="0" flags="0x1204"/>
    </TTGlyph>
    <TTGlyph name="asciicircum" xMin="61" yMin="649" xMax="914" yMax="1440">
      <contour>
        <pt x="138" y="649" on="1"/>
        <pt x="61" y="649" on="1"/>
        <pt x="372" y="1440" on="1"/>
        <pt x="450" y="1440" on="1"/>
        <pt x="760" y="649" on="1"/>
        <pt x="682" y="649" on="1"/>
        <pt x="410" y="1343" on="1"/>
      </contour>
      <contour>
        <pt x="914" y="649" on="1"/>
        <pt x="837" y="649" on="1"/>
        <pt x="527" y="1440" on="1"/>
        <pt x="604" y="1440" on="1"/>
      </contour>
      <contour>
        <pt x="293" y="649" on="1"/>
        <pt x="215" y="649" on="1"/>
        <pt x="420" y="1172" on="1"/>
        <pt x="461" y="1080" on="1"/>
      </contour>
    </TTGlyph>
    <TTGlyph name="asciitilde" xMin="73" yMin="1152" xMax="1296" yMax="1512">
      <contour>
        <pt x="1080" y="1512" on="1"/>
        <pt x="1152" y="1512" on="1"/>
        <pt x="1152" y="1467" on="0"/>
        <pt x="1135" y="1397" on="0"/>
        <pt x="1110" y="1352" on="0"/>
        <pt x="1068" y="1321" on="0"/>
        <pt x="1035" y="1305" on="0"/>
        <pt x="984" y="1297" on="0"/>
        <pt x="958" y="1296" on="0"/>
        <pt x="936" y="1296" on="1"/>
        <pt x="433" y="1296" on="1"/>
        <pt x="404" y="1296" on="0"/>
        <pt x="375" y="1294" on="0"/>
        <pt x="329" y="1279" on="0"/>
        <pt x="307" y="1251" on="0"/>
        <pt x="289" y="1194" on="0"/>
        <pt x="289" y="1152" on="1"/>
        <pt x="217" y="1152" on="1"/>
        <pt x="217" y="1197" on="0"/>
        <pt x="234" y="1267" on="0"/>
        <pt x="259" y="1312" on="0"/>
        <pt x="301" y="1343" on="0"/>
        <pt x="334" y="1359" on="0"/>
        <pt x="385" y="1367" on="0"/>
        <pt x="411" y="1368" on="0"/>
        <pt x="433" y="1368" on="1"/>
        <pt x="936" y="1368" on="1"/>
        <pt x="965" y="1368" on="0"/>
        <pt x="994" y="1370" on="0"/>
        <pt x="1040" y="1385" on="0"/>
        <pt x="1062" y="1413" on="0"/>
        <pt x="1080" y="1470" on="0"/>
      </contour>
      <contour>
        <pt x="1224" y="1512" on="1"/>
        <pt x="1296" y="1512" on="1"/>
        <pt x="1296" y="1454" on="0"/>
        <pt x="1280" y="1357" on="0"/>
        <pt x="1256" y="1287" on="0"/>
        <pt x="1213" y="1232" on="0"/>
        <pt x="1175" y="1197" on="0"/>
        <pt x="1115" y="1172" on="0"/>
        <pt x="1073" y="1160" on="0"/>
        <pt x="1005" y="1153" on="0"/>
        <pt x="968" y="1152" on="0"/>
        <pt x="936" y="1152" on="1"/>
        <pt x="433" y="1152" on="1"/>
        <pt x="433" y="1224" on="1"/>
        <pt x="936" y="1224" on="1"/>
        <pt x="968" y="1224" on="0"/>
        <pt x="1001" y="1225" on="0"/>
        <pt x="1059" y="1230" on="0"/>
        <pt x="1091" y="1240" on="0"/>
        <pt x="1138" y="1260" on="0"/>
        <pt x="1165" y="1288" on="0"/>
        <pt x="1197" y="1332" on="0"/>
        <pt x="1213" y="1388" on="0"/>
        <pt x="1224" y="1465" on="0"/>
      </contour>
      <contour>
        <pt x="433" y="1512" on="1"/>
        <pt x="936" y="1512" on="1"/>
        <pt x="936" y="1440" on="1"/>
        <pt x="433" y="1440" on="1"/>
        <pt x="401" y="1440" on="0"/>
        <pt x="368" y="1439" on="0"/>
        <pt x="310" y="1434" on="0"/>
        <pt x="278" y="1424" on="0"/>
        <pt x="231" y="1404" on="0"/>
        <pt x="204" y="1376" on="0"/>
        <pt x="172" y="1332" on="0"/>
        <pt x="156" y="1276" on="0"/>
        <pt x="145" y="1199" on="0"/>
        <pt x="145" y="1152" on="1"/>
        <pt x="73" y="1152" on="1"/>
        <pt x="73" y="1210" on="0"/>
        <pt x="89" y="1307" on="0"/>
        <pt x="113" y="1377" on="0"/>
        <pt x="156" y="1432" on="0"/>
        <pt x="194" y="1467" on="0"/>
        <pt x="254" y="1492" on="0"/>
        <pt x="296" y="1504" on="0"/>
        <pt x="364" y="1511" on="0"/>
        <pt x="401" y="1512" on="0"/>
      </contour>
    </TTGlyph>
    <TTGlyph name="asterisk" xMin="61" yMin="215" xMax="1301" yMax="1440">
      <contour>
        <pt x="573" y="1015" on="1"/>
        <pt x="205" y="1228" on="1"/>
        <pt x="241" y="1290" on="1"/>
        <pt x="501" y="1139" on="1"/>
        <pt x="501" y="1440" on="1"/>
        <pt x="573" y="1440" on="1"/>
      </contour>
      <contour>
        <pt x="789" y="1015" on="1"/>
        <pt x="789" y="1440" on="1"/>
        <pt x="861" y="1440" on="1"/>
        <pt x="861" y="1139" on="1"/>
        <pt x="1121" y="1290" on="1"/>
        <pt x="1157" y="1228" on="1"/>
      </contour>
      <contour>
        <pt x="896" y="828" on="1"/>
        <pt x="1265" y="1041" on="1"/>
        <pt x="1301" y="979" on="1"/>
        <pt x="1040" y="828" on="1"/>
        <pt x="1301" y="677" on="1"/>
        <pt x="1265" y="615" on="1"/>
      </contour>
      <contour>
        <pt x="789" y="641" on="1"/>
        <pt x="1157" y="428" on="1"/>
        <pt x="1121" y="366" on="1"/>
        <pt x="861" y="516" on="1"/>
        <pt x="861" y="216" on="1"/>
        <pt x="789" y="216" on="1"/>
      </contour>
      <contour>
        <pt x="573" y="641" on="1"/>
        <pt x="573" y="216" on="1"/>
        <pt x="501" y="216" on="1"/>
        <pt x="501" y="516" on="1"/>
        <pt x="241" y="366" on="1"/>
        <pt x="205" y="428" on="1"/>
      </contour>
      <contour>
        <pt x="465" y="828" on="1"/>
        <pt x="97" y="615" on="1"/>
        <pt x="61" y="677" on="1"/>
        <pt x="322" y="828" on="1"/>
        <pt x="61" y="979" on="1"/>
        <pt x="97" y="1041" on="1"/>
      </contour>
      <contour>
        <pt x="132" y="553" on="1"/>
        <pt x="607" y="827" on="1"/>
        <pt x="132" y="1102" on="1"/>
        <pt x="168" y="1165" on="1"/>
        <pt x="645" y="889" on="1"/>
        <pt x="645" y="1440" on="1"/>
        <pt x="717" y="1440" on="1"/>
        <pt x="717" y="890" on="1"/>
        <pt x="1193" y="1165" on="1"/>
        <pt x="1229" y="1103" on="1"/>
        <pt x="751" y="827" on="1"/>
        <pt x="1229" y="552" on="1"/>
        <pt x="1193" y="490" on="1"/>
        <pt x="717" y="764" on="1"/>
        <pt x="717" y="215" on="1"/>
        <pt x="645" y="215" on="1"/>
        <pt x="645" y="765" on="1"/>
        <pt x="168" y="490" on="1"/>
      </contour>
    </TTGlyph>
    <TTGlyph name="at" xMin="61" yMin="-143" xMax="2141" yMax="1800">
      <contour>
        <pt x="1335" y="227" on="1"/>
        <pt x="1341" y="157" on="1"/>
        <pt x="1194" y="144" on="0"/>
        <pt x="1027" y="144" on="1"/>
        <pt x="891" y="144" on="0"/>
        <pt x="645" y="250" on="0"/>
        <pt x="466" y="430" on="0"/>
        <pt x="361" y="681" on="0"/>
        <pt x="361" y="820" on="1"/>
        <pt x="361" y="962" on="0"/>
        <pt x="477" y="1218" on="0"/>
        <pt x="674" y="1403" on="0"/>
        <pt x="947" y="1512" on="0"/>
        <pt x="1097" y="1512" on="1"/>
        <pt x="1249" y="1512" on="0"/>
        <pt x="1528" y="1407" on="0"/>
        <pt x="1731" y="1230" on="0"/>
        <pt x="1853" y="985" on="0"/>
        <pt x="1853" y="850" on="1"/>
        <pt x="1853" y="633" on="1"/>
        <pt x="1853" y="562" on="0"/>
        <pt x="1767" y="483" on="0"/>
        <pt x="1702" y="483" on="1"/>
        <pt x="1634" y="483" on="0"/>
        <pt x="1544" y="552" on="0"/>
        <pt x="1544" y="613" on="1"/>
        <pt x="1544" y="855" on="1"/>
        <pt x="1544" y="1026" on="0"/>
        <pt x="1291" y="1224" on="0"/>
        <pt x="1092" y="1224" on="1"/>
        <pt x="1001" y="1224" on="0"/>
        <pt x="839" y="1157" on="0"/>
        <pt x="726" y="1043" on="0"/>
        <pt x="660" y="889" on="0"/>
        <pt x="660" y="805" on="1"/>
        <pt x="660" y="631" on="0"/>
        <pt x="904" y="412" on="0"/>
        <pt x="1089" y="412" on="1"/>
        <pt x="1215" y="415" on="1"/>
        <pt x="1215" y="349" on="1"/>
        <pt x="1149" y="346" on="0"/>
        <pt x="1088" y="346" on="1"/>
        <pt x="955" y="346" on="0"/>
        <pt x="730" y="454" on="0"/>
        <pt x="588" y="667" on="0"/>
        <pt x="588" y="805" on="1"/>
        <pt x="588" y="1013" on="0"/>
        <pt x="877" y="1296" on="0"/>
        <pt x="1092" y="1296" on="1"/>
        <pt x="1242" y="1296" on="0"/>
        <pt x="1479" y="1190" on="0"/>
        <pt x="1616" y="988" on="0"/>
        <pt x="1616" y="855" on="1"/>
        <pt x="1616" y="613" on="1"/>
        <pt x="1616" y="586" on="0"/>
        <pt x="1665" y="555" on="0"/>
        <pt x="1702" y="555" on="1"/>
        <pt x="1736" y="555" on="0"/>
        <pt x="1781" y="597" on="0"/>
        <pt x="1781" y="633" on="1"/>
        <pt x="1781" y="850" on="1"/>
        <pt x="1781" y="1011" on="0"/>
        <pt x="1599" y="1282" on="0"/>
        <pt x="1284" y="1440" on="0"/>
        <pt x="1097" y="1440" on="1"/>
        <pt x="918" y="1440" on="0"/>
        <pt x="613" y="1275" on="0"/>
        <pt x="433" y="989" on="0"/>
        <pt x="433" y="820" on="1"/>
        <pt x="433" y="700" on="0"/>
        <pt x="528" y="477" on="0"/>
        <pt x="687" y="314" on="0"/>
        <pt x="908" y="216" on="0"/>
        <pt x="1027" y="216" on="1"/>
        <pt x="1235" y="216" on="0"/>
      </contour>
      <contour>
        <pt x="1351" y="86" on="1"/>
        <pt x="1357" y="15" on="1"/>
        <pt x="1220" y="1" on="0"/>
        <pt x="1027" y="1" on="1"/>
        <pt x="862" y="1" on="0"/>
        <pt x="562" y="130" on="0"/>
        <pt x="345" y="348" on="0"/>
        <pt x="217" y="652" on="0"/>
        <pt x="217" y="820" on="1"/>
        <pt x="217" y="990" on="0"/>
        <pt x="356" y="1299" on="0"/>
        <pt x="592" y="1523" on="0"/>
        <pt x="918" y="1656" on="0"/>
        <pt x="1097" y="1656" on="1"/>
        <pt x="1338" y="1656" on="0"/>
        <pt x="1753" y="1440" on="0"/>
        <pt x="1997" y="1068" on="0"/>
        <pt x="1997" y="850" on="1"/>
        <pt x="1997" y="633" on="1"/>
        <pt x="1997" y="500" on="0"/>
        <pt x="1827" y="339" on="0"/>
        <pt x="1702" y="339" on="1"/>
        <pt x="1574" y="339" on="0"/>
        <pt x="1400" y="494" on="0"/>
        <pt x="1400" y="623" on="1"/>
        <pt x="1400" y="855" on="1"/>
        <pt x="1400" y="962" on="0"/>
        <pt x="1231" y="1080" on="0"/>
        <pt x="1092" y="1080" on="1"/>
        <pt x="975" y="1080" on="0"/>
        <pt x="804" y="921" on="0"/>
        <pt x="804" y="805" on="1"/>
        <pt x="804" y="683" on="0"/>
        <pt x="971" y="544" on="0"/>
        <pt x="1106" y="544" on="1"/>
        <pt x="1215" y="547" on="1"/>
        <pt x="1215" y="482" on="1"/>
        <pt x="1156" y="481" on="0"/>
        <pt x="1100" y="481" on="1"/>
        <pt x="945" y="481" on="0"/>
        <pt x="732" y="650" on="0"/>
        <pt x="732" y="805" on="1"/>
        <pt x="732" y="948" on="0"/>
        <pt x="938" y="1152" on="0"/>
        <pt x="1092" y="1152" on="1"/>
        <pt x="1263" y="1152" on="0"/>
        <pt x="1472" y="996" on="0"/>
        <pt x="1472" y="855" on="1"/>
        <pt x="1472" y="613" on="1"/>
        <pt x="1472" y="519" on="0"/>
        <pt x="1603" y="411" on="0"/>
        <pt x="1702" y="411" on="1"/>
        <pt x="1798" y="411" on="0"/>
        <pt x="1925" y="530" on="0"/>
        <pt x="1925" y="633" on="1"/>
        <pt x="1925" y="850" on="1"/>
        <pt x="1925" y="999" on="0"/>
        <pt x="1795" y="1271" on="0"/>
        <pt x="1573" y="1468" on="0"/>
        <pt x="1266" y="1584" on="0"/>
        <pt x="1097" y="1584" on="1"/>
        <pt x="934" y="1584" on="0"/>
        <pt x="636" y="1463" on="0"/>
        <pt x="418" y="1260" on="0"/>
        <pt x="289" y="976" on="0"/>
        <pt x="289" y="820" on="1"/>
        <pt x="289" y="620" on="0"/>
        <pt x="488" y="276" on="0"/>
        <pt x="829" y="73" on="0"/>
        <pt x="1027" y="73" on="1"/>
        <pt x="1198" y="73" on="0"/>
      </contour>
      <contour>
        <pt x="1368" y="-56" on="1"/>
        <pt x="1376" y="-128" on="1"/>
        <pt x="1222" y="-143" on="0"/>
        <pt x="1021" y="-143" on="1"/>
        <pt x="823" y="-143" on="0"/>
        <pt x="467" y="6" on="0"/>
        <pt x="211" y="260" on="0"/>
        <pt x="61" y="613" on="0"/>
        <pt x="61" y="810" on="1"/>
        <pt x="61" y="1008" on="0"/>
        <pt x="222" y="1372" on="0"/>
        <pt x="496" y="1640" on="0"/>
        <pt x="879" y="1800" on="0"/>
        <pt x="1091" y="1800" on="1"/>
        <pt x="1230" y="1800" on="0"/>
        <pt x="1499" y="1730" on="0"/>
        <pt x="1730" y="1606" on="0"/>
        <pt x="1926" y="1429" on="0"/>
        <pt x="2063" y="1221" on="0"/>
        <pt x="2141" y="977" on="0"/>
        <pt x="2141" y="850" on="1"/>
        <pt x="2141" y="633" on="1"/>
        <pt x="2141" y="433" on="0"/>
        <pt x="1894" y="191" on="0"/>
        <pt x="1706" y="191" on="1"/>
        <pt x="1514" y="191" on="0"/>
        <pt x="1259" y="422" on="0"/>
        <pt x="1259" y="613" on="1"/>
        <pt x="1259" y="855" on="1"/>
        <pt x="1259" y="894" on="0"/>
        <pt x="1171" y="936" on="0"/>
        <pt x="1096" y="936" on="1"/>
        <pt x="1039" y="936" on="0"/>
        <pt x="948" y="854" on="0"/>
        <pt x="948" y="805" on="1"/>
        <pt x="948" y="746" on="0"/>
        <pt x="1026" y="674" on="0"/>
        <pt x="1080" y="674" on="1"/>
        <pt x="1215" y="676" on="1"/>
        <pt x="1215" y="612" on="1"/>
        <pt x="1145" y="611" on="0"/>
        <pt x="1094" y="611" on="1"/>
        <pt x="1004" y="611" on="0"/>
        <pt x="876" y="716" on="0"/>
        <pt x="876" y="805" on="1"/>
        <pt x="876" y="886" on="0"/>
        <pt x="1004" y="1008" on="0"/>
        <pt x="1096" y="1008" on="1"/>
        <pt x="1200" y="1008" on="0"/>
        <pt x="1331" y="925" on="0"/>
        <pt x="1331" y="855" on="1"/>
        <pt x="1331" y="613" on="1"/>
        <pt x="1331" y="452" on="0"/>
        <pt x="1544" y="263" on="0"/>
        <pt x="1706" y="263" on="1"/>
        <pt x="1865" y="263" on="0"/>
        <pt x="2069" y="463" on="0"/>
        <pt x="2069" y="633" on="1"/>
        <pt x="2069" y="850" on="1"/>
        <pt x="2069" y="1026" on="0"/>
        <pt x="1917" y="1349" on="0"/>
        <pt x="1657" y="1586" on="0"/>
        <pt x="1293" y="1728" on="0"/>
        <pt x="1091" y="1728" on="1"/>
        <pt x="900" y="1728" on="0"/>
        <pt x="548" y="1584" on="0"/>
        <pt x="288" y="1341" on="0"/>
        <pt x="133" y="999" on="0"/>
        <pt x="133" y="810" on="1"/>
        <pt x="133" y="637" on="0"/>
        <pt x="277" y="312" on="0"/>
        <pt x="517" y="73" on="0"/>
        <pt x="845" y="-71" on="0"/>
        <pt x="1021" y="-71" on="1"/>
        <pt x="1181" y="-71" on="0"/>
      </contour>
    </TTGlyph>
    <TTGlyph name="atilde" xMin="55" yMin="-39" xMax="1619" yMax="1974">
      <component glyphName="tilde" x="142" y="462" flags="0x1004"/>
      <component glyphName="a" x="0" y="0" flags="0x1204"/>
    </TTGlyph>
    <TTGlyph name="b" xMin="93" yMin="0" xMax="1404" yMax="1440">
      <contour>
        <pt x="1221" y="728" on="1"/>
        <pt x="1219" y="729" on="1"/>
        <pt x="1332" y="839" on="0"/>
        <pt x="1332" y="997" on="1"/>
        <pt x="1332" y="1147" on="0"/>
        <pt x="1109" y="1368" on="0"/>
        <pt x="957" y="1368" on="1"/>
        <pt x="165" y="1368" on="1"/>
        <pt x="165" y="0" on="1"/>
        <pt x="93" y="0" on="1"/>
        <pt x="93" y="1440" on="1"/>
        <pt x="957" y="1440" on="1"/>
        <pt x="1075" y="1440" on="0"/>
        <pt x="1282" y="1319" on="0"/>
        <pt x="1404" y="1114" on="0"/>
        <pt x="1404" y="997" on="1"/>
        <pt x="1404" y="837" on="0"/>
        <pt x="1318" y="722" on="1"/>
        <pt x="1404" y="603" on="0"/>
        <pt x="1404" y="460" on="1"/>
        <pt x="1404" y="323" on="0"/>
        <pt x="1280" y="114" on="0"/>
        <pt x="1079" y="8" on="0"/>
        <pt x="957" y="8" on="1"/>
        <pt x="502" y="8" on="1"/>
        <pt x="502" y="80" on="1"/>
        <pt x="957" y="80" on="1"/>
        <pt x="1111" y="80" on="0"/>
        <pt x="1332" y="299" on="0"/>
        <pt x="1332" y="460" on="1"/>
        <pt x="1332" y="534" on="0"/>
        <pt x="1268" y="678" on="0"/>
        <pt x="1220" y="727" on="1"/>
        <pt x="1220" y="728" on="0"/>
      </contour>
      <contour>
        <pt x="957" y="368" on="1"/>
        <pt x="502" y="368" on="1"/>
        <pt x="502" y="296" on="1"/>
        <pt x="957" y="296" on="1"/>
        <pt x="1023" y="296" on="0"/>
        <pt x="1116" y="385" on="0"/>
        <pt x="1116" y="460" on="1"/>
        <pt x="1116" y="525" on="0"/>
        <pt x="1020" y="624" on="0"/>
        <pt x="957" y="624" on="1"/>
        <pt x="501" y="624" on="1"/>
        <pt x="501" y="552" on="1"/>
        <pt x="957" y="552" on="1"/>
        <pt x="991" y="552" on="0"/>
        <pt x="1044" y="496" on="0"/>
        <pt x="1044" y="460" on="1"/>
        <pt x="1044" y="416" on="0"/>
        <pt x="994" y="368" on="0"/>
      </contour>
      <contour>
        <pt x="957" y="224" on="1"/>
        <pt x="502" y="224" on="1"/>
        <pt x="502" y="152" on="1"/>
        <pt x="957" y="152" on="1"/>
        <pt x="1081" y="152" on="0"/>
        <pt x="1260" y="329" on="0"/>
        <pt x="1260" y="460" on="1"/>
        <pt x="1260" y="543" on="0"/>
        <pt x="1171" y="690" on="0"/>
        <pt x="1098" y="730" on="1"/>
        <pt x="1171" y="768" on="0"/>
        <pt x="1260" y="909" on="0"/>
        <pt x="1260" y="997" on="1"/>
        <pt x="1260" y="1117" on="0"/>
        <pt x="1079" y="1296" on="0"/>
        <pt x="957" y="1296" on="1"/>
        <pt x="237" y="1296" on="1"/>
        <pt x="237" y="0" on="1"/>
        <pt x="309" y="0" on="1"/>
        <pt x="309" y="1224" on="1"/>
        <pt x="957" y="1224" on="1"/>
        <pt x="1049" y="1224" on="0"/>
        <pt x="1188" y="1087" on="0"/>
        <pt x="1188" y="997" on="1"/>
        <pt x="1188" y="897" on="0"/>
        <pt x="1052" y="768" on="0"/>
        <pt x="957" y="768" on="1"/>
        <pt x="737" y="768" on="1"/>
        <pt x="502" y="768" on="1"/>
        <pt x="502" y="696" on="1"/>
        <pt x="737" y="696" on="1"/>
        <pt x="957" y="696" on="1"/>
        <pt x="1049" y="696" on="0"/>
        <pt x="1188" y="554" on="0"/>
        <pt x="1188" y="460" on="1"/>
        <pt x="1188" y="356" on="0"/>
        <pt x="1052" y="224" on="0"/>
      </contour>
      <contour>
        <pt x="957" y="912" on="1"/>
        <pt x="502" y="912" on="1"/>
        <pt x="502" y="840" on="1"/>
        <pt x="957" y="840" on="1"/>
        <pt x="1024" y="840" on="0"/>
        <pt x="1116" y="925" on="0"/>
        <pt x="1116" y="997" on="1"/>
        <pt x="1116" y="1058" on="0"/>
        <pt x="1020" y="1152" on="0"/>
        <pt x="957" y="1152" on="1"/>
        <pt x="381" y="1152" on="1"/>
        <pt x="381" y="0" on="1"/>
        <pt x="453" y="0" on="1"/>
        <pt x="453" y="1080" on="1"/>
        <pt x="957" y="1080" on="1"/>
        <pt x="991" y="1080" on="0"/>
        <pt x="1044" y="1029" on="0"/>
        <pt x="1044" y="997" on="1"/>
        <pt x="1044" y="956" on="0"/>
        <pt x="994" y="912" on="0"/>
      </contour>
    </TTGlyph>
    <TTGlyph name="backslash" xMin="43" yMin="-194" xMax="880" yMax="1655">
      <contour>
        <pt x="342" y="1655" on="1"/>
        <pt x="417" y="1655" on="1"/>
        <pt x="880" y="-194" on="1"/>
        <pt x="805" y="-194" on="1"/>
      </contour>
      <contour>
        <pt x="192" y="1655" on="1"/>
        <pt x="267" y="1655" on="1"/>
        <pt x="730" y="-194" on="1"/>
        <pt x="656" y="-194" on="1"/>
      </contour>
      <contour>
        <pt x="43" y="1655" on="1"/>
        <pt x="117" y="1655" on="1"/>
        <pt x="581" y="-194" on="1"/>
        <pt x="507" y="-194" on="1"/>
      </contour>
    </TTGlyph>
    <TTGlyph name="bar" xMin="94" yMin="-215" xMax="454" yMax="1656">
      <contour>
        <pt x="382" y="1656" on="1"/>
        <pt x="454" y="1656" on="1"/>
        <pt x="454" y="-215" on="1"/>
        <pt x="382" y="-215" on="1"/>
      </contour>
      <contour>
        <pt x="238" y="1656" on="1"/>
        <pt x="310" y="1656" on="1"/>
        <pt x="310" y="-215" on="1"/>
        <pt x="238" y="-215" on="1"/>
      </contour>
      <contour>
        <pt x="94" y="1656" on="1"/>
        <pt x="166" y="1656" on="1"/>
        <pt x="166" y="-215" on="1"/>
        <pt x="94" y="-215" on="1"/>
      </contour>
    </TTGlyph>
    <TTGlyph name="braceleft" xMin="57" yMin="-432" xMax="758" yMax="1729">
      <contour>
        <pt x="541" y="352" on="1"/>
        <pt x="541" y="48" on="1"/>
        <pt x="541" y="-8" on="0"/>
        <pt x="595" y="-72" on="0"/>
        <pt x="636" y="-72" on="1"/>
        <pt x="758" y="-72" on="1"/>
        <pt x="758" y="-144" on="1"/>
        <pt x="639" y="-144" on="1"/>
        <pt x="567" y="-144" on="0"/>
        <pt x="469" y="-42" on="0"/>
        <pt x="469" y="48" on="1"/>
        <pt x="469" y="352" on="1"/>
        <pt x="469" y="437" on="0"/>
        <pt x="414" y="577" on="0"/>
        <pt x="322" y="667" on="0"/>
        <pt x="203" y="716" on="0"/>
        <pt x="137" y="716" on="1"/>
        <pt x="57" y="716" on="1"/>
        <pt x="57" y="788" on="1"/>
        <pt x="135" y="788" on="1"/>
        <pt x="215" y="788" on="0"/>
        <pt x="361" y="728" on="0"/>
        <pt x="474" y="618" on="0"/>
        <pt x="541" y="451" on="0"/>
      </contour>
      <contour>
        <pt x="397" y="352" on="1"/>
        <pt x="397" y="48" on="1"/>
        <pt x="397" y="-76" on="0"/>
        <pt x="537" y="-216" on="0"/>
        <pt x="639" y="-216" on="1"/>
        <pt x="758" y="-216" on="1"/>
        <pt x="758" y="-288" on="1"/>
        <pt x="641" y="-288" on="1"/>
        <pt x="510" y="-288" on="0"/>
        <pt x="325" y="-106" on="0"/>
        <pt x="325" y="48" on="1"/>
        <pt x="325" y="352" on="1"/>
        <pt x="325" y="458" on="0"/>
        <pt x="221" y="572" on="0"/>
        <pt x="140" y="572" on="1"/>
        <pt x="57" y="572" on="1"/>
        <pt x="57" y="644" on="1"/>
        <pt x="137" y="644" on="1"/>
        <pt x="245" y="644" on="0"/>
        <pt x="397" y="488" on="0"/>
      </contour>
      <contour>
        <pt x="253" y="352" on="1"/>
        <pt x="253" y="48" on="1"/>
        <pt x="253" y="-136" on="0"/>
        <pt x="479" y="-360" on="0"/>
        <pt x="638" y="-360" on="1"/>
        <pt x="758" y="-360" on="1"/>
        <pt x="758" y="-432" on="1"/>
        <pt x="639" y="-432" on="1"/>
        <pt x="517" y="-432" on="0"/>
        <pt x="310" y="-318" on="0"/>
        <pt x="181" y="-96" on="0"/>
        <pt x="181" y="48" on="1"/>
        <pt x="181" y="352" on="1"/>
        <pt x="181" y="397" on="0"/>
        <pt x="155" y="428" on="0"/>
        <pt x="131" y="428" on="1"/>
        <pt x="57" y="428" on="1"/>
        <pt x="57" y="500" on="1"/>
        <pt x="134" y="500" on="1"/>
        <pt x="185" y="500" on="0"/>
        <pt x="253" y="426" on="0"/>
      </contour>
      <contour>
        <pt x="498" y="659" on="1"/>
        <pt x="443" y="712" on="1"/>
        <pt x="469" y="779" on="0"/>
        <pt x="469" y="864" on="1"/>
        <pt x="469" y="1249" on="1"/>
        <pt x="469" y="1339" on="0"/>
        <pt x="567" y="1441" on="0"/>
        <pt x="639" y="1441" on="1"/>
        <pt x="758" y="1441" on="1"/>
        <pt x="758" y="1369" on="1"/>
        <pt x="636" y="1369" on="1"/>
        <pt x="595" y="1369" on="0"/>
        <pt x="541" y="1305" on="0"/>
        <pt x="541" y="1249" on="1"/>
        <pt x="541" y="864" on="1"/>
        <pt x="541" y="753" on="0"/>
      </contour>
      <contour>
        <pt x="382" y="760" on="1"/>
        <pt x="315" y="794" on="1"/>
        <pt x="325" y="847" on="0"/>
        <pt x="325" y="864" on="1"/>
        <pt x="325" y="1249" on="1"/>
        <pt x="325" y="1403" on="0"/>
        <pt x="510" y="1585" on="0"/>
        <pt x="641" y="1585" on="1"/>
        <pt x="758" y="1585" on="1"/>
        <pt x="758" y="1513" on="1"/>
        <pt x="639" y="1513" on="1"/>
        <pt x="537" y="1513" on="0"/>
        <pt x="397" y="1373" on="0"/>
        <pt x="397" y="1249" on="1"/>
        <pt x="397" y="864" on="1"/>
        <pt x="397" y="814" on="0"/>
      </contour>
      <contour>
        <pt x="249" y="817" on="1"/>
        <pt x="177" y="825" on="1"/>
        <pt x="181" y="845" on="0"/>
        <pt x="181" y="864" on="1"/>
        <pt x="181" y="1249" on="1"/>
        <pt x="181" y="1393" on="0"/>
        <pt x="310" y="1615" on="0"/>
        <pt x="517" y="1729" on="0"/>
        <pt x="639" y="1729" on="1"/>
        <pt x="758" y="1729" on="1"/>
        <pt x="758" y="1657" on="1"/>
        <pt x="638" y="1657" on="1"/>
        <pt x="479" y="1657" on="0"/>
        <pt x="253" y="1433" on="0"/>
        <pt x="253" y="1249" on="1"/>
        <pt x="253" y="864" on="1"/>
        <pt x="253" y="836" on="0"/>
      </contour>
    </TTGlyph>
    <TTGlyph name="braceright" xMin="56" yMin="-432" xMax="757" yMax="1729">
      <contour>
        <pt x="565" y="480" on="1"/>
        <pt x="637" y="472" on="1"/>
        <pt x="633" y="452" on="0"/>
        <pt x="633" y="433" on="1"/>
        <pt x="633" y="48" on="1"/>
        <pt x="633" y="-96" on="0"/>
        <pt x="504" y="-318" on="0"/>
        <pt x="297" y="-432" on="0"/>
        <pt x="175" y="-432" on="1"/>
        <pt x="56" y="-432" on="1"/>
        <pt x="56" y="-360" on="1"/>
        <pt x="176" y="-360" on="1"/>
        <pt x="335" y="-360" on="0"/>
        <pt x="561" y="-136" on="0"/>
        <pt x="561" y="48" on="1"/>
        <pt x="561" y="433" on="1"/>
        <pt x="561" y="461" on="0"/>
      </contour>
      <contour>
        <pt x="432" y="537" on="1"/>
        <pt x="499" y="503" on="1"/>
        <pt x="489" y="450" on="0"/>
        <pt x="489" y="433" on="1"/>
        <pt x="489" y="48" on="1"/>
        <pt x="489" y="-106" on="0"/>
        <pt x="304" y="-288" on="0"/>
        <pt x="173" y="-288" on="1"/>
        <pt x="56" y="-288" on="1"/>
        <pt x="56" y="-216" on="1"/>
        <pt x="175" y="-216" on="1"/>
        <pt x="277" y="-216" on="0"/>
        <pt x="417" y="-76" on="0"/>
        <pt x="417" y="48" on="1"/>
        <pt x="417" y="433" on="1"/>
        <pt x="417" y="483" on="0"/>
      </contour>
      <contour>
        <pt x="316" y="638" on="1"/>
        <pt x="371" y="585" on="1"/>
        <pt x="345" y="518" on="0"/>
        <pt x="345" y="433" on="1"/>
        <pt x="345" y="48" on="1"/>
        <pt x="345" y="-42" on="0"/>
        <pt x="247" y="-144" on="0"/>
        <pt x="175" y="-144" on="1"/>
        <pt x="56" y="-144" on="1"/>
        <pt x="56" y="-72" on="1"/>
        <pt x="178" y="-72" on="1"/>
        <pt x="219" y="-72" on="0"/>
        <pt x="273" y="-8" on="0"/>
        <pt x="273" y="48" on="1"/>
        <pt x="273" y="433" on="1"/>
        <pt x="273" y="544" on="0"/>
      </contour>
      <contour>
        <pt x="561" y="945" on="1"/>
        <pt x="561" y="1249" on="1"/>
        <pt x="561" y="1433" on="0"/>
        <pt x="335" y="1657" on="0"/>
        <pt x="176" y="1657" on="1"/>
        <pt x="56" y="1657" on="1"/>
        <pt x="56" y="1729" on="1"/>
        <pt x="175" y="1729" on="1"/>
        <pt x="297" y="1729" on="0"/>
        <pt x="504" y="1615" on="0"/>
        <pt x="633" y="1393" on="0"/>
        <pt x="633" y="1249" on="1"/>
        <pt x="633" y="945" on="1"/>
        <pt x="633" y="900" on="0"/>
        <pt x="659" y="869" on="0"/>
        <pt x="683" y="869" on="1"/>
        <pt x="757" y="869" on="1"/>
        <pt x="757" y="797" on="1"/>
        <pt x="680" y="797" on="1"/>
        <pt x="629" y="797" on="0"/>
        <pt x="561" y="871" on="0"/>
      </contour>
      <contour>
        <pt x="417" y="945" on="1"/>
        <pt x="417" y="1249" on="1"/>
        <pt x="417" y="1373" on="0"/>
        <pt x="277" y="1513" on="0"/>
        <pt x="175" y="1513" on="1"/>
        <pt x="56" y="1513" on="1"/>
        <pt x="56" y="1585" on="1"/>
        <pt x="173" y="1585" on="1"/>
        <pt x="304" y="1585" on="0"/>
        <pt x="489" y="1403" on="0"/>
        <pt x="489" y="1249" on="1"/>
        <pt x="489" y="945" on="1"/>
        <pt x="489" y="839" on="0"/>
        <pt x="593" y="725" on="0"/>
        <pt x="674" y="725" on="1"/>
        <pt x="757" y="725" on="1"/>
        <pt x="757" y="653" on="1"/>
        <pt x="677" y="653" on="1"/>
        <pt x="569" y="653" on="0"/>
        <pt x="417" y="809" on="0"/>
      </contour>
      <contour>
        <pt x="273" y="945" on="1"/>
        <pt x="273" y="1249" on="1"/>
        <pt x="273" y="1305" on="0"/>
        <pt x="219" y="1369" on="0"/>
        <pt x="178" y="1369" on="1"/>
        <pt x="56" y="1369" on="1"/>
        <pt x="56" y="1441" on="1"/>
        <pt x="175" y="1441" on="1"/>
        <pt x="247" y="1441" on="0"/>
        <pt x="345" y="1339" on="0"/>
        <pt x="345" y="1249" on="1"/>
        <pt x="345" y="945" on="1"/>
        <pt x="345" y="860" on="0"/>
        <pt x="400" y="720" on="0"/>
        <pt x="492" y="630" on="0"/>
        <pt x="611" y="581" on="0"/>
        <pt x="677" y="581" on="1"/>
        <pt x="757" y="581" on="1"/>
        <pt x="757" y="509" on="1"/>
        <pt x="679" y="509" on="1"/>
        <pt x="599" y="509" on="0"/>
        <pt x="453" y="569" on="0"/>
        <pt x="340" y="679" on="0"/>
        <pt x="273" y="846" on="0"/>
      </contour>
    </TTGlyph>
    <TTGlyph name="bracketleft" xMin="94" yMin="-144" xMax="598" yMax="1728">
      <contour>
        <pt x="382" y="144" on="1"/>
        <pt x="382" y="1440" on="1"/>
        <pt x="598" y="1440" on="1"/>
        <pt x="598" y="1368" on="1"/>
        <pt x="454" y="1368" on="1"/>
        <pt x="454" y="216" on="1"/>
        <pt x="598" y="216" on="1"/>
        <pt x="598" y="144" on="1"/>
      </contour>
      <contour>
        <pt x="238" y="1584" on="1"/>
        <pt x="598" y="1584" on="1"/>
        <pt x="598" y="1512" on="1"/>
        <pt x="310" y="1512" on="1"/>
        <pt x="310" y="72" on="1"/>
        <pt x="598" y="72" on="1"/>
        <pt x="598" y="1" on="1"/>
        <pt x="238" y="1" on="1"/>
      </contour>
      <contour>
        <pt x="94" y="1728" on="1"/>
        <pt x="598" y="1728" on="1"/>
        <pt x="598" y="1656" on="1"/>
        <pt x="166" y="1656" on="1"/>
        <pt x="166" y="-72" on="1"/>
        <pt x="598" y="-72" on="1"/>
        <pt x="598" y="-144" on="1"/>
        <pt x="94" y="-144" on="1"/>
      </contour>
    </TTGlyph>
    <TTGlyph name="bracketright" xMin="59" yMin="-144" xMax="563" yMax="1728">
      <contour>
        <pt x="59" y="1728" on="1"/>
        <pt x="563" y="1728" on="1"/>
        <pt x="563" y="-144" on="1"/>
        <pt x="59" y="-144" on="1"/>
        <pt x="59" y="-72" on="1"/>
        <pt x="491" y="-72" on="1"/>
        <pt x="491" y="1656" on="1"/>
        <pt x="59" y="1656" on="1"/>
      </contour>
      <contour>
        <pt x="59" y="1584" on="1"/>
        <pt x="419" y="1584" on="1"/>
        <pt x="419" y="1" on="1"/>
        <pt x="59" y="1" on="1"/>
        <pt x="59" y="72" on="1"/>
        <pt x="347" y="72" on="1"/>
        <pt x="347" y="1512" on="1"/>
        <pt x="59" y="1512" on="1"/>
      </contour>
      <contour>
        <pt x="275" y="1440" on="1"/>
        <pt x="275" y="144" on="1"/>
        <pt x="59" y="144" on="1"/>
        <pt x="59" y="216" on="1"/>
        <pt x="203" y="216" on="1"/>
        <pt x="203" y="1368" on="1"/>
        <pt x="59" y="1368" on="1"/>
        <pt x="59" y="1440" on="1"/>
      </contour>
    </TTGlyph>
    <TTGlyph name="breve" xMin="68" yMin="1604" xMax="672" yMax="1852">
      <contour>
        <pt x="448" y="1714" on="0"/>
        <pt x="292" y="1714" on="0"/>
        <pt x="178" y="1795" on="0"/>
        <pt x="178" y="1852" on="1"/>
        <pt x="237" y="1852" on="1"/>
        <pt x="237" y="1817" on="0"/>
        <pt x="314" y="1769" on="0"/>
        <pt x="426" y="1769" on="0"/>
        <pt x="503" y="1817" on="0"/>
        <pt x="503" y="1852" on="1"/>
        <pt x="562" y="1852" on="1"/>
        <pt x="562" y="1795" on="0"/>
      </contour>
      <contour>
        <pt x="271" y="1659" on="0"/>
        <pt x="469" y="1659" on="0"/>
        <pt x="613" y="1773" on="0"/>
        <pt x="613" y="1852" on="1"/>
        <pt x="672" y="1852" on="1"/>
        <pt x="672" y="1749" on="0"/>
        <pt x="496" y="1604" on="0"/>
        <pt x="244" y="1604" on="0"/>
        <pt x="68" y="1749" on="0"/>
        <pt x="68" y="1852" on="1"/>
        <pt x="127" y="1852" on="1"/>
        <pt x="127" y="1773" on="0"/>
      </contour>
    </TTGlyph>
    <TTGlyph name="brokenbar" xMin="90" yMin="-218" xMax="450" yMax="1656">
      <contour>
        <pt x="378" y="576" on="1"/>
        <pt x="450" y="576" on="1"/>
        <pt x="450" y="-218" on="1"/>
        <pt x="378" y="-218" on="1"/>
      </contour>
      <contour>
        <pt x="234" y="576" on="1"/>
        <pt x="306" y="576" on="1"/>
        <pt x="306" y="-218" on="1"/>
        <pt x="234" y="-218" on="1"/>
      </contour>
      <contour>
        <pt x="90" y="576" on="1"/>
        <pt x="162" y="576" on="1"/>
        <pt x="162" y="-218" on="1"/>
        <pt x="90" y="-218" on="1"/>
      </contour>
      <contour>
        <pt x="378" y="1656" on="1"/>
        <pt x="450" y="1656" on="1"/>
        <pt x="450" y="864" on="1"/>
        <pt x="378" y="864" on="1"/>
      </contour>
      <contour>
        <pt x="234" y="1656" on="1"/>
        <pt x="306" y="1656" on="1"/>
        <pt x="306" y="864" on="1"/>
        <pt x="234" y="864" on="1"/>
      </contour>
      <contour>
        <pt x="90" y="1656" on="1"/>
        <pt x="162" y="1656" on="1"/>
        <pt x="162" y="864" on="1"/>
        <pt x="90" y="864" on="1"/>
      </contour>
    </TTGlyph>
    <TTGlyph name="bullet" xMin="72" yMin="276" xMax="960" yMax="1164">
      <contour>
        <pt x="288" y="822" on="0"/>
        <pt x="288" y="618" on="0"/>
        <pt x="414" y="492" on="0"/>
        <pt x="618" y="492" on="0"/>
        <pt x="744" y="618" on="0"/>
        <pt x="744" y="822" on="0"/>
        <pt x="618" y="948" on="0"/>
        <pt x="414" y="948" on="0"/>
      </contour>
      <contour>
        <pt x="216" y="588" on="0"/>
        <pt x="216" y="852" on="0"/>
        <pt x="384" y="1020" on="0"/>
        <pt x="648" y="1020" on="0"/>
        <pt x="816" y="852" on="0"/>
        <pt x="816" y="588" on="0"/>
        <pt x="648" y="420" on="0"/>
        <pt x="384" y="420" on="0"/>
      </contour>
      <contour>
        <pt x="144" y="882" on="0"/>
        <pt x="144" y="558" on="0"/>
        <pt x="354" y="348" on="0"/>
        <pt x="678" y="348" on="0"/>
        <pt x="888" y="558" on="0"/>
        <pt x="888" y="882" on="0"/>
        <pt x="678" y="1092" on="0"/>
        <pt x="354" y="1092" on="0"/>
      </contour>
      <contour>
        <pt x="72" y="529" on="0"/>
        <pt x="72" y="911" on="0"/>
        <pt x="325" y="1164" on="0"/>
        <pt x="707" y="1164" on="0"/>
        <pt x="960" y="911" on="0"/>
        <pt x="960" y="529" on="0"/>
        <pt x="707" y="276" on="0"/>
        <pt x="325" y="276" on="0"/>
      </contour>
    </TTGlyph>
</ttFont>
